<svg width="109" height="108" viewBox="0 0 109 108" fill="none" xmlns="http://www.w3.org/2000/svg">
<path d="M46.6293 102.296C71.4274 102.296 91.5303 82.1933 91.5303 57.3952C91.5303 32.5971 71.4274 12.4943 46.6293 12.4943C21.8312 12.4943 1.72839 32.5971 1.72839 57.3952C1.72839 82.1933 21.8312 102.296 46.6293 102.296Z" fill="#FFFBF5"/>
<path d="M88.0016 55.0362C88.2371 54.0104 88.6881 53.0484 89.1312 52.0945C90.0931 50.0388 91.3625 47.9792 91.6379 45.692C91.7896 44.4307 91.7377 43.1534 91.8854 41.8921C91.9293 41.5208 92.0011 41.1416 92.2246 40.8423C92.4482 40.5469 92.8673 40.3633 93.2066 40.519C93.5618 40.6826 93.6855 41.1177 93.7574 41.5009C93.9849 42.6904 94.1166 43.8998 94.1486 45.1093C95.5256 44.1952 96.1643 42.5187 96.6473 40.9381C97.1303 39.3534 97.5933 37.669 98.7947 36.5274C98.9863 36.3478 99.2897 36.1841 99.4853 36.3558C99.5691 36.4276 99.601 36.5434 99.625 36.6512C99.7567 37.2858 99.6529 37.9404 99.5372 38.5791C99.134 40.7984 98.5632 42.9897 97.8328 45.1252C99.4134 43.1973 100.743 41.0658 101.788 38.8026C102.188 37.9324 102.862 36.4077 103.92 36.1762C104.107 36.1362 104.319 36.1602 104.471 36.2799C104.618 36.3957 104.69 36.5793 104.738 36.7589C104.878 37.3018 104.814 37.8805 104.65 38.4154C104.315 39.4971 103.732 40.6028 103.253 41.6326C102.563 43.1175 101.872 44.5983 101.186 46.0832C102.12 45.205 102.842 44.1393 103.621 43.1294C104.347 42.1874 105.121 41.1057 106.039 40.3433C106.303 40.1278 106.59 39.9282 106.922 39.8444C107.025 39.8204 107.133 39.8045 107.237 39.8364C107.532 39.9242 107.612 40.3074 107.596 40.6148C107.552 41.5328 107.065 42.3351 106.626 43.1254C106.147 43.9996 105.54 44.7939 105.045 45.6521C104.483 46.634 103.976 47.6559 103.437 48.6537C104.115 47.7078 104.906 46.8456 105.788 46.0912C106.411 45.5603 107.153 45.0534 107.967 45.1212C108.123 45.1332 108.287 45.1731 108.386 45.2889C108.442 45.3527 108.47 45.4326 108.494 45.5124C108.662 46.171 108.187 46.5901 107.86 47.101C107.448 47.7397 107.037 48.3783 106.626 49.013C106.211 49.4281 105.916 50.1147 105.596 50.6096C105.281 51.1006 104.914 51.5795 104.63 52.0785C103.213 54.5652 101.685 56.9881 99.9643 59.2832L88.0056 55.0362H88.0016Z" fill="#F29B75"/>
<path d="M102.271 57.3554L89.5903 50.6057L79.3998 65.9213C79.3998 65.9213 70.6224 47.9833 53.363 52.0347C53.2712 52.0547 53.1794 52.0586 53.0915 52.0467C52.7602 52.3101 52.413 52.5536 52.0498 52.7611C49.8744 54.0145 47.22 54.4137 44.7691 53.8548C43.1685 53.4916 41.6677 52.7172 40.4224 51.6475C40.3585 51.6555 40.2946 51.6595 40.2268 51.6475C37.297 51.3002 26.7553 50.4101 22.7039 54.8567C17.9779 60.0417 1.12955 84.3503 6.36646 97.4226C11.6034 110.495 39.2568 102.46 39.2568 102.46L64.7628 87.1005C64.7628 87.1005 73.0254 98.0413 79.9188 96.4726C86.8122 94.9039 92.4323 84.5977 98.4276 68.404C104.419 52.2103 102.271 57.3554 102.271 57.3554Z" fill="#2D3043"/>
<path d="M42.0111 59.3512C41.9791 59.3911 41.9632 59.419 41.9712 59.427C41.9791 59.435 42.0111 59.427 42.059 59.3951C42.1029 59.427 42.1308 59.447 42.1348 59.439C42.1428 59.431 42.1348 59.4031 42.1069 59.3631C42.2825 59.2474 42.6138 58.9959 43.0529 58.6287C43.6915 58.0978 44.5497 57.3354 45.4598 56.4533C46.2581 55.6829 46.9646 54.9525 47.4994 54.3657C47.5633 54.4456 47.6352 54.5254 47.711 54.6172C48.2459 55.2439 49.0162 56.0781 49.9103 56.9562C50.8084 57.8344 51.6587 58.5848 52.2973 59.1037C52.6645 59.4031 52.9559 59.6266 53.1435 59.7543C53.1315 59.7783 53.1235 59.7982 53.1315 59.8062C53.1315 59.8062 53.1555 59.7982 53.1794 59.7783C53.2992 59.8581 53.371 59.894 53.383 59.882C53.395 59.8661 53.3511 59.8102 53.2593 59.7104C53.4469 59.5388 53.8221 59.1356 54.2651 58.505C54.4168 58.2854 54.5805 58.0419 54.7361 57.7665C54.9038 57.4991 55.0475 57.1957 55.2071 56.8804C55.5065 56.2378 55.7859 55.5073 55.9974 54.717C56.201 53.9227 56.3128 53.1483 56.3647 52.4418C56.3767 52.1225 56.3926 51.8231 56.3846 51.5357C56.2888 51.5437 56.193 51.5557 56.0972 51.5676C56.0932 51.8391 56.0693 52.1225 56.0493 52.4178C55.9815 53.1044 55.8618 53.8588 55.6662 54.6292C55.4626 55.3995 55.1992 56.114 54.9198 56.7487C54.7721 57.06 54.6363 57.3634 54.4847 57.6308C54.345 57.9062 54.1973 58.1497 54.0576 58.3732C53.6624 59.0079 53.3391 59.443 53.1994 59.6545C52.7563 59.1915 51.5349 58.0739 50.1458 56.7128C49.12 55.7109 48.2259 54.7968 47.6391 54.21C47.6631 54.1821 47.691 54.1542 47.715 54.1262C47.731 54.1063 47.7469 54.0903 47.7629 54.0703C47.5992 54.0823 47.4356 54.0903 47.2719 54.0983C47.2919 54.1222 47.3079 54.1422 47.3278 54.1661C46.757 54.721 46.0266 55.4355 45.2203 56.2138C43.7035 57.6827 42.4062 58.8921 42.055 59.2953C41.7476 58.8283 40.5102 57.2995 39.4006 55.2439C38.5584 53.7111 38.0075 52.2781 37.6842 51.4359C37.6204 51.4359 37.5525 51.4279 37.4886 51.424C37.5405 51.6235 37.6044 51.851 37.6882 52.1145C37.9636 52.9886 38.4306 54.1741 39.1012 55.4075C39.7718 56.6409 40.5102 57.6747 41.097 58.3812C41.5081 58.8802 41.8314 59.2154 41.9991 59.3631L42.0111 59.3512Z" fill="#384D72"/>
<path d="M103.192 56.2686L89.7158 49.2561C89.1076 48.9396 88.3581 49.1761 88.0416 49.7843L86.4903 52.7657C86.1738 53.3739 86.4103 54.1235 87.0184 54.4399L100.495 61.4524C101.103 61.7689 101.853 61.5324 102.169 60.9242L103.721 57.9428C104.037 57.3346 103.801 56.585 103.192 56.2686Z" fill="#E71D35"/>
<path d="M63.5614 52.1384C62.3599 51.8071 61.0866 51.5836 59.7494 51.4878L60.416 63.654L33.1098 63.7458L33.4052 51.368C32.2955 51.4119 31.146 51.5038 30.0164 51.6754L25.446 73.4812L68.0798 74.6148L63.5574 52.1344L63.5614 52.1384Z" fill="#E71D35"/>
<path d="M58.3127 67.6656H34.6907V75.7565H58.3127V67.6656Z" fill="#FFFBF5"/>
<path d="M82.7327 60.8759C82.7327 60.8759 82.5531 61.0555 82.2737 61.4147C81.9942 61.774 81.6071 62.3088 81.144 62.9754C80.214 64.3126 78.9886 66.1966 77.7433 68.352C76.5019 70.5035 75.484 72.5112 74.7935 73.9841C74.4502 74.7225 74.1788 75.3213 74.0071 75.7444C73.8315 76.1635 73.7477 76.403 73.7677 76.411C73.7876 76.4189 73.9154 76.2034 74.1269 75.8003C74.4143 75.2374 74.7097 74.6746 75.009 74.0919C75.7515 72.6469 76.8012 70.6671 78.0386 68.5237C79.276 66.3802 80.4655 64.4802 81.3436 63.1111C81.6989 62.5603 82.0422 62.0214 82.3814 61.4906C82.6249 61.1074 82.7487 60.8878 82.7327 60.8759Z" fill="#32476B"/>
<path d="M57.5742 76.8781H19.7942L23.171 102.264C23.6061 105.529 26.3882 107.968 29.6813 107.968H65.3058C68.5989 107.968 71.385 105.529 71.8161 102.264L75.1929 76.8781H57.5702H57.5742Z" fill="white"/>
<path d="M70.8141 104.975C70.2633 104.975 69.7125 104.983 69.1537 104.987C68.6627 104.987 68.1598 104.987 67.6568 104.987C67.7606 103.362 67.8644 101.65 67.9642 99.8694C68.3594 99.8694 68.7625 99.8694 69.1537 99.8694C70.1675 99.8574 71.1614 99.8494 72.1393 99.8374L72.1992 99.3784C71.1973 99.3864 70.1835 99.3904 69.1497 99.3984C68.7665 99.3984 68.3753 99.3984 67.9881 99.3984C68.08 97.7459 68.1678 96.0335 68.2516 94.2772C68.5509 94.2772 68.8543 94.2772 69.1497 94.2772C70.419 94.2652 71.6644 94.2533 72.8818 94.2373L72.9417 93.7823C71.7043 93.7902 70.4389 93.7982 69.1457 93.8062C68.8583 93.8062 68.5629 93.8062 68.2715 93.8062C68.3554 92.0539 68.4272 90.3415 68.4951 88.685C68.7106 88.685 68.9341 88.685 69.1457 88.685C70.6744 88.6691 72.1673 88.6531 73.6242 88.6371L73.6841 88.1861C72.2072 88.1981 70.6944 88.2061 69.1457 88.214C68.9381 88.214 68.7226 88.214 68.515 88.214C68.5829 86.4338 68.6427 84.7174 68.6946 83.0929C68.8463 83.0929 68.998 83.0929 69.1497 83.0929C70.9419 83.0729 72.6822 83.057 74.3706 83.033L74.4305 82.586C72.7221 82.6019 70.9578 82.6099 69.1457 82.6219C69.002 82.6219 68.8543 82.6219 68.7106 82.6219C68.7745 80.5463 68.8224 78.6223 68.8583 76.89H68.4671C68.4033 78.6223 68.3274 80.5463 68.2476 82.6219C66.164 82.6219 64.0165 82.6139 61.8172 82.6019C61.8571 80.5263 61.889 78.6104 61.913 76.89H61.5218C61.466 78.6064 61.4101 80.5223 61.3502 82.5979C59.2187 82.582 57.0313 82.562 54.808 82.5381C54.82 80.5183 54.828 78.6223 54.828 76.89H54.4169C54.3889 78.6383 54.361 80.5263 54.3291 82.5301C52.3053 82.5061 50.2497 82.4782 48.1661 82.4502C48.1661 80.4345 48.1661 78.5705 48.1581 76.89H47.7789C47.755 78.5665 47.735 80.4305 47.7111 82.4462C47.6472 82.4462 47.5833 82.4462 47.5195 82.4462C45.392 82.4143 43.2924 82.3824 41.2248 82.3584C41.1929 80.4185 41.1649 78.5904 41.141 76.898H40.7299C40.7299 78.5744 40.7378 80.4066 40.7498 82.3544C38.5225 82.3265 36.3391 82.2986 34.1997 82.2786C34.1438 80.3307 34.0919 78.5265 34.036 76.898H33.6448C33.6688 78.5226 33.6967 80.3267 33.7327 82.2706C31.5293 82.2507 29.3819 82.2347 27.2903 82.2267C27.2145 80.3068 27.1466 78.5186 27.0867 76.898H26.6956C26.7275 78.5186 26.7754 80.3068 26.8313 82.2267C26.5159 82.2267 26.1966 82.2267 25.8813 82.2267C24.0252 82.2267 22.225 82.2267 20.4807 82.2387L20.5406 82.6858C22.2649 82.6858 24.0492 82.6937 25.8813 82.6977C26.2006 82.6977 26.5239 82.7017 26.8472 82.7057C26.8991 84.3303 26.955 86.0426 27.0229 87.8269C26.6437 87.8269 26.2565 87.8269 25.8813 87.8229C24.2887 87.8229 22.7359 87.8229 21.2231 87.8308L21.283 88.2819C22.7759 88.2819 24.3086 88.2899 25.8773 88.2939C26.2605 88.2939 26.6516 88.3019 27.0388 88.3019C27.1027 89.9544 27.1745 91.6667 27.2584 93.423C26.7993 93.423 26.3323 93.419 25.8813 93.419C24.5481 93.419 23.2429 93.419 21.9656 93.423L22.0254 93.8781C23.2828 93.8781 24.5681 93.886 25.8773 93.89C26.3403 93.89 26.8113 93.898 27.2783 93.902C27.2783 93.9259 27.2783 93.9459 27.2783 93.9698C27.3621 95.6982 27.446 97.3866 27.5378 99.0192C26.9829 99.0192 26.4241 99.0152 25.8773 99.0112C24.8036 99.0112 23.7458 99.0112 22.708 99.0112L22.7679 99.4702C23.7857 99.4702 24.8235 99.4782 25.8733 99.4782C26.4281 99.4782 26.9989 99.4862 27.5657 99.4902C27.6655 101.27 27.7653 102.983 27.8691 104.607C27.1985 104.607 26.5319 104.599 25.8773 104.599C25.2147 104.599 24.5601 104.599 23.9095 104.599C23.9973 104.759 24.0891 104.915 24.1889 105.062C24.7477 105.062 25.3065 105.062 25.8733 105.066C26.5399 105.07 27.2185 105.078 27.897 105.082C27.9569 106.016 28.0168 106.918 28.0766 107.789C28.2243 107.825 28.368 107.86 28.5197 107.884C28.4678 106.986 28.4159 106.052 28.364 105.086C30.284 105.102 32.2558 105.126 34.2675 105.15C34.2955 106.14 34.3234 107.09 34.3553 107.988H34.7585C34.7465 107.09 34.7305 106.148 34.7106 105.158C36.8141 105.186 38.9616 105.214 41.149 105.246C41.1769 106.192 41.2048 107.106 41.2328 107.992H41.6719C41.6559 107.106 41.6359 106.196 41.616 105.254C43.5479 105.282 45.5077 105.31 47.4915 105.342C47.5155 105.342 47.5354 105.342 47.5594 105.342C47.5594 106.252 47.5594 107.134 47.5594 107.992H48.0104C48.0184 107.138 48.0264 106.256 48.0344 105.35C50.0142 105.378 51.9701 105.402 53.898 105.426C53.882 106.308 53.8621 107.162 53.8461 107.996H54.2851C54.3131 107.17 54.341 106.316 54.365 105.434C56.5524 105.458 58.7038 105.474 60.8034 105.485C60.7874 106.36 60.7754 107.198 60.7634 108H61.1666C61.1905 107.202 61.2185 106.364 61.2424 105.489C63.2542 105.497 65.218 105.501 67.1339 105.497C67.09 106.276 67.0501 107.034 67.0062 107.769C67.1579 107.729 67.3056 107.677 67.4533 107.625C67.5012 106.934 67.5491 106.224 67.593 105.497C68.1039 105.497 68.6188 105.497 69.1217 105.493C69.5648 105.489 70.0079 105.485 70.4469 105.481C70.5667 105.33 70.6785 105.174 70.7822 105.014L70.8141 104.975ZM27.3302 82.6818C29.4178 82.6977 31.5613 82.7217 33.7606 82.7456C33.7925 84.3622 33.8245 86.0666 33.8644 87.8468C31.701 87.8269 29.5974 87.8109 27.5458 87.8029C27.4699 86.0187 27.3981 84.3063 27.3342 82.6858L27.3302 82.6818ZM27.5617 88.2779C29.6094 88.2939 31.7129 88.3178 33.8724 88.3418C33.9043 89.8107 33.9362 91.3235 33.9722 92.8722C33.9762 93.0638 33.9801 93.2514 33.9841 93.443C31.8686 93.423 29.801 93.407 27.7892 93.3951C27.7054 91.6428 27.6296 89.9304 27.5577 88.2779H27.5617ZM27.8172 93.914C27.8172 93.914 27.8172 93.886 27.8172 93.8741C29.8249 93.89 31.8886 93.914 34.0001 93.9379C34.04 95.6902 34.0839 97.3986 34.1278 99.0391C32.0602 99.0192 30.0405 99.0032 28.0687 98.9912C27.9848 97.3467 27.901 95.6503 27.8172 93.914ZM28.368 104.587C28.2802 102.963 28.1884 101.25 28.0966 99.4702C30.0604 99.4862 32.0802 99.5101 34.1438 99.5341C34.1917 101.322 34.2396 103.035 34.2835 104.635C32.2678 104.615 30.2919 104.599 28.368 104.587ZM34.2276 82.7536C36.3591 82.7815 38.5425 82.8095 40.7658 82.8414C40.7777 84.462 40.7937 86.1664 40.8137 87.9306C38.6223 87.9027 36.4669 87.8747 34.3633 87.8548C34.3194 86.0786 34.2715 84.3702 34.2276 82.7576V82.7536ZM34.4871 92.8602C34.4511 91.3195 34.4152 89.8107 34.3793 88.3498C36.4828 88.3737 38.6343 88.4056 40.8256 88.4376C40.8456 90.0861 40.8735 91.7865 40.9015 93.5268C38.7261 93.4989 36.5906 93.4709 34.503 93.451C34.499 93.2554 34.495 93.0598 34.4911 92.8642L34.4871 92.8602ZM34.511 93.9459C36.5986 93.9699 38.7341 94.0018 40.9095 94.0337C40.9414 95.774 40.9773 97.4744 41.0172 99.123C38.8458 99.095 36.7143 99.0671 34.6228 99.0471C34.5908 97.4066 34.5509 95.7022 34.511 93.9499V93.9459ZM34.7306 104.639C34.7026 103.039 34.6707 101.33 34.6347 99.5421C36.7223 99.566 38.8578 99.5979 41.0292 99.6299C41.0731 101.398 41.117 103.099 41.1649 104.719C38.9776 104.691 36.8341 104.663 34.7345 104.643L34.7306 104.639ZM47.5913 104.807C47.5714 104.807 47.5514 104.807 47.5315 104.807C45.5397 104.779 43.5758 104.747 41.6359 104.723C41.604 103.099 41.5681 101.398 41.5321 99.6379C43.5 99.6658 45.4958 99.6977 47.5235 99.7257C47.5514 99.7257 47.5793 99.7257 47.6033 99.7257C47.5953 101.482 47.5913 103.182 47.5873 104.807H47.5913ZM47.6272 95.1873C47.6193 96.5564 47.6153 97.8975 47.6073 99.2108C47.5833 99.2108 47.5554 99.2108 47.5315 99.2108C45.4998 99.1788 43.5 99.1509 41.5242 99.123C41.4922 97.4744 41.4563 95.774 41.4204 94.0377C43.4241 94.0657 45.4598 94.0976 47.5235 94.1295C47.5594 94.1295 47.5953 94.1295 47.6312 94.1295C47.6312 94.4808 47.6312 94.832 47.6272 95.1873ZM47.6352 93.6186C47.5993 93.6186 47.5674 93.6186 47.5315 93.6186C45.4638 93.5867 43.4202 93.5587 41.4124 93.5308C41.3845 91.7905 41.3605 90.0941 41.3326 88.4456C43.3683 88.4735 45.4319 88.5054 47.5235 88.5374C47.5714 88.5374 47.6193 88.5374 47.6711 88.5374C47.6592 90.1779 47.6472 91.8783 47.6352 93.6186ZM47.6751 88.0264C47.6272 88.0264 47.5794 88.0264 47.5315 88.0264C45.4319 87.9945 43.3643 87.9666 41.3246 87.9386C41.2966 86.1783 41.2727 84.478 41.2448 82.8534C43.3084 82.8813 45.4 82.9133 47.5235 82.9452C47.5873 82.9452 47.6512 82.9452 47.719 82.9452C47.7031 84.5538 47.6871 86.2542 47.6751 88.0264ZM53.9419 104.891C52.014 104.867 50.0541 104.843 48.0743 104.815C48.0903 103.19 48.1022 101.49 48.1142 99.7336C50.118 99.7616 52.0978 99.7855 54.0457 99.8095C54.0097 101.574 53.9738 103.274 53.9419 104.895V104.891ZM54.0536 99.2986C52.1018 99.2746 50.122 99.2507 48.1142 99.2187C48.1222 97.9055 48.1302 96.5604 48.1382 95.1913C48.1382 94.84 48.1382 94.4888 48.1421 94.1375C50.1738 94.1655 52.1816 94.1934 54.1534 94.2134C54.1175 95.9537 54.0856 97.6541 54.0496 99.2986H54.0536ZM54.1694 93.5388C54.1694 93.5947 54.1694 93.6505 54.1694 93.7064C52.1936 93.6825 50.1858 93.6585 48.1501 93.6266C48.1581 91.8823 48.1661 90.1859 48.1701 88.5453C50.2257 88.5733 52.2534 88.6012 54.2492 88.6212C54.2253 90.2178 54.1973 91.8623 54.1734 93.5388H54.1694ZM54.2532 88.1103C52.2534 88.0863 50.2257 88.0624 48.1661 88.0304C48.1701 86.2582 48.1741 84.5578 48.1741 82.9492C50.2577 82.9811 52.3093 83.0051 54.3291 83.025C54.3051 84.6536 54.2772 86.35 54.2492 88.1103H54.2532ZM61.8132 83.0809C64.0126 83.0889 66.152 83.0889 68.2356 83.0809C68.1718 84.7055 68.0999 86.4179 68.0241 88.2021C65.9764 88.2021 63.8728 88.1941 61.7134 88.1821C61.7533 86.4059 61.7853 84.7015 61.8172 83.0809H61.8132ZM61.6057 92.8722C61.6376 91.4392 61.6695 90.0382 61.7015 88.6731C63.8569 88.6811 65.9564 88.6811 68.0001 88.6731C67.9283 90.3296 67.8524 92.042 67.7686 93.7902C65.7609 93.7902 63.7012 93.7823 61.5857 93.7663C61.5937 93.4669 61.6017 93.1676 61.6057 92.8642V92.8722ZM60.8473 104.955C58.7477 104.939 56.6003 104.919 54.4169 104.895C54.4648 103.278 54.5087 101.578 54.5526 99.8095C56.724 99.8334 58.8595 99.8494 60.947 99.8574C60.9111 101.65 60.8792 103.358 60.8513 104.955H60.8473ZM60.951 99.3624C58.8635 99.3465 56.732 99.3265 54.5606 99.3026C54.6005 97.6581 54.6364 95.9576 54.6683 94.2173C56.8398 94.2413 58.9752 94.2573 61.0628 94.2652C61.0229 96.0215 60.987 97.7259 60.951 99.3624ZM61.0947 92.8602C61.0868 93.1636 61.0788 93.4669 61.0748 93.7703C58.9872 93.7543 56.8517 93.7344 54.6803 93.7104C54.6803 93.6545 54.6803 93.6026 54.6803 93.5467C54.7122 91.8663 54.7362 90.2218 54.7561 88.6252C56.9435 88.6491 59.095 88.6651 61.1945 88.6731C61.1586 90.0342 61.1267 91.4312 61.0947 92.8602ZM61.2105 88.1781C59.1069 88.1622 56.9555 88.1422 54.7641 88.1182C54.7881 86.354 54.8041 84.6536 54.816 83.033C57.0353 83.057 59.2187 83.0729 61.3462 83.0809C61.3023 84.6975 61.2544 86.4059 61.2105 88.1781ZM67.1938 104.983C65.2739 104.983 63.306 104.971 61.2903 104.959C61.3382 103.362 61.3861 101.654 61.43 99.8614C63.4937 99.8694 65.5014 99.8734 67.4653 99.8654C67.3735 101.646 67.2816 103.358 67.1938 104.983ZM67.4932 99.3904C65.5254 99.3904 63.5136 99.3824 61.446 99.3664C61.4899 97.7299 61.5298 96.0215 61.5737 94.2692C63.6853 94.2772 65.7409 94.2772 67.7447 94.2692C67.6608 96.0215 67.577 97.7339 67.4892 99.3864L67.4932 99.3904Z" fill="#E71D35"/>
<g style="mix-blend-mode:multiply" opacity="0.16">
<path d="M71.82 102.264L72.4148 97.8058C70.7703 97.1831 69.0539 96.7201 67.3375 96.3608C61.0469 95.0436 54.5486 94.9478 48.242 93.7024C41.9353 92.4571 35.5409 89.8266 31.697 84.6775C29.9886 82.3864 28.9149 79.6921 28.4559 76.8781H19.7942L23.171 102.264C23.6061 105.529 26.3882 107.968 29.6813 107.968H65.3058C68.5989 107.968 71.385 105.529 71.8161 102.264H71.82Z" fill="#976C29"/>
</g>
<path d="M77.4999 73.4812H17.4909C16.7634 73.4812 16.1737 74.0709 16.1737 74.7984V78.3589C16.1737 79.0864 16.7634 79.6761 17.4909 79.6761H77.4999C78.2273 79.6761 78.8171 79.0864 78.8171 78.3589V74.7984C78.8171 74.0709 78.2273 73.4812 77.4999 73.4812Z" fill="#2D3043"/>
<path d="M40.8813 87.1363C42.4979 87.723 44.3101 87.28 45.8947 86.6014C47.4674 85.9269 48.8804 84.8891 50.3732 84.0349C50.5808 83.9151 50.8522 83.7994 51.0438 83.947C51.1196 84.0069 51.1675 84.1027 51.1955 84.1945C51.443 84.917 51.0957 85.7073 50.6646 86.338C49.9621 87.3638 48.9722 88.0025 48.0062 88.7688C48.2018 88.6132 49.4592 88.9086 49.7426 88.9245C50.3533 88.9604 50.964 88.9764 51.5747 88.9325C52.7123 88.8527 53.8778 88.6331 54.9196 88.1781C55.5662 87.8947 56.8994 87.2002 57.6179 87.3479C58.1767 87.4636 58.1967 88.1621 57.9572 88.5773C57.4542 89.4594 56.149 89.9423 55.2429 90.2537C53.1873 90.9642 51.2633 91.8463 49.1119 92.2974C50.952 92.3373 52.7801 92.0299 54.5684 91.6228C55.9055 91.3194 57.2267 90.9323 58.5918 90.7566C58.8473 90.7247 59.1307 90.7047 59.3303 90.8644C59.5139 91.0121 59.5697 91.2715 59.5378 91.507C59.3662 92.7604 58.029 92.8961 57.0391 93.2434C55.7339 93.7024 54.3967 94.0616 53.0396 94.3251C51.7663 94.5726 50.5129 94.9398 49.2077 94.9917C51.0478 95.1234 52.8999 95.0396 54.72 94.7442C55.7339 94.5805 56.7398 94.349 57.7656 94.3011C58.1408 94.2852 58.6238 94.381 58.6836 94.7482C58.7275 95.0156 58.5 95.2471 58.2845 95.4108C56.8994 96.4606 55.1272 96.8318 53.4188 97.1671C52.1814 97.4105 50.94 97.65 49.7027 97.8776C51.8421 98.2887 54.0455 97.8576 56.2288 97.8656C56.5482 97.8656 56.9114 97.9015 57.099 98.157C57.2666 98.3885 57.2187 98.7238 57.0551 98.9593C56.8914 99.1948 56.636 99.3465 56.3845 99.4782C55.6341 99.8773 54.8477 100.137 54.0295 100.36C53.2631 100.568 52.6644 100.612 51.8581 100.66C50.5009 100.739 49.1199 100.795 47.7667 100.955C44.6613 101.326 41.5 102.137 38.3746 101.49L40.8853 87.1283L40.8813 87.1363Z" fill="#F29B75"/>
<path d="M43.5877 86.1344C34.7703 85.372 25.8892 84.6695 17.0439 85.4359C14.7008 85.6395 12.3019 85.9388 10.9129 87.9626C9.14459 90.5411 8.59776 95.1713 9.45993 98.0772C10.0267 99.9931 11.4557 101.618 13.2 102.707C17.7823 105.573 23.7696 104.559 28.9028 103.933C34.1197 103.294 39.3806 102.552 44.2742 100.74C43.883 95.8818 43.7154 91.0081 43.5877 86.1384V86.1344Z" fill="#2D3043"/>
<path d="M45.3389 101.158L44.2657 85.7722C44.218 85.0883 43.6249 84.5725 42.941 84.6202L39.5882 84.854C38.9043 84.9018 38.3885 85.4949 38.4362 86.1788L39.5094 101.565C39.5571 102.249 40.1503 102.764 40.8342 102.717L44.1869 102.483C44.8708 102.435 45.3866 101.842 45.3389 101.158Z" fill="#E71D35"/>
<path d="M36.5745 85.4559C36.5745 85.4199 36.2193 85.3601 35.5726 85.2762C34.922 85.1924 33.984 85.0966 32.8185 85.0048C30.4874 84.8172 27.2542 84.6376 23.6778 84.7454C21.8896 84.8052 20.1892 84.9409 18.6485 85.1206C17.8781 85.2243 17.1476 85.3161 16.4691 85.4399C16.1298 85.4998 15.7985 85.5516 15.4871 85.6115C15.1798 85.6754 14.8804 85.7393 14.5851 85.7991C14.0103 85.9109 13.4994 86.0546 13.0483 86.1663C12.5973 86.2781 12.2141 86.3939 11.8987 86.4937C11.2721 86.6932 10.9328 86.817 10.9448 86.8529C10.9687 86.9367 12.3658 86.5615 14.6569 86.1544C14.9523 86.1025 15.2516 86.0506 15.555 85.9987C15.8663 85.9468 16.1976 85.9069 16.5329 85.855C17.2075 85.7472 17.934 85.6754 18.7003 85.5836C20.2291 85.4319 21.9175 85.3082 23.6898 85.2483C27.2423 85.1405 30.4594 85.2603 32.7905 85.3561C33.8004 85.396 34.7144 85.4319 35.5527 85.4678C36.2073 85.4878 36.5705 85.4838 36.5705 85.4479L36.5745 85.4559Z" fill="#32476B"/>
<path d="M41.9312 46.8376L41.1408 50.9808C41.073 51.344 40.7736 51.6075 40.4224 51.6474C41.6677 52.7171 43.1685 53.4875 44.7692 53.8547C47.22 54.4136 49.8704 54.0144 52.0498 52.761C52.413 52.5535 52.7603 52.31 53.0916 52.0466C52.6804 52.0066 52.3371 51.6714 52.3371 51.2283V46.0752L41.9312 46.8416V46.8376Z" fill="#F29B75"/>
<path d="M16.509 22.4652C14.9084 20.649 13.3078 17.827 16.7485 16.1146C16.7485 16.1146 14.8445 9.70417 20.3449 10.8577C20.3449 10.8577 17.8062 2.47148 24.6318 5.24162C24.6318 5.24162 29.2141 0.080544 31.0023 6.98592L23.0312 27.3628L19.1394 24.7443C18.1735 24.0937 17.2794 23.3353 16.509 22.4612V22.4652Z" fill="#DBDBDB"/>
<path d="M75.3843 22.4652C76.9849 20.649 78.5855 17.827 75.1448 16.1146C75.1448 16.1146 77.0488 9.70417 71.5484 10.8577C71.5484 10.8577 74.0871 2.47148 67.2615 5.24162C67.2615 5.24162 62.6792 0.080544 60.891 6.98592L68.8621 27.3628L72.7539 24.7443C73.7198 24.0937 74.6139 23.3353 75.3843 22.4612V22.4652Z" fill="#DBDBDB"/>
<path d="M74.4943 28.2528C72.6502 27.3427 70.4628 27.674 68.6227 28.9234L68.7425 27.2589C70.2034 13.5879 61.3581 1.4336 48.9883 0.116386C36.6185 -1.20083 25.4062 8.81398 23.9493 22.485C23.8854 23.0838 23.8735 24.1735 23.8894 25.3869C22.3367 23.6346 20.1733 22.7525 18.0897 23.2794C14.8446 24.0936 13.0324 28.0014 14.0423 32.0089C14.7727 34.9107 16.7805 37.0622 19.0676 37.7248C18.892 38.076 18.7723 38.4632 18.7284 38.8743C18.5288 40.7424 19.8819 42.4148 21.7499 42.6144C23.143 42.7621 24.4283 42.0476 25.0749 40.902C26.8033 48.1746 30.7748 49.2603 37.313 49.9589C39.0533 50.1425 40.7577 50.0148 42.3823 49.6236C42.7655 51.304 45.0606 52.9885 47.0723 52.9565C49.4992 52.9206 51.1437 51.4836 51.8263 49.8351C57.1989 50.4059 61.865 49.2604 64.8427 45.4484C65.3696 45.9554 66.0562 46.2986 66.8385 46.3784C68.7065 46.578 70.383 45.2249 70.5826 43.3608C70.6265 42.9457 70.5905 42.5426 70.4947 42.1634C72.8657 41.9997 75.2846 40.3153 76.6138 37.637C78.4459 33.9328 77.4999 29.7337 74.5023 28.2528H74.4943Z" fill="#FBAB80"/>
<path opacity="0.38" d="M23.4064 24.8921C21.9056 23.4751 19.9657 22.8045 18.0897 23.2755C14.8446 24.0898 13.0324 27.9975 14.0423 32.005C14.7727 34.9069 16.7805 37.0583 19.0676 37.7209C18.892 38.0722 18.7723 38.4594 18.7284 38.8705C18.5288 40.7386 19.8819 42.411 21.7499 42.6106C23.0751 42.7503 24.3006 42.1116 24.9751 41.0619C24.6119 35.6573 23.9732 30.2767 23.4064 24.8881V24.8921Z" fill="#FF8B5A"/>
<path d="M18.4409 34.9508C18.4409 34.9508 12.1582 28.253 18.0737 24.924C20.5325 23.5389 22.1929 26.345 23.1549 28.6521C23.6898 29.9334 24.0131 31.2905 24.1648 32.6676L25.0788 40.9022" stroke="#E87348" stroke-width="0.379197" stroke-miterlimit="10"/>
<path d="M24.3844 34.0926L19.3191 31.5939" stroke="#E87348" stroke-width="0.379197" stroke-miterlimit="10"/>
<path opacity="0.38" d="M74.4943 28.2529C72.8458 27.4387 70.9219 27.6223 69.2175 28.5603C69.952 28.8038 65.3258 45.6082 64.759 45.5483C64.715 45.5443 64.8148 45.4805 64.8388 45.4485C65.3657 45.9555 66.0522 46.2987 66.8346 46.3786C68.7026 46.5781 70.3791 45.225 70.5786 43.361C70.6225 42.9458 70.5866 42.5427 70.4908 42.1635C72.8618 41.9998 75.2807 40.3154 76.6099 37.6371C78.442 33.9329 77.496 29.7338 74.4983 28.2529H74.4943Z" fill="#FF8B5A"/>
<path d="M64.8387 45.4485L67.8763 35.765C67.8763 35.765 70.0836 27.9496 74.1071 30.2128C78.1306 32.476 75.0372 37.5413 75.0372 37.5413" stroke="#E87348" stroke-width="0.379197" stroke-miterlimit="10"/>
<path d="M67.2137 38.136L73.5084 36.5873" stroke="#E87348" stroke-width="0.379197" stroke-miterlimit="10"/>
<path opacity="0.26" d="M40.5142 39.9154C40.6139 36.0589 37.563 32.8516 33.6998 32.7518C29.8367 32.652 26.6242 35.6974 26.5245 39.554C26.4249 43.4105 29.4758 46.6178 33.339 46.7176C37.2021 46.8174 40.4146 43.772 40.5142 39.9154Z" fill="#EB8651" stroke="#EB8651" stroke-width="0.379197" stroke-miterlimit="10"/>
<path opacity="0.26" d="M65.7038 39.5512C65.7981 35.6945 62.7427 32.4915 58.8794 32.3971C55.0161 32.3027 51.8079 35.3526 51.7136 39.2093C51.6194 43.0659 54.6748 46.2689 58.5381 46.3633C62.4014 46.4578 65.6096 43.4078 65.7038 39.5512Z" fill="#EB8651" stroke="#EB8651" stroke-width="0.379197" stroke-miterlimit="10"/>
<path d="M39.0133 18.7412C37.5125 17.1485 35.5287 16.2345 33.3972 16.3462C32.2516 16.4061 31.1779 16.7613 30.2239 17.3481C30.196 17.4319 30.1641 17.5078 30.1401 17.5916C29.6811 19.0206 29.3218 20.5134 29.0384 22.0382C28.8908 22.8205 28.759 23.6069 28.6513 24.4012C28.5994 24.7644 28.5515 25.1316 28.5036 25.4949C28.4916 25.5867 28.4796 25.6825 28.4676 25.7743C28.3719 26.5207 28.288 27.2671 28.2122 28.0095C28.2042 28.0934 28.1962 28.1812 28.1882 28.265C28.1523 28.6362 28.1204 29.0074 28.0924 29.3786C28.0924 29.3786 28.0924 29.3826 28.0924 29.3866C28.0765 29.6261 28.0605 29.8696 28.0445 30.1091C28.0326 30.3087 28.0286 30.5082 28.0166 30.7078C28.9426 31.4782 29.6292 32.5439 30.196 33.6097C31.4374 34.4359 32.8703 34.871 34.3791 34.7912C36.5026 34.6794 38.3747 33.5658 39.6959 31.8334C39.7198 31.7616 39.7398 31.6897 39.7717 31.6179C39.9553 31.1708 40.2268 30.7637 40.57 30.4364C41.3444 28.9116 41.7515 27.0915 41.6517 25.1556C41.516 22.597 40.5141 20.3338 39.0173 18.7412H39.0133Z" fill="#FBAB80"/>
<path d="M27.9926 31.2148C27.9965 31.0431 28.0085 30.8755 28.0165 30.7039C28.0085 30.8755 28.0045 31.0471 27.9965 31.2188L27.9926 31.2148Z" fill="#FBAB80"/>
<path d="M27.9847 31.4462C27.9847 31.3704 27.9887 31.2906 27.9927 31.2147C27.9927 31.2906 27.9847 31.3664 27.9807 31.4462H27.9847Z" fill="#FBAB80"/>
<path d="M45.6554 29.5462C44.9928 28.3208 44.5776 26.9317 44.4818 25.4429C44.0507 25.0517 43.6716 24.9519 43.3403 24.9679C43.001 24.9839 42.6936 25.1395 42.4701 25.2992C42.3184 25.407 42.2066 25.5147 42.1468 25.5786C42.1707 27.1273 41.8794 28.5962 41.3445 29.9055C42.0151 29.5622 42.8214 29.3706 43.6396 29.3227C44.3302 29.2868 45.0287 29.3586 45.6593 29.5502L45.6554 29.5462Z" fill="#F8BC97"/>
<path d="M62.847 24.3652C62.7113 21.8146 61.5856 19.5634 59.8773 17.9827C58.1689 16.4021 55.8817 15.488 53.4109 15.6197C50.9402 15.7514 48.7648 16.901 47.232 18.6533C45.6993 20.4096 44.8211 22.7686 44.9568 25.3152C45.0447 26.9916 45.5636 28.5364 46.3938 29.8496C46.5215 29.9174 46.6413 29.9893 46.757 30.0691C47.3717 30.5042 47.7749 31.099 47.9825 31.7496C49.6868 33.2983 51.9501 34.1924 54.3929 34.0607C56.8597 33.929 59.039 32.7794 60.5718 31.0271C62.1045 29.2708 62.9827 26.9118 62.847 24.3652ZM52.2215 27.0595C51.8064 27.0595 51.8064 26.4129 52.2215 26.4129C52.6366 26.4129 52.6366 27.0595 52.2215 27.0595ZM56.4086 28.4845C56.3128 28.6481 56.1252 28.6721 55.9656 28.6002C55.754 28.5044 55.5065 28.4805 55.279 28.4446C55.0395 28.4086 54.808 28.3528 54.5685 28.3168C54.0616 28.245 53.5427 28.249 53.0278 28.241C52.6126 28.237 52.6126 27.5904 53.0278 27.5944C53.5985 27.6024 54.1693 27.6103 54.7401 27.6942C54.9956 27.7301 55.2471 27.79 55.5025 27.8299C55.7779 27.8738 56.0374 27.9297 56.2929 28.0454C56.4525 28.1173 56.4884 28.3488 56.4086 28.4885V28.4845Z" fill="#FBAB80"/>
<path d="M27.9847 31.4461C28.2242 31.7814 28.4836 32.1007 28.7591 32.3921C29.1981 32.8591 29.6811 33.2623 30.192 33.6056C29.6252 32.5358 28.9387 31.4661 28.0087 30.6997C27.9967 30.9472 27.9887 31.1986 27.9807 31.4461H27.9847Z" fill="#E89E83"/>
<path d="M31.4094 22.1778C33.2096 22.1659 35.0138 21.7148 36.6743 20.8646C37.1653 20.6132 37.7321 20.1422 37.6402 19.5035C37.3888 17.7273 34.0479 18.338 33.1458 18.6174C32.4353 18.8329 31.7368 19.1123 31.0981 19.5554C30.2399 20.1501 29.6292 20.9604 29.741 21.5751C30.1441 22.106 30.8107 22.1858 31.4094 22.1818V22.1778Z" fill="#E6E6E6"/>
<path d="M51.8063 20.3896C53.4628 21.2518 55.263 21.7108 57.0632 21.7348C57.6619 21.7427 58.3245 21.6669 58.7316 21.136C58.54 20.2818 58.2407 19.711 57.3865 19.1123C56.7518 18.6653 56.0533 18.3859 55.3468 18.1623C54.4447 17.8789 51.1078 17.2523 50.8443 19.0245C50.7525 19.6631 51.3114 20.1342 51.8023 20.3896H51.8063Z" fill="#E6E6E6"/>
<path d="M63.3259 24.2135C63.3419 24.4609 63.3458 24.7044 63.3419 24.9479C63.266 26.1933 62.9467 27.8697 62.4517 28.9514C62.0686 29.7857 61.5776 30.552 60.9868 31.2386C59.3902 33.0947 57.0951 34.332 54.4926 34.4877C52.1416 34.6274 49.9382 33.873 48.2019 32.5079C48.174 32.2484 48.1221 31.993 48.0382 31.7455C49.7506 33.2823 52.0258 34.1564 54.4647 34.0047C56.9314 33.8531 59.1028 32.6875 60.6196 30.9233C62.1364 29.155 62.9986 26.792 62.8429 24.2414C62.6872 21.6908 61.5457 19.4475 59.8253 17.8789C58.1049 16.3102 55.8058 15.4161 53.343 15.5678C50.8762 15.7194 48.7048 16.885 47.1841 18.6532C45.6673 20.4175 44.8051 22.7845 44.9608 25.3351C45.0646 27.0115 45.5954 28.5523 46.4337 29.8575C46.2021 29.7338 45.9507 29.638 45.6912 29.5621C45.0167 28.3407 44.5935 26.9517 44.4858 25.4668C44.0507 25.0796 43.6715 24.9798 43.3402 24.9998C43.0009 25.0198 42.6936 25.1754 42.47 25.3391C42.3184 25.4508 42.2106 25.5586 42.1507 25.6185C42.1826 27.1672 41.9072 28.6361 41.3804 29.9533C41.2247 30.0331 41.073 30.121 40.9333 30.2168C40.8175 30.3006 40.7098 30.3924 40.61 30.4922C41.3724 28.9594 41.7675 27.1353 41.6478 25.1994C41.4921 22.6448 40.4743 20.3856 38.9655 18.8049C37.4527 17.2243 35.4569 16.3222 33.3294 16.4539C32.1838 16.5257 31.1141 16.889 30.1641 17.4797C29.3498 17.9866 28.6234 18.6652 28.0206 19.4715C27.2942 20.4454 26.7433 21.607 26.428 22.8883C26.1725 23.9101 26.0648 25.0078 26.1326 26.1454C26.2244 27.6103 26.5956 28.9794 27.1824 30.1728C27.4299 30.6798 27.7133 31.1548 28.0326 31.5938C28.2761 31.9291 28.5395 32.2445 28.8149 32.5358C29.258 32.9989 29.741 33.402 30.2559 33.7373C31.5013 34.5516 32.9382 34.9787 34.447 34.8869C36.5665 34.7591 38.4306 33.6295 39.7358 31.8892C39.6241 32.2125 39.5522 32.5518 39.5243 32.8991C38.1951 34.332 36.4428 35.2541 34.475 35.3738C33.1258 35.4537 31.8286 35.1503 30.663 34.5396C29.8528 34.1205 29.1103 33.5577 28.4597 32.8711C28.308 32.7115 28.1603 32.5438 28.0206 32.3762C27.4618 31.6976 26.9788 30.9233 26.5996 30.081C26.0688 28.9035 25.7335 27.5863 25.6497 26.1773C25.5778 25.0397 25.6776 23.938 25.9211 22.9082C26.2484 21.5152 26.8391 20.2459 27.6295 19.1881C28.0366 18.6452 28.4956 18.1583 28.9946 17.7352C29.0385 17.6992 29.0784 17.6633 29.1223 17.6314C29.5214 17.3121 29.9446 17.0287 30.3916 16.7932C31.2817 16.3262 32.2557 16.0388 33.2935 15.9789C35.5806 15.8392 37.7201 16.8091 39.3087 18.4776C40.8654 20.1101 41.9152 22.4093 42.1108 25.0038C42.1268 24.9918 42.1387 24.9838 42.1547 24.9679C42.4301 24.7683 42.8213 24.5487 43.3043 24.5208C43.6595 24.4969 44.0547 24.5847 44.4538 24.8401C44.4299 22.3654 45.32 20.0782 46.8129 18.3419C48.4095 16.4818 50.7006 15.2524 53.3071 15.0928C55.9096 14.9331 58.3364 15.8791 60.1446 17.5276C61.5257 18.785 62.5475 20.4534 63.0305 22.3654C63.1822 22.9641 63.282 23.5828 63.3179 24.2175L63.3259 24.2135Z" fill="#422918"/>
<path d="M56.1571 41.0859C56.0015 40.7665 55.8218 40.4632 55.6342 40.1678C53.878 37.4536 50.6767 35.8609 47.22 35.3939C47.0724 35.5656 46.9167 35.7292 46.7371 35.8729C45.9827 36.4836 44.9608 36.8149 43.9151 36.8708C43.8312 36.8748 43.7514 36.8708 43.6676 36.8708C43.6836 36.9227 43.6915 36.9786 43.6795 37.0384C43.3961 38.2239 43.1726 40.555 43.2285 41.7724C43.2365 41.952 43.0968 42.0997 42.9212 42.1077C42.7415 42.1157 42.5938 41.976 42.5859 41.8004C42.534 40.4871 42.7535 38.172 43.0569 36.8908C43.0569 36.8908 43.0728 36.8628 43.0768 36.8468C42.6617 36.8069 42.2546 36.7271 41.8714 36.5914C41.4004 36.4277 40.9613 36.1842 40.5861 35.8609C37.9237 36.6433 35.6086 38.1641 34.2874 40.4193C34.1437 40.6628 34.008 40.9182 33.8883 41.1817C33.7885 42.0678 34.7305 42.8382 35.6246 42.8821C36.4229 42.918 37.1733 42.4869 37.7281 41.9001C37.816 41.9121 37.8998 41.9281 37.9876 41.9361C38.283 42.918 38.9815 43.6125 40.0233 43.7442C41.1529 43.8839 42.8254 43.5965 43.1167 42.3472C43.1167 42.3472 43.1168 42.3472 43.1207 42.3472C43.3483 43.2852 43.959 43.8281 45.6314 43.7363C46.5814 43.6844 47.6112 43.1734 47.7869 42.2993C47.8427 42.2993 47.8946 42.2953 47.9465 42.2913C48.2738 42.8901 48.8486 43.1615 49.7866 43.1615C50.9721 43.1615 51.6267 42.7104 51.7624 42.1117C51.7385 42.1237 51.7185 42.1356 51.6906 42.1396C51.515 42.1716 51.3473 42.0518 51.3154 41.8762V41.8363H51.3114C51.2675 40.9661 50.9721 39.9243 50.553 39.0063C50.1379 38.0882 49.591 37.2939 49.1041 36.9067C48.9644 36.7949 48.9444 36.5914 49.0562 36.4517C49.1679 36.312 49.3715 36.292 49.5112 36.4038C50.1299 36.9027 50.6967 37.7609 51.1437 38.7428C51.5908 39.7208 51.9061 40.8224 51.962 41.8043V41.8083H51.958C51.962 41.9201 51.9141 42.0239 51.8263 42.0838C52.0219 42.2674 52.9839 43.0377 55.0196 42.7623C55.0196 42.7623 56.3527 42.5069 56.2649 41.2894L56.1651 41.0859H56.1571Z" fill="#F5F5F5"/>
<path d="M37.7402 41.3054C37.7082 41.481 37.824 41.6486 37.9996 41.6806C38.1752 41.7125 38.3429 41.5967 38.3748 41.4211C38.6463 39.8884 39.6282 38.2199 40.8376 37.238C40.9773 37.1262 40.9973 36.9226 40.8855 36.7829C40.7737 36.6432 40.5702 36.6233 40.4305 36.735C39.0893 37.8327 38.0515 39.597 37.7402 41.3054Z" fill="#D9CECE"/>
<path d="M43.0488 36.8947C42.7454 38.176 42.5259 40.4911 42.5778 41.8043C42.5858 41.984 42.7375 42.1197 42.9131 42.1117C43.0927 42.1037 43.2284 41.952 43.2204 41.7764C43.1646 40.559 43.3881 38.2279 43.6715 37.0424C43.6834 36.9826 43.6755 36.9267 43.6595 36.8748C43.4599 36.8748 43.2604 36.8668 43.0608 36.8508C43.0528 36.8668 43.0448 36.8788 43.0408 36.8947H43.0488Z" fill="#D9CECE"/>
<path d="M46.4975 36.4677C46.3379 36.5476 46.27 36.7392 46.3498 36.8988C46.8568 37.9246 47.2759 39.2578 47.3437 40.5551C47.3677 40.9862 47.3517 41.4133 47.2879 41.8244C47.2599 42 47.3837 42.1637 47.5593 42.1916C47.7349 42.2196 47.8986 42.0958 47.9265 41.9202C47.9944 41.4612 48.0103 40.9902 47.9864 40.5192C47.9106 39.1101 47.4675 37.7091 46.9286 36.6114C46.8488 36.4518 46.6572 36.3839 46.4975 36.4637V36.4677Z" fill="#D9CECE"/>
<path d="M51.95 41.8083H51.9539V41.8043C51.902 40.8184 51.5827 39.7208 51.1357 38.7388C50.6886 37.7609 50.1178 36.9027 49.5031 36.3998C49.3634 36.288 49.1599 36.312 49.0481 36.4477C48.9363 36.5874 48.9603 36.791 49.096 36.9027C49.583 37.2899 50.1298 38.0882 50.5449 39.0023C50.964 39.9203 51.2594 40.9581 51.3033 41.8323L51.3073 41.8722C51.3392 42.0478 51.5029 42.1676 51.6825 42.1356C51.7105 42.1316 51.7304 42.1197 51.7544 42.1077C51.7743 42.0997 51.7943 42.0917 51.8142 42.0798C51.9021 42.0159 51.95 41.9161 51.946 41.8043L51.95 41.8083Z" fill="#D9CECE"/>
<path d="M40.3625 31.8653C40.159 32.3523 40.0672 32.9071 40.0951 33.438C40.127 34.0567 40.3226 34.6394 40.6779 35.0625C41.0291 35.4856 41.5161 35.797 42.0749 35.9926C42.6337 36.1882 43.2604 36.268 43.8791 36.2361C44.8091 36.1882 45.7112 35.8808 46.3299 35.3819C47.1362 34.7273 47.5633 33.6855 47.5074 32.6995C47.4635 31.8853 47.1043 31.1189 46.3818 30.608C45.7232 30.137 44.6894 29.9174 43.6636 29.9773C42.7535 30.0252 41.8594 30.2847 41.2567 30.7078C40.8655 30.9752 40.5581 31.3903 40.3586 31.8773L40.3625 31.8653Z" fill="#F8BC97"/>
<path d="M39.4525 33.47C39.4884 34.1645 39.7 34.8431 40.1191 35.3859C40.143 35.4139 40.163 35.4458 40.1829 35.4737C40.3027 35.6174 40.4384 35.7492 40.5781 35.8689C40.9533 36.1922 41.3924 36.4317 41.8634 36.5994C42.2506 36.7351 42.6577 36.8149 43.0688 36.8548C43.2684 36.8748 43.468 36.8828 43.6676 36.8788C43.7514 36.8788 43.8312 36.8788 43.915 36.8788C44.9608 36.8229 45.9827 36.4876 46.7371 35.8809C46.9167 35.7372 47.0724 35.5695 47.22 35.4019C47.3278 35.2742 47.4316 35.1385 47.5194 34.9988C47.9744 34.3002 48.198 33.474 48.1541 32.6637C48.1541 32.6158 48.1421 32.5719 48.1381 32.524C48.1141 32.2645 48.0623 32.0051 47.9824 31.7536C47.7749 31.107 47.3717 30.5083 46.757 30.0732C46.6413 29.9934 46.5215 29.9215 46.3938 29.8537C46.1623 29.7299 45.9148 29.6301 45.6514 29.5503C45.0207 29.3587 44.3222 29.2868 43.6316 29.3228C42.8134 29.3667 42.0111 29.5623 41.3365 29.9055C41.1808 29.9854 41.0292 30.0692 40.8894 30.165C40.7737 30.2448 40.6659 30.3366 40.5621 30.4364C40.2149 30.7637 39.9474 31.1709 39.7638 31.6179C39.7359 31.6898 39.7159 31.7616 39.688 31.8335C39.5762 32.1568 39.5004 32.4961 39.4685 32.8393C39.4485 33.0509 39.4365 33.2624 39.4485 33.474L39.4525 33.47ZM43.6676 29.9654C44.6894 29.9095 45.7272 30.1291 46.3858 30.5961C47.1083 31.107 47.4635 31.8734 47.5114 32.6877C47.5633 33.6736 47.1402 34.7194 46.3339 35.37C45.7192 35.8729 44.8131 36.1763 43.8831 36.2242C43.2644 36.2561 42.6338 36.1763 42.0789 35.9807C41.5201 35.7851 41.0331 35.4738 40.6819 35.0506C40.3306 34.6275 40.131 34.0488 40.0991 33.4261C40.0712 32.8952 40.163 32.3404 40.3666 31.8534C40.5661 31.3665 40.8775 30.9553 41.2647 30.6839C41.8674 30.2648 42.7615 30.0013 43.6715 29.9534L43.6676 29.9654Z" fill="#F29485"/>
<path d="M38.1872 26.3651C38.1553 26.8481 37.9437 27.2871 37.6045 27.6464C36.3671 27.335 34.8104 27.0716 33.118 27.2712C32.8745 27.3031 32.631 27.347 32.3915 27.4109C32.0522 26.9957 31.8686 26.4968 31.9005 25.9739C31.9844 24.6367 33.4573 23.6388 35.1936 23.7466C36.9299 23.8544 38.2671 25.0319 38.1832 26.3691L38.1872 26.3651Z" fill="white" stroke="white" stroke-width="0.419113" stroke-miterlimit="10"/>
<path d="M37.752 25.8661C37.7121 26.4887 37.3768 27.0236 36.8818 27.3509C36.6543 27.3349 35.9358 27.299 36.1793 27.3309C36.6264 27.3868 34.93 27.2192 34.4989 27.1952C33.8482 26.832 33.6287 26.377 33.6766 25.6106C33.7445 24.5289 34.7104 23.7106 35.836 23.7785C36.9617 23.8503 37.8159 24.7804 37.748 25.8661H37.752Z" fill="black" stroke="black" stroke-width="0.886124" stroke-miterlimit="10"/>
<path d="M31.4055 27.267C30.687 27.5584 30.2359 27.8139 29.5973 28.2569C29.725 27.4826 30.683 26.9517 31.4055 27.267Z" fill="#E89E83"/>
<path d="M31.4175 27.1034C30.6591 27.267 30.1721 27.4466 29.4696 27.7739C29.7291 27.0315 30.7589 26.6723 31.4175 27.1034Z" fill="#E89E83"/>
<path d="M38.5862 28.205C38.8177 28.9075 38.1152 29.7337 37.3848 29.614C37.9236 29.139 38.203 28.8117 38.5862 28.205Z" fill="#E89E83"/>
<path d="M31.0862 26.5086C30.699 25.1435 31.6689 23.6507 33.0181 23.3154C33.2057 23.2675 33.3973 23.2396 33.5849 23.2196C33.4212 23.3234 33.2496 23.4032 33.0939 23.495C31.9523 24.1177 31.2578 25.1874 31.0862 26.5086Z" fill="#E89E83"/>
<path d="M36.822 29.5861C37.3648 29.1431 38.0394 28.5962 38.0035 27.8338L38.227 28.1532C36.0237 27.766 32.4393 26.8958 30.5912 28.4605L30.5513 28.4326C31.4015 27.303 32.9901 27.1672 34.2993 27.1513C35.6764 27.1433 37.0375 27.4387 38.3468 27.8298C38.3228 28.704 37.5485 29.2668 36.838 29.634L36.822 29.5901V29.5861Z" fill="black"/>
<path d="M31.5213 26.9956C30.9425 25.1076 32.6509 23.032 34.5948 22.9082C36.5147 22.6887 38.5823 24.3492 38.4306 26.305L38.3428 26.333C37.5844 23.9181 34.3792 22.9122 32.599 24.8681C32.0561 25.4469 31.7049 26.2092 31.6171 27.0075L31.5253 26.9996L31.5213 26.9956Z" fill="black"/>
<path d="M32.7147 25.2953L35.405 25.7384L32.7866 26.4888L32.7147 25.2953Z" fill="white"/>
<path d="M57.0792 26.8001C57.0193 27.2831 56.7798 27.7062 56.4126 28.0415C55.1952 27.6503 53.6624 27.2911 51.962 27.3749C51.7185 27.3909 51.471 27.4188 51.2316 27.4667C50.9202 27.0276 50.7685 26.5207 50.8364 26.0018C51.008 24.6726 52.5408 23.7705 54.2651 23.9901C55.9935 24.2096 57.2508 25.4709 57.0832 26.8001H57.0792Z" fill="white" stroke="white" stroke-width="0.419113" stroke-miterlimit="10"/>
<path d="M56.68 26.2692C56.6002 26.8879 56.233 27.3988 55.718 27.6942C55.4945 27.6663 54.776 27.5824 55.0155 27.6303C55.4586 27.7142 53.7781 27.4388 53.3471 27.3869C52.7204 26.9837 52.5328 26.5167 52.6286 25.7543C52.7643 24.6766 53.7821 23.9222 54.9038 24.0659C56.0214 24.2096 56.8157 25.1955 56.68 26.2692Z" fill="black" stroke="black" stroke-width="0.886124" stroke-miterlimit="10"/>
<path d="M57.4065 28.3048C58.1689 28.1012 59.035 28.7638 59.051 29.5501C58.4842 29.0193 58.0771 28.6999 57.4065 28.3048Z" fill="#E89E83"/>
<path d="M57.4185 28.1412C58.1329 27.8099 59.1029 28.3208 59.2466 29.0911C58.6 28.664 58.1409 28.4166 57.4185 28.1412Z" fill="#E89E83"/>
<path d="M50.1657 28.1731C50.4531 28.8277 50.6846 29.1949 51.1476 29.7458C50.4052 29.7577 49.8344 28.8357 50.1657 28.1731Z" fill="#E89E83"/>
<path d="M57.8095 26.6803C57.6219 25.3631 56.9114 24.3013 55.7658 23.6906C55.6062 23.5988 55.4345 23.523 55.2709 23.4192C55.4585 23.4352 55.6501 23.4631 55.8417 23.507C57.1948 23.8263 58.1847 25.3072 57.8135 26.6763L57.8095 26.6803Z" fill="#E89E83"/>
<path d="M51.6866 29.8415C51.1158 29.5541 50.537 29.159 50.3015 28.5363C50.1897 28.2529 50.1738 27.9256 50.1857 27.6182L50.4492 27.5584C52.7244 27.0275 57.0392 27.0275 58.081 29.5821L58.0371 29.602C57.3626 28.3886 55.8258 28.0373 54.5485 27.8458C53.2033 27.6621 51.8382 27.718 50.4931 27.9016L50.521 27.8697C50.4851 28.2609 50.5969 28.668 50.8443 28.9754C51.0878 29.2827 51.3832 29.5781 51.7025 29.8016L51.6826 29.8415H51.6866Z" fill="black"/>
<path d="M50.3893 26.9956C49.9343 25.0757 51.7704 23.1118 53.7183 23.1118C55.6502 23.016 57.606 24.8043 57.3266 26.7481L57.2348 26.7721C56.6321 24.3133 53.4987 23.1039 51.5987 24.94C51.02 25.4828 50.6208 26.2213 50.4811 27.0116L50.3893 26.9956Z" fill="black"/>
<path d="M51.3992 25.5745L54.0895 26.0135L51.471 26.7679L51.3992 25.5745Z" fill="white"/>
<path d="M50.9839 45.5443C50.7085 47.4402 49.1239 48.6856 47.2997 49.0648C46.4336 49.2444 45.5594 49.2404 44.6973 49.1007C43.0008 48.8213 41.5519 47.8594 40.9412 46.155C40.8534 45.9075 40.7536 45.7119 40.562 45.5562C40.6458 45.4365 40.7736 45.4205 40.8933 45.4524C41.5399 45.6281 42.1986 45.7478 42.8532 45.8755C42.941 45.8915 43.0128 45.9514 43.0687 46.0193C43.0966 46.3426 43.3361 46.5022 43.5756 46.6539C44.809 47.4363 47.2239 47.3444 48.4254 46.4823C48.6409 46.3266 48.7726 46.135 48.8325 45.8875C49.527 45.6281 50.2136 45.3127 50.9839 45.5443Z" fill="#FBBEAA"/>
<path d="M50.984 45.5443C50.2695 45.7 49.559 45.8557 48.8445 46.0073C48.4893 46.4584 47.9464 46.4344 47.4754 46.4544C46.1821 46.5103 44.8849 46.6141 43.5916 46.4464C43.3641 46.4185 43.1166 46.4344 43.0288 46.1471C42.7255 45.9235 42.3542 46.0513 42.0229 45.9435C41.544 45.7878 41.049 45.68 40.5581 45.5523C40.2986 45.4605 39.8076 45.5643 39.8835 45.1532C39.9593 44.7261 40.3984 44.8937 40.6977 44.9775C44.1265 45.9594 47.5353 45.8277 50.9361 44.8338C51.1077 44.7819 51.2754 44.7101 51.451 44.6901C51.6705 44.6622 51.9659 44.5824 52.0377 44.8897C52.1016 45.1651 51.8182 45.213 51.6306 45.2929C51.419 45.3847 51.1995 45.4565 50.984 45.5363V45.5443Z" fill="#D67869"/>
<path d="M43.0288 46.151C44.7931 46.3785 46.5574 46.3945 48.3216 46.0951C48.4972 46.0672 48.6729 46.0353 48.8445 46.0073C49.2317 46.159 48.9323 46.3187 48.8246 46.4185C48.2099 46.9693 47.4634 47.2647 46.6571 47.3405C45.6672 47.4363 44.6733 47.4523 43.7353 46.9852C43.428 46.8296 43.1685 46.63 42.945 46.3785C42.8492 46.2708 42.8891 46.1869 43.0288 46.155V46.151Z" fill="#FBFAF8"/>
<path d="M68.6902 28.4858L63.257 25.7234C63.2236 25.7064 63.1828 25.7197 63.1658 25.7531L63.0808 25.9203C63.0638 25.9538 63.0771 25.9946 63.1105 26.0116L68.5437 28.774C68.5771 28.7909 68.6179 28.7776 68.6349 28.7442L68.7199 28.577C68.7369 28.5436 68.7236 28.5027 68.6902 28.4858Z" fill="#422918"/>
<path d="M23.9737 25.4537L25.9599 24.3771C25.9928 24.3592 26.0051 24.318 25.9872 24.2851L25.8978 24.1201C25.8799 24.0872 25.8387 24.075 25.8058 24.0928L23.8196 25.1694C23.7867 25.1873 23.7744 25.2285 23.7923 25.2614L23.8817 25.4264C23.8995 25.4593 23.9407 25.4715 23.9737 25.4537Z" fill="#422918"/>
</svg>
