<svg width="330" height="244" viewBox="0 0 330 244" fill="none" xmlns="http://www.w3.org/2000/svg">
<path d="M154.604 139.342C188.383 139.342 215.766 111.959 215.766 78.1804C215.766 44.4018 188.383 17.0189 154.604 17.0189C120.826 17.0189 93.4428 44.4018 93.4428 78.1804C93.4428 111.959 120.826 139.342 154.604 139.342Z" fill="white"/>
<path d="M210.96 74.9671C211.28 73.5698 211.895 72.2595 212.498 70.96C213.809 68.1599 215.538 65.3544 215.913 62.2389C216.119 60.5208 216.049 58.781 216.25 57.0629C216.31 56.5572 216.407 56.0407 216.712 55.6329C217.016 55.2306 217.587 54.9805 218.049 55.1925C218.533 55.4154 218.702 56.0081 218.8 56.53C219.11 58.1503 219.289 59.7977 219.333 61.4451C221.208 60.2 222.078 57.9165 222.736 55.7634C223.394 53.6049 224.025 51.3104 225.661 49.7554C225.922 49.5108 226.336 49.2879 226.602 49.5217C226.716 49.6195 226.76 49.7772 226.792 49.924C226.972 50.7885 226.83 51.6802 226.673 52.5501C226.123 55.5731 225.346 58.5581 224.351 61.4669C226.504 58.8408 228.315 55.9374 229.739 52.8546C230.283 51.6693 231.202 49.5923 232.643 49.277C232.898 49.2226 233.186 49.2552 233.393 49.4183C233.594 49.576 233.692 49.8261 233.757 50.0708C233.947 50.8102 233.86 51.5986 233.638 52.3272C233.181 53.8006 232.387 55.3067 231.735 56.7095C230.794 58.732 229.853 60.7492 228.918 62.7718C230.19 61.5756 231.175 60.1239 232.235 58.7484C233.224 57.4652 234.279 55.9918 235.53 54.9533C235.888 54.6597 236.28 54.3878 236.731 54.2736C236.873 54.241 237.019 54.2193 237.161 54.2628C237.563 54.3824 237.672 54.9043 237.65 55.323C237.59 56.5735 236.927 57.6664 236.329 58.7429C235.676 59.9336 234.85 61.0156 234.176 62.1846C233.409 63.5221 232.719 64.914 231.985 66.2732C232.909 64.9847 233.985 63.8102 235.187 62.7826C236.035 62.0595 237.047 61.369 238.156 61.4614C238.368 61.4778 238.591 61.5321 238.727 61.6898C238.803 61.7768 238.841 61.8855 238.873 61.9943C239.102 62.8914 238.455 63.4623 238.009 64.1582C237.449 65.0282 236.889 65.8981 236.329 66.7626C235.763 67.328 235.361 68.2632 234.926 68.9374C234.497 69.6062 233.996 70.2586 233.61 70.9382C231.68 74.3255 229.598 77.6258 227.254 80.7522L210.965 74.9671H210.96Z" fill="#F29B75"/>
<path d="M230.397 78.126L213.123 68.9319L199.243 89.794C199.243 89.794 187.287 65.3598 163.777 70.8784C163.652 70.9056 163.527 70.911 163.407 70.8947C162.956 71.2536 162.483 71.5852 161.988 71.868C159.025 73.5752 155.409 74.1189 152.071 73.3577C149.89 72.863 147.846 71.8082 146.15 70.351C146.063 70.3619 145.976 70.3673 145.883 70.351C141.892 69.878 127.533 68.6655 122.015 74.7224C115.577 81.7852 92.6272 114.897 99.7607 132.703C106.894 150.51 144.562 139.565 144.562 139.565L179.305 118.643C179.305 118.643 190.56 133.546 199.949 131.409C209.339 129.272 216.995 115.234 225.161 93.1758C233.322 71.1176 230.397 78.126 230.397 78.126Z" fill="#2D3043"/>
<path d="M148.314 80.8446C148.27 80.8989 148.248 80.937 148.259 80.9479C148.27 80.9588 148.314 80.9479 148.379 80.9044C148.439 80.9479 148.477 80.9751 148.482 80.9642C148.493 80.9533 148.482 80.9153 148.444 80.8609C148.683 80.7032 149.135 80.3607 149.733 79.8605C150.603 79.1373 151.772 78.0988 153.011 76.8973C154.099 75.8479 155.061 74.8529 155.79 74.0537C155.877 74.1624 155.974 74.2712 156.078 74.3962C156.806 75.2498 157.856 76.3862 159.074 77.5823C160.297 78.7785 161.455 79.8007 162.325 80.5075C162.825 80.9153 163.222 81.2197 163.478 81.3937C163.461 81.4263 163.45 81.4535 163.461 81.4644C163.461 81.4644 163.494 81.4535 163.527 81.4263C163.69 81.5351 163.788 81.584 163.804 81.5677C163.82 81.546 163.76 81.4698 163.635 81.3339C163.891 81.1001 164.402 80.551 165.005 79.6919C165.212 79.3929 165.435 79.0612 165.647 78.6861C165.875 78.3218 166.071 77.9086 166.289 77.479C166.696 76.6037 167.077 75.6087 167.365 74.5321C167.642 73.4502 167.795 72.3954 167.865 71.433C167.882 70.998 167.903 70.5903 167.893 70.1988C167.762 70.2097 167.632 70.226 167.501 70.2423C167.496 70.612 167.463 70.9981 167.436 71.4004C167.343 72.3356 167.18 73.3632 166.914 74.4125C166.637 75.4619 166.278 76.4351 165.897 77.2996C165.696 77.7237 165.511 78.1369 165.304 78.5012C165.114 78.8764 164.913 79.208 164.723 79.5125C164.184 80.377 163.744 80.9696 163.554 81.2578C162.95 80.6271 161.286 79.1047 159.394 77.2507C157.997 75.886 156.779 74.6409 155.98 73.8416C156.012 73.8036 156.051 73.7655 156.083 73.7275C156.105 73.7003 156.127 73.6785 156.148 73.6513C155.926 73.6676 155.703 73.6785 155.48 73.6894C155.507 73.722 155.529 73.7492 155.556 73.7818C154.778 74.5376 153.783 75.5108 152.685 76.571C150.619 78.5719 148.852 80.2193 148.373 80.7685C147.955 80.1323 146.269 78.0499 144.758 75.2498C143.611 73.162 142.86 71.2101 142.42 70.0629C142.333 70.0629 142.24 70.052 142.153 70.0466C142.224 70.3184 142.311 70.6283 142.425 70.9872C142.8 72.1779 143.437 73.7927 144.35 75.4727C145.263 77.1528 146.269 78.561 147.069 79.5234C147.629 80.203 148.069 80.6597 148.297 80.8609L148.314 80.8446Z" fill="#384D72"/>
<path d="M231.651 76.6458L213.294 67.0939C212.466 66.6628 211.445 66.9849 211.014 67.8134L208.901 71.8745C208.47 72.7029 208.792 73.7239 209.62 74.155L227.977 83.707C228.806 84.138 229.827 83.8159 230.258 82.9875L232.371 78.9264C232.802 78.0979 232.48 77.0769 231.651 76.6458Z" fill="#E71D35"/>
<path d="M177.668 71.0198C176.032 70.5685 174.297 70.2641 172.476 70.1336L173.384 86.7057L136.189 86.8308L136.591 69.9705C135.08 70.0303 133.514 70.1553 131.975 70.3891L125.75 100.092L183.823 101.636L177.663 71.0144L177.668 71.0198Z" fill="#E71D35"/>
<path d="M170.519 92.17H138.342V103.191H170.519V92.17Z" fill="#FFFBF5"/>
<path d="M203.783 82.9215C203.783 82.9215 203.538 83.1662 203.157 83.6555C202.777 84.1449 202.249 84.8735 201.619 85.7814C200.352 87.6029 198.683 90.1691 196.986 93.1052C195.295 96.0357 193.909 98.7706 192.968 100.777C192.501 101.783 192.131 102.598 191.897 103.175C191.658 103.745 191.544 104.072 191.571 104.083C191.598 104.093 191.772 103.8 192.06 103.251C192.452 102.484 192.854 101.717 193.262 100.924C194.273 98.9554 195.703 96.2587 197.389 93.339C199.074 90.4193 200.694 87.8312 201.89 85.9663C202.374 85.216 202.842 84.482 203.304 83.7589C203.636 83.2369 203.804 82.9379 203.783 82.9215Z" fill="#32476B"/>
<path d="M169.513 104.719H118.051L122.651 139.298C123.243 143.746 127.033 147.068 131.519 147.068H180.044C184.53 147.068 188.325 143.746 188.912 139.298L193.512 104.719H169.507H169.513Z" fill="white"/>
<path d="M187.548 142.99C186.797 142.99 186.047 143.001 185.286 143.007C184.617 143.007 183.932 143.007 183.247 143.007C183.388 140.794 183.53 138.461 183.665 136.036C184.204 136.036 184.753 136.036 185.286 136.036C186.667 136.02 188.021 136.009 189.353 135.993L189.434 135.367C188.069 135.378 186.688 135.384 185.28 135.395C184.758 135.395 184.225 135.395 183.698 135.395C183.823 133.144 183.943 130.811 184.057 128.419C184.465 128.419 184.878 128.419 185.28 128.419C187.009 128.403 188.706 128.386 190.364 128.365L190.445 127.745C188.76 127.756 187.036 127.766 185.275 127.777C184.883 127.777 184.481 127.777 184.084 127.777C184.198 125.39 184.296 123.058 184.389 120.802C184.682 120.802 184.987 120.802 185.275 120.802C187.357 120.78 189.391 120.758 191.375 120.736L191.457 120.122C189.445 120.138 187.384 120.149 185.275 120.16C184.992 120.16 184.699 120.16 184.416 120.16C184.508 117.735 184.59 115.397 184.66 113.184C184.867 113.184 185.074 113.184 185.28 113.184C187.721 113.157 190.092 113.135 192.392 113.103L192.474 112.494C190.146 112.515 187.743 112.526 185.275 112.543C185.079 112.543 184.878 112.543 184.682 112.543C184.769 109.715 184.834 107.095 184.883 104.735H184.351C184.264 107.095 184.16 109.715 184.051 112.543C181.213 112.543 178.288 112.532 175.292 112.515C175.347 109.688 175.39 107.078 175.423 104.735H174.89C174.814 107.073 174.738 109.683 174.656 112.51C171.753 112.488 168.773 112.461 165.745 112.428C165.761 109.677 165.772 107.095 165.772 104.735H165.212C165.174 107.116 165.136 109.688 165.092 112.418C162.336 112.385 159.536 112.347 156.698 112.309C156.698 109.563 156.698 107.024 156.687 104.735H156.17C156.138 107.019 156.11 109.558 156.078 112.303C155.991 112.303 155.904 112.303 155.817 112.303C152.919 112.26 150.059 112.216 147.243 112.184C147.199 109.541 147.161 107.051 147.128 104.746H146.568C146.568 107.029 146.579 109.525 146.596 112.178C143.562 112.14 140.588 112.102 137.673 112.075C137.597 109.422 137.527 106.964 137.45 104.746H136.918C136.95 106.959 136.988 109.416 137.037 112.064C134.036 112.037 131.111 112.015 128.262 112.004C128.158 109.389 128.066 106.953 127.984 104.746H127.452C127.495 106.953 127.56 109.389 127.637 112.004C127.207 112.004 126.772 112.004 126.342 112.004C123.814 112.004 121.362 112.004 118.986 112.021L119.068 112.63C121.417 112.63 123.847 112.641 126.342 112.646C126.777 112.646 127.218 112.651 127.658 112.657C127.729 114.87 127.805 117.202 127.898 119.633C127.381 119.633 126.854 119.633 126.342 119.627C124.173 119.627 122.058 119.627 119.997 119.638L120.079 120.252C122.112 120.252 124.2 120.263 126.337 120.269C126.859 120.269 127.392 120.28 127.919 120.28C128.006 122.531 128.104 124.863 128.218 127.255C127.593 127.255 126.957 127.25 126.342 127.25C124.527 127.25 122.749 127.25 121.009 127.255L121.09 127.875C122.803 127.875 124.554 127.886 126.337 127.891C126.968 127.891 127.609 127.902 128.245 127.908C128.245 127.94 128.245 127.968 128.245 128C128.36 130.354 128.474 132.654 128.599 134.878C127.843 134.878 127.082 134.873 126.337 134.867C124.874 134.867 123.434 134.867 122.02 134.867L122.102 135.492C123.488 135.492 124.902 135.503 126.332 135.503C127.087 135.503 127.865 135.514 128.637 135.52C128.773 137.945 128.909 140.277 129.05 142.49C128.137 142.49 127.229 142.479 126.337 142.479C125.435 142.479 124.543 142.479 123.657 142.479C123.776 142.697 123.901 142.909 124.037 143.11C124.798 143.11 125.56 143.11 126.332 143.115C127.24 143.121 128.164 143.132 129.088 143.137C129.17 144.409 129.251 145.638 129.333 146.823C129.534 146.872 129.73 146.921 129.936 146.954C129.866 145.73 129.795 144.458 129.724 143.142C132.34 143.164 135.025 143.197 137.766 143.229C137.804 144.578 137.842 145.872 137.885 147.095H138.435C138.418 145.872 138.396 144.589 138.369 143.24C141.235 143.278 144.16 143.316 147.139 143.36C147.177 144.648 147.215 145.894 147.253 147.101H147.852C147.83 145.894 147.803 144.654 147.775 143.371C150.407 143.409 153.077 143.447 155.779 143.49C155.811 143.49 155.839 143.49 155.871 143.49C155.871 144.73 155.871 145.932 155.871 147.101H156.486C156.496 145.937 156.507 144.735 156.518 143.501C159.215 143.539 161.879 143.572 164.505 143.605C164.484 144.806 164.456 145.97 164.435 147.106H165.033C165.071 145.981 165.109 144.817 165.141 143.615C168.121 143.648 171.051 143.67 173.911 143.686C173.89 144.877 173.873 146.019 173.857 147.111H174.406C174.439 146.024 174.477 144.882 174.509 143.692C177.25 143.702 179.925 143.708 182.535 143.702C182.475 144.763 182.42 145.796 182.361 146.796C182.567 146.742 182.768 146.671 182.97 146.6C183.035 145.66 183.1 144.692 183.16 143.702C183.856 143.702 184.557 143.702 185.242 143.697C185.846 143.692 186.449 143.686 187.047 143.681C187.21 143.474 187.363 143.262 187.504 143.045L187.548 142.99ZM128.316 112.624C131.16 112.646 134.079 112.679 137.075 112.711C137.119 114.913 137.162 117.235 137.217 119.66C134.27 119.633 131.404 119.611 128.61 119.6C128.506 117.17 128.409 114.837 128.322 112.63L128.316 112.624ZM128.631 120.247C131.421 120.269 134.286 120.301 137.228 120.334C137.271 122.335 137.314 124.395 137.363 126.505C137.369 126.766 137.374 127.022 137.38 127.283C134.498 127.255 131.682 127.234 128.941 127.217C128.827 124.83 128.724 122.498 128.626 120.247H128.631ZM128.979 127.924C128.979 127.924 128.979 127.886 128.979 127.87C131.714 127.891 134.525 127.924 137.401 127.957C137.456 130.344 137.516 132.671 137.575 134.905C134.759 134.878 132.008 134.856 129.322 134.84C129.208 132.6 129.094 130.289 128.979 127.924ZM129.73 142.463C129.61 140.25 129.485 137.917 129.36 135.492C132.035 135.514 134.786 135.547 137.597 135.579C137.662 138.015 137.728 140.348 137.788 142.528C135.042 142.501 132.35 142.479 129.73 142.463ZM137.711 112.722C140.615 112.76 143.589 112.798 146.617 112.842C146.634 115.049 146.655 117.371 146.683 119.774C143.698 119.736 140.762 119.698 137.896 119.671C137.836 117.251 137.771 114.924 137.711 112.728V112.722ZM138.065 126.489C138.016 124.39 137.967 122.335 137.918 120.345C140.783 120.377 143.714 120.421 146.699 120.464C146.726 122.71 146.764 125.026 146.802 127.397C143.839 127.359 140.93 127.321 138.087 127.293C138.081 127.027 138.076 126.761 138.07 126.494L138.065 126.489ZM138.097 127.968C140.941 128 143.85 128.044 146.813 128.087C146.857 130.458 146.905 132.774 146.96 135.019C144.002 134.981 141.099 134.943 138.25 134.916C138.206 132.682 138.152 130.36 138.097 127.973V127.968ZM138.396 142.533C138.358 140.353 138.315 138.026 138.266 135.59C141.11 135.623 144.018 135.666 146.976 135.71C147.036 138.119 147.096 140.435 147.161 142.642C144.182 142.604 141.262 142.566 138.402 142.539L138.396 142.533ZM155.915 142.762C155.887 142.762 155.86 142.762 155.833 142.762C153.12 142.724 150.445 142.68 147.803 142.648C147.759 140.435 147.71 138.119 147.661 135.721C150.342 135.759 153.06 135.802 155.822 135.84C155.86 135.84 155.898 135.84 155.931 135.84C155.92 138.233 155.915 140.549 155.909 142.762H155.915ZM155.964 129.659C155.953 131.523 155.947 133.35 155.936 135.139C155.904 135.139 155.866 135.139 155.833 135.139C153.066 135.096 150.342 135.058 147.65 135.019C147.607 132.774 147.558 130.458 147.509 128.093C150.238 128.131 153.011 128.174 155.822 128.218C155.871 128.218 155.92 128.218 155.969 128.218C155.969 128.696 155.969 129.175 155.964 129.659ZM155.975 127.522C155.926 127.522 155.882 127.522 155.833 127.522C153.017 127.478 150.233 127.44 147.498 127.402C147.46 125.032 147.427 122.721 147.389 120.475C150.162 120.513 152.973 120.557 155.822 120.6C155.887 120.6 155.953 120.6 156.023 120.6C156.007 122.835 155.991 125.151 155.975 127.522ZM156.029 119.904C155.964 119.904 155.898 119.904 155.833 119.904C152.973 119.861 150.157 119.823 147.378 119.785C147.34 117.387 147.308 115.071 147.27 112.858C150.081 112.896 152.93 112.94 155.822 112.983C155.909 112.983 155.996 112.983 156.089 112.983C156.067 115.174 156.045 117.49 156.029 119.904ZM164.565 142.876C161.939 142.843 159.269 142.811 156.573 142.773C156.594 140.56 156.611 138.244 156.627 135.851C159.356 135.889 162.053 135.922 164.706 135.955C164.657 138.358 164.609 140.674 164.565 142.881V142.876ZM164.717 135.259C162.059 135.226 159.362 135.193 156.627 135.15C156.638 133.361 156.649 131.529 156.66 129.664C156.66 129.185 156.66 128.707 156.665 128.229C159.432 128.267 162.167 128.305 164.853 128.332C164.804 130.702 164.761 133.019 164.712 135.259H164.717ZM164.875 127.413C164.875 127.489 164.875 127.565 164.875 127.641C162.184 127.609 159.449 127.576 156.676 127.533C156.687 125.157 156.698 122.846 156.703 120.611C159.503 120.649 162.265 120.687 164.984 120.715C164.951 122.889 164.913 125.129 164.88 127.413H164.875ZM164.989 120.019C162.265 119.986 159.503 119.953 156.698 119.91C156.703 117.496 156.708 115.18 156.708 112.988C159.547 113.032 162.341 113.065 165.092 113.092C165.06 115.31 165.022 117.621 164.984 120.019H164.989ZM175.287 113.168C178.283 113.179 181.197 113.179 184.035 113.168C183.948 115.381 183.85 117.713 183.747 120.144C180.958 120.144 178.092 120.133 175.151 120.116C175.205 117.697 175.249 115.375 175.292 113.168H175.287ZM175.004 126.505C175.048 124.553 175.091 122.645 175.135 120.785C178.071 120.796 180.931 120.796 183.714 120.785C183.617 123.042 183.513 125.374 183.399 127.756C180.664 127.756 177.859 127.745 174.977 127.723C174.988 127.315 174.999 126.907 175.004 126.494V126.505ZM173.971 142.963C171.111 142.941 168.186 142.914 165.212 142.881C165.277 140.679 165.337 138.363 165.397 135.955C168.355 135.987 171.264 136.009 174.107 136.02C174.058 138.461 174.015 140.788 173.977 142.963H173.971ZM174.113 135.346C171.269 135.324 168.366 135.297 165.408 135.264C165.462 133.024 165.511 130.708 165.555 128.337C168.512 128.37 171.421 128.392 174.265 128.403C174.21 130.795 174.161 133.116 174.113 135.346ZM174.308 126.489C174.297 126.902 174.287 127.315 174.281 127.728C171.438 127.707 168.529 127.679 165.571 127.647C165.571 127.571 165.571 127.5 165.571 127.424C165.614 125.135 165.647 122.895 165.674 120.72C168.654 120.753 171.584 120.774 174.444 120.785C174.395 122.639 174.352 124.542 174.308 126.489ZM174.466 120.111C171.601 120.089 168.67 120.062 165.685 120.029C165.718 117.626 165.739 115.31 165.756 113.103C168.779 113.135 171.753 113.157 174.651 113.168C174.591 115.37 174.526 117.697 174.466 120.111ZM182.616 143.001C180.001 143.001 177.32 142.985 174.575 142.968C174.64 140.794 174.705 138.467 174.765 136.025C177.576 136.036 180.311 136.042 182.986 136.031C182.861 138.456 182.736 140.788 182.616 143.001ZM183.024 135.384C180.343 135.384 177.603 135.373 174.787 135.351C174.847 133.122 174.901 130.795 174.961 128.408C177.837 128.419 180.637 128.419 183.366 128.408C183.252 130.795 183.138 133.127 183.018 135.378L183.024 135.384Z" fill="#E71D35"/>
<g style="mix-blend-mode:multiply" opacity="0.16">
<path d="M188.918 139.298L189.728 133.225C187.488 132.377 185.15 131.746 182.812 131.257C174.243 129.463 165.391 129.332 156.801 127.636C148.21 125.94 139.5 122.357 134.264 115.343C131.937 112.222 130.475 108.552 129.849 104.719H118.051L122.651 139.298C123.243 143.746 127.033 147.068 131.519 147.068H180.044C184.53 147.068 188.325 143.746 188.912 139.298H188.918Z" fill="#976C29"/>
</g>
<path d="M196.655 100.092H114.914C113.923 100.092 113.12 100.895 113.12 101.886V106.736C113.12 107.727 113.923 108.53 114.914 108.53H196.655C197.646 108.53 198.449 107.727 198.449 106.736V101.886C198.449 100.895 197.646 100.092 196.655 100.092Z" fill="#2D3043"/>
<path d="M146.775 118.692C148.977 119.491 151.445 118.888 153.604 117.963C155.746 117.045 157.671 115.631 159.704 114.467C159.987 114.304 160.357 114.147 160.618 114.348C160.721 114.429 160.786 114.56 160.824 114.685C161.161 115.669 160.688 116.745 160.101 117.605C159.144 119.002 157.796 119.872 156.48 120.916C156.747 120.704 158.459 121.106 158.845 121.128C159.677 121.177 160.509 121.198 161.341 121.139C162.89 121.03 164.478 120.731 165.897 120.111C166.778 119.725 168.594 118.779 169.573 118.98C170.334 119.138 170.361 120.089 170.035 120.655C169.35 121.856 167.572 122.514 166.338 122.938C163.537 123.906 160.917 125.108 157.986 125.722C160.493 125.776 162.983 125.358 165.419 124.803C167.24 124.39 169.04 123.863 170.899 123.623C171.247 123.58 171.633 123.553 171.905 123.77C172.155 123.971 172.231 124.325 172.188 124.646C171.954 126.353 170.133 126.538 168.784 127.011C167.006 127.636 165.185 128.125 163.336 128.484C161.602 128.821 159.895 129.321 158.117 129.392C160.623 129.572 163.146 129.457 165.625 129.055C167.006 128.832 168.376 128.517 169.774 128.452C170.285 128.43 170.943 128.56 171.024 129.06C171.084 129.425 170.774 129.74 170.481 129.963C168.594 131.393 166.18 131.899 163.853 132.355C162.167 132.687 160.476 133.013 158.791 133.323C161.705 133.883 164.706 133.296 167.681 133.307C168.115 133.307 168.61 133.356 168.866 133.704C169.094 134.019 169.029 134.476 168.806 134.797C168.583 135.117 168.235 135.324 167.893 135.503C166.87 136.047 165.799 136.4 164.685 136.705C163.641 136.988 162.825 137.047 161.727 137.113C159.878 137.221 157.997 137.298 156.154 137.515C151.924 138.021 147.618 139.124 143.361 138.244L146.78 118.681L146.775 118.692Z" fill="#F29B75"/>
<path d="M150.461 117.327C138.451 116.289 126.353 115.332 114.305 116.376C111.113 116.653 107.846 117.061 105.954 119.817C103.545 123.33 102.8 129.637 103.974 133.595C104.746 136.205 106.693 138.418 109.069 139.902C115.311 143.806 123.466 142.425 130.458 141.571C137.565 140.701 144.731 139.69 151.396 137.222C150.864 130.605 150.635 123.966 150.461 117.333V117.327Z" fill="#2D3043"/>
<path d="M152.847 137.792L151.385 116.834C151.32 115.903 150.512 115.2 149.58 115.265L145.013 115.583C144.082 115.648 143.379 116.456 143.444 117.388L144.906 138.346C144.971 139.277 145.779 139.98 146.711 139.915L151.277 139.596C152.209 139.531 152.912 138.724 152.847 137.792Z" fill="#E71D35"/>
<path d="M140.908 116.403C140.908 116.354 140.424 116.272 139.544 116.158C138.657 116.044 137.38 115.914 135.792 115.789C132.617 115.533 128.213 115.288 123.341 115.435C120.905 115.517 118.589 115.702 116.491 115.946C115.441 116.088 114.446 116.213 113.522 116.381C113.06 116.463 112.608 116.533 112.184 116.615C111.766 116.702 111.358 116.789 110.956 116.871C110.173 117.023 109.477 117.219 108.862 117.371C108.248 117.523 107.726 117.681 107.296 117.817C106.443 118.088 105.981 118.257 105.997 118.306C106.03 118.42 107.933 117.909 111.053 117.354C111.456 117.284 111.864 117.213 112.277 117.142C112.701 117.072 113.152 117.017 113.609 116.947C114.528 116.8 115.517 116.702 116.561 116.577C118.644 116.37 120.943 116.202 123.358 116.12C128.197 115.973 132.579 116.137 135.754 116.267C137.13 116.321 138.375 116.37 139.516 116.419C140.408 116.446 140.903 116.441 140.903 116.392L140.908 116.403Z" fill="#32476B"/>
<path d="M148.205 63.7994L147.128 69.4431C147.036 69.9378 146.628 70.2967 146.15 70.351C147.846 71.8082 149.89 72.8575 152.071 73.3577C155.409 74.1189 159.019 73.5752 161.988 71.868C162.483 71.5852 162.956 71.2536 163.407 70.8948C162.847 70.8404 162.379 70.3837 162.379 69.7801V62.7609L148.205 63.8048V63.7994Z" fill="#F29B75"/>
<path d="M113.576 30.6006C111.396 28.1268 109.216 24.2828 113.902 21.9503C113.902 21.9503 111.309 13.2184 118.801 14.7897C118.801 14.7897 115.343 3.3664 124.641 7.13972C124.641 7.13972 130.882 0.109594 133.318 9.51571L122.46 37.2719L117.159 33.7052C115.843 32.819 114.626 31.7859 113.576 30.5952V30.6006Z" fill="#DBDBDB"/>
<path d="M193.773 30.6006C195.953 28.1268 198.133 24.2828 193.447 21.9503C193.447 21.9503 196.04 13.2184 188.548 14.7897C188.548 14.7897 192.006 3.3664 182.709 7.13972C182.709 7.13972 176.467 0.109594 174.031 9.51571L184.889 37.2719L190.19 33.7052C191.506 32.819 192.724 31.7859 193.773 30.5952V30.6006Z" fill="#DBDBDB"/>
<path d="M192.56 38.4844C190.049 37.2447 187.069 37.696 184.563 39.3978L184.726 37.1306C186.716 18.5086 174.667 1.95277 157.818 0.158534C140.968 -1.6357 125.695 12.0059 123.711 30.6278C123.624 31.4434 123.608 32.9277 123.629 34.5806C121.514 32.1937 118.567 30.9921 115.729 31.7098C111.309 32.819 108.841 38.1419 110.216 43.6007C111.211 47.5534 113.946 50.484 117.061 51.3866C116.822 51.865 116.659 52.3924 116.599 52.9524C116.327 55.497 118.171 57.7751 120.715 58.047C122.613 58.2481 124.363 57.2749 125.244 55.7145C127.598 65.6208 133.008 67.0997 141.914 68.0512C144.285 68.3013 146.606 68.1273 148.819 67.5944C149.341 69.8834 152.468 72.1779 155.208 72.1344C158.514 72.0855 160.754 70.1281 161.683 67.8826C169.002 68.6601 175.358 67.0997 179.414 61.9073C180.131 62.5978 181.067 63.0654 182.132 63.1741C184.677 63.446 186.96 61.6028 187.232 59.0637C187.292 58.4982 187.243 57.9491 187.113 57.4326C190.342 57.2096 193.637 54.9152 195.448 51.2669C197.943 46.2213 196.655 40.5015 192.571 38.4844H192.56Z" fill="#FBAB80"/>
<path opacity="0.38" d="M122.972 33.9064C120.927 31.9762 118.285 31.0628 115.729 31.7044C111.309 32.8135 108.841 38.1364 110.216 43.5952C111.211 47.548 113.946 50.4786 117.061 51.3811C116.822 51.8596 116.659 52.387 116.599 52.947C116.327 55.4915 118.171 57.7697 120.715 58.0415C122.52 58.2318 124.189 57.3619 125.108 55.9319C124.613 48.5702 123.744 41.241 122.972 33.901V33.9064Z" fill="#FF8B5A"/>
<path d="M116.208 47.6078C116.208 47.6078 107.65 38.4844 115.708 33.9499C119.057 32.0632 121.319 35.8855 122.629 39.0281C123.358 40.7734 123.798 42.622 124.005 44.4978L125.25 55.7145" stroke="#E87348" stroke-width="0.516521" stroke-miterlimit="10"/>
<path d="M124.304 46.4388L117.404 43.0352" stroke="#E87348" stroke-width="0.516521" stroke-miterlimit="10"/>
<path opacity="0.38" d="M192.56 38.4844C190.315 37.3752 187.694 37.6254 185.373 38.9031C186.373 39.2347 180.072 62.1248 179.299 62.0432C179.24 62.0378 179.376 61.9508 179.408 61.9073C180.126 62.5978 181.061 63.0654 182.127 63.1741C184.671 63.446 186.955 61.6028 187.227 59.0637C187.286 58.4982 187.238 57.9491 187.107 57.4326C190.337 57.2097 193.632 54.9152 195.442 51.2669C197.938 46.2214 196.649 40.5016 192.566 38.4844H192.56Z" fill="#FF8B5A"/>
<path d="M179.408 61.9073L183.546 48.717C183.546 48.717 186.552 38.0712 192.033 41.154C197.514 44.2368 193.3 51.1365 193.3 51.1365" stroke="#E87348" stroke-width="0.516521" stroke-miterlimit="10"/>
<path d="M182.643 51.9466L191.217 49.837" stroke="#E87348" stroke-width="0.516521" stroke-miterlimit="10"/>
<path opacity="0.26" d="M146.275 54.3703C146.41 49.1171 142.255 44.7484 136.993 44.6124C131.73 44.4765 127.354 48.6248 127.219 53.878C127.083 59.1311 131.239 63.4999 136.501 63.6358C141.763 63.7718 146.139 59.6235 146.275 54.3703Z" fill="#EB8651" stroke="#EB8651" stroke-width="0.516521" stroke-miterlimit="10"/>
<path opacity="0.26" d="M180.587 53.8742C180.715 48.6208 176.553 44.2579 171.291 44.1293C166.029 44.0007 161.659 48.1551 161.53 53.4084C161.402 58.6618 165.564 63.0247 170.826 63.1533C176.088 63.2819 180.458 59.1275 180.587 53.8742Z" fill="#EB8651" stroke="#EB8651" stroke-width="0.516521" stroke-miterlimit="10"/>
<path d="M144.23 25.5279C142.186 23.3585 139.484 22.1134 136.58 22.2656C135.02 22.3472 133.557 22.8311 132.258 23.6303C132.22 23.7445 132.176 23.8478 132.144 23.962C131.519 25.9085 131.029 27.9419 130.643 30.0189C130.442 31.0846 130.263 32.1557 130.116 33.2376C130.045 33.7324 129.98 34.2326 129.915 34.7274C129.898 34.8524 129.882 34.9829 129.866 35.108C129.735 36.1247 129.621 37.1415 129.518 38.1527C129.507 38.2669 129.496 38.3865 129.485 38.5007C129.436 39.0064 129.393 39.512 129.355 40.0177C129.355 40.0177 129.355 40.0231 129.355 40.0285C129.333 40.3547 129.311 40.6864 129.289 41.0126C129.273 41.2845 129.268 41.5563 129.251 41.8282C130.513 42.8775 131.448 44.3293 132.22 45.7809C133.911 46.9064 135.863 47.4991 137.918 47.3903C140.81 47.2381 143.36 45.7211 145.16 43.3614C145.193 43.2636 145.22 43.1657 145.263 43.0678C145.514 42.4589 145.883 41.9043 146.351 41.4585C147.406 39.3815 147.96 36.9022 147.824 34.2652C147.639 30.7801 146.275 27.6973 144.236 25.5279H144.23Z" fill="#FBAB80"/>
<path d="M129.219 42.5187C129.224 42.2849 129.24 42.0566 129.251 41.8228C129.24 42.0566 129.235 42.2903 129.224 42.5241L129.219 42.5187Z" fill="#FBAB80"/>
<path d="M129.208 42.834C129.208 42.7307 129.213 42.622 129.219 42.5187C129.219 42.622 129.208 42.7253 129.202 42.834H129.208Z" fill="#FBAB80"/>
<path d="M153.278 40.246C152.375 38.5768 151.81 36.6847 151.679 34.6567C151.092 34.1239 150.576 33.988 150.124 34.0097C149.662 34.0315 149.243 34.2435 148.939 34.461C148.732 34.6078 148.58 34.7546 148.499 34.8416C148.531 36.9512 148.134 38.952 147.406 40.7354C148.319 40.2678 149.417 40.0068 150.532 39.9415C151.473 39.8926 152.424 39.9905 153.283 40.2515L153.278 40.246Z" fill="#F8BC97"/>
<path d="M176.695 33.1887C176.51 29.7144 174.977 26.6479 172.65 24.4948C170.323 22.3418 167.207 21.0967 163.842 21.2761C160.476 21.4555 157.513 23.0214 155.425 25.4083C153.338 27.8006 152.141 31.0139 152.326 34.4827C152.446 36.7663 153.153 38.8704 154.284 40.6592C154.458 40.7517 154.621 40.8495 154.778 40.9583C155.616 41.5509 156.165 42.361 156.448 43.2473C158.769 45.3569 161.852 46.5748 165.179 46.3953C168.54 46.2159 171.508 44.65 173.596 42.2632C175.684 39.8709 176.88 36.6576 176.695 33.1887ZM162.222 36.8587C161.656 36.8587 161.656 35.9779 162.222 35.9779C162.787 35.9779 162.787 36.8587 162.222 36.8587ZM167.925 38.7998C167.795 39.0227 167.539 39.0553 167.322 38.9574C167.033 38.8269 166.696 38.7943 166.386 38.7454C166.06 38.6965 165.745 38.6203 165.419 38.5714C164.728 38.4735 164.021 38.479 163.32 38.4681C162.754 38.4627 162.754 37.5819 163.32 37.5873C164.097 37.5982 164.875 37.609 165.652 37.7232C166 37.7722 166.343 37.8537 166.691 37.9081C167.066 37.9679 167.42 38.044 167.767 38.2017C167.985 38.2995 168.034 38.6149 167.925 38.8052V38.7998Z" fill="#FBAB80"/>
<path d="M129.208 42.8341C129.534 43.2908 129.887 43.7257 130.263 44.1226C130.861 44.7588 131.519 45.3079 132.215 45.7755C131.442 44.3184 130.507 42.8612 129.24 41.8173C129.224 42.1544 129.213 42.497 129.202 42.8341H129.208Z" fill="#E89E83"/>
<path d="M133.873 30.2092C136.325 30.1929 138.782 29.5785 141.044 28.4204C141.713 28.0779 142.485 27.4363 142.36 26.5664C142.018 24.1469 137.467 24.9787 136.238 25.3593C135.27 25.6529 134.319 26.0335 133.449 26.637C132.28 27.4471 131.448 28.5509 131.6 29.3882C132.149 30.1113 133.057 30.2201 133.873 30.2146V30.2092Z" fill="#E6E6E6"/>
<path d="M161.656 27.7734C163.913 28.9478 166.365 29.573 168.817 29.6057C169.632 29.6165 170.535 29.5132 171.09 28.7901C170.829 27.6266 170.421 26.8491 169.257 26.0335C168.393 25.4246 167.441 25.044 166.479 24.7395C165.25 24.3535 160.705 23.4998 160.346 25.9139C160.221 26.7838 160.982 27.4254 161.651 27.7734H161.656Z" fill="#E6E6E6"/>
<path d="M177.348 32.9821C177.369 33.3192 177.375 33.6509 177.369 33.9825C177.266 35.6789 176.831 37.9624 176.157 39.4359C175.635 40.5722 174.966 41.6162 174.161 42.5513C171.987 45.0796 168.86 46.765 165.315 46.9771C162.113 47.1674 159.112 46.1398 156.747 44.2803C156.709 43.9269 156.638 43.5789 156.524 43.2418C158.856 45.3351 161.955 46.5258 165.277 46.3192C168.637 46.1126 171.595 44.525 173.661 42.1218C175.727 39.7132 176.902 36.4944 176.69 33.0202C176.478 29.5459 174.923 26.4902 172.579 24.3535C170.236 22.2167 167.104 20.9988 163.75 21.2054C160.389 21.412 157.432 22.9997 155.36 25.4083C153.294 27.8115 152.12 31.0356 152.332 34.5099C152.473 36.7935 153.196 38.8922 154.338 40.6701C154.023 40.5016 153.68 40.3711 153.327 40.2678C152.408 38.604 151.831 36.7119 151.685 34.6893C151.092 34.1619 150.576 34.026 150.124 34.0532C149.662 34.0804 149.243 34.2924 148.939 34.5154C148.732 34.6676 148.586 34.8144 148.504 34.8959C148.547 37.0055 148.172 39.0064 147.455 40.8006C147.243 40.9093 147.036 41.029 146.846 41.1594C146.688 41.2736 146.541 41.3987 146.405 41.5346C147.444 39.4468 147.982 36.962 147.819 34.3251C147.607 30.8453 146.22 27.768 144.165 25.6149C142.105 23.4618 139.386 22.233 136.488 22.4124C134.928 22.5103 133.471 23.0051 132.176 23.8098C131.067 24.5003 130.078 25.4246 129.257 26.5229C128.267 27.8495 127.517 29.4317 127.087 31.177C126.739 32.5689 126.593 34.0641 126.685 35.6136C126.81 37.609 127.316 39.4739 128.115 41.0996C128.452 41.7901 128.838 42.4371 129.273 43.0352C129.605 43.4919 129.964 43.9215 130.339 44.3184C130.942 44.9491 131.6 45.4982 132.302 45.9549C133.998 47.0641 135.955 47.6459 138.01 47.5208C140.898 47.3468 143.437 45.8081 145.215 43.4376C145.062 43.878 144.964 44.3401 144.926 44.8132C143.116 46.7651 140.729 48.021 138.049 48.1841C136.211 48.2929 134.444 47.8797 132.856 47.0478C131.752 46.4769 130.741 45.7103 129.855 44.7751C129.648 44.5576 129.447 44.3293 129.257 44.1009C128.496 43.1766 127.838 42.1218 127.321 40.9746C126.598 39.3707 126.141 37.5764 126.027 35.6571C125.929 34.1076 126.065 32.6069 126.397 31.2042C126.843 29.3066 127.647 27.5777 128.724 26.1368C129.279 25.3974 129.904 24.7341 130.583 24.1577C130.643 24.1088 130.698 24.0599 130.757 24.0164C131.301 23.5814 131.877 23.1954 132.486 22.8746C133.699 22.2385 135.026 21.847 136.439 21.7654C139.555 21.5751 142.469 22.8963 144.633 25.169C146.753 27.3928 148.183 30.5246 148.45 34.0586C148.471 34.0423 148.488 34.0315 148.509 34.0097C148.885 33.7379 149.417 33.4388 150.075 33.4007C150.559 33.3681 151.097 33.4877 151.641 33.8357C151.609 30.4647 152.821 27.3493 154.855 24.9842C157.029 22.4505 160.15 20.7759 163.701 20.5584C167.246 20.3409 170.551 21.6295 173.014 23.875C174.896 25.5877 176.287 27.8604 176.945 30.4647C177.152 31.2803 177.288 32.123 177.337 32.9875L177.348 32.9821Z" fill="#422918"/>
<path d="M167.583 55.9646C167.371 55.5296 167.126 55.1164 166.87 54.714C164.478 51.0168 160.118 48.8475 155.409 48.2113C155.208 48.4451 154.996 48.668 154.751 48.8638C153.724 49.6956 152.332 50.1469 150.907 50.223C150.793 50.2285 150.684 50.223 150.57 50.223C150.592 50.2937 150.603 50.3698 150.586 50.4514C150.2 52.0662 149.896 55.2414 149.972 56.8997C149.983 57.1444 149.793 57.3456 149.553 57.3564C149.309 57.3673 149.107 57.177 149.097 56.9378C149.026 55.149 149.325 51.9955 149.738 50.2502C149.738 50.2502 149.76 50.2122 149.765 50.1904C149.2 50.136 148.645 50.0273 148.123 49.8424C147.482 49.6195 146.884 49.2878 146.373 48.8474C142.746 49.9131 139.593 51.9846 137.793 55.0566C137.597 55.3882 137.412 55.7362 137.249 56.0951C137.113 57.3021 138.396 58.3514 139.614 58.4112C140.702 58.4602 141.724 57.873 142.48 57.0737C142.599 57.09 142.714 57.1118 142.833 57.1227C143.235 58.4602 144.187 59.4062 145.606 59.5856C147.145 59.7759 149.423 59.3845 149.82 57.6827C149.82 57.6827 149.82 57.6827 149.825 57.6827C150.135 58.9604 150.967 59.6998 153.245 59.5748C154.539 59.5041 155.942 58.8082 156.181 57.6174C156.257 57.6174 156.328 57.612 156.399 57.6066C156.844 58.4221 157.627 58.7918 158.905 58.7918C160.52 58.7918 161.412 58.1775 161.596 57.3619C161.564 57.3782 161.537 57.3945 161.499 57.4C161.259 57.4435 161.031 57.2803 160.987 57.0411V56.9867H160.982C160.922 55.8015 160.52 54.3824 159.949 53.1319C159.384 51.8813 158.639 50.7993 157.975 50.272C157.785 50.1197 157.758 49.8424 157.91 49.6521C158.062 49.4618 158.34 49.4347 158.53 49.5869C159.373 50.2665 160.145 51.4355 160.754 52.773C161.363 54.1051 161.792 55.6057 161.868 56.9432V56.9487H161.863C161.868 57.1009 161.803 57.2423 161.683 57.3238C161.95 57.5739 163.26 58.6233 166.033 58.2481C166.033 58.2481 167.849 57.9002 167.729 56.2419L167.594 55.9646H167.583Z" fill="#F5F5F5"/>
<path d="M142.496 56.2636C142.452 56.5028 142.61 56.7312 142.849 56.7747C143.089 56.8182 143.317 56.6605 143.36 56.4213C143.73 54.3335 145.068 52.0608 146.715 50.7232C146.905 50.571 146.933 50.2937 146.78 50.1034C146.628 49.9131 146.351 49.8859 146.161 50.0382C144.334 51.5334 142.92 53.9365 142.496 56.2636Z" fill="#D9CECE"/>
<path d="M149.727 50.2556C149.314 52.0009 149.015 55.1545 149.086 56.9432C149.097 57.1879 149.303 57.3728 149.542 57.3619C149.787 57.351 149.972 57.1444 149.961 56.9052C149.885 55.2469 150.189 52.0716 150.575 50.4568C150.592 50.3753 150.581 50.2991 150.559 50.2285C150.287 50.2285 150.015 50.2176 149.744 50.1958C149.733 50.2176 149.722 50.2339 149.716 50.2556H149.727Z" fill="#D9CECE"/>
<path d="M154.425 49.6739C154.207 49.7826 154.115 50.0436 154.224 50.2611C154.914 51.6584 155.485 53.4744 155.578 55.2414C155.61 55.8287 155.588 56.4104 155.501 56.9704C155.463 57.2097 155.632 57.4326 155.871 57.4706C156.11 57.5087 156.333 57.3402 156.371 57.1009C156.464 56.4757 156.486 55.8341 156.453 55.1925C156.35 53.2732 155.746 51.3648 155.012 49.8696C154.903 49.6521 154.642 49.5597 154.425 49.6685V49.6739Z" fill="#D9CECE"/>
<path d="M161.852 56.9487H161.857V56.9432C161.787 55.6003 161.352 54.1051 160.743 52.7676C160.134 51.4355 159.356 50.2665 158.519 49.5815C158.329 49.4292 158.051 49.4618 157.899 49.6467C157.747 49.837 157.78 50.1143 157.964 50.2665C158.628 50.7939 159.373 51.8813 159.938 53.1264C160.509 54.3769 160.911 55.7906 160.971 56.9813L160.977 57.0357C161.02 57.2749 161.243 57.438 161.488 57.3945C161.526 57.3891 161.553 57.3728 161.585 57.3565C161.613 57.3456 161.64 57.3347 161.667 57.3184C161.787 57.2314 161.852 57.0955 161.846 56.9432L161.852 56.9487Z" fill="#D9CECE"/>
<path d="M146.068 43.4049C145.791 44.0683 145.666 44.824 145.704 45.5471C145.747 46.3899 146.014 47.1837 146.498 47.76C146.976 48.3364 147.639 48.7605 148.401 49.0269C149.162 49.2933 150.015 49.402 150.858 49.3585C152.125 49.2933 153.354 48.8746 154.197 48.195C155.295 47.3033 155.877 45.8842 155.801 44.5413C155.741 43.4321 155.251 42.3882 154.267 41.6923C153.37 41.0507 151.962 40.7517 150.565 40.8332C149.325 40.8985 148.107 41.2519 147.286 41.8282C146.753 42.1925 146.335 42.7579 146.063 43.4213L146.068 43.4049Z" fill="#F8BC97"/>
<path d="M144.829 45.5906C144.877 46.5367 145.166 47.461 145.737 48.2004C145.769 48.2385 145.796 48.282 145.824 48.32C145.987 48.5158 146.171 48.6952 146.362 48.8583C146.873 49.2987 147.471 49.6249 148.113 49.8533C148.64 50.0382 149.194 50.1469 149.755 50.2013C150.026 50.2285 150.298 50.2393 150.57 50.2339C150.684 50.2339 150.793 50.2339 150.907 50.2339C152.332 50.1578 153.724 49.7011 154.751 48.8746C154.996 48.6789 155.208 48.4505 155.409 48.2222C155.556 48.0482 155.697 47.8633 155.817 47.673C156.437 46.7215 156.741 45.5961 156.681 44.4924C156.681 44.4271 156.665 44.3673 156.66 44.3021C156.627 43.9487 156.556 43.5952 156.448 43.2527C156.165 42.3719 155.616 41.5563 154.778 40.9637C154.621 40.855 154.458 40.7571 154.284 40.6647C153.968 40.4961 153.631 40.3602 153.272 40.2514C152.413 39.9905 151.462 39.8926 150.521 39.9415C149.407 40.0013 148.314 40.2678 147.395 40.7353C147.183 40.8441 146.976 40.9583 146.786 41.0888C146.628 41.1975 146.481 41.3225 146.34 41.4585C145.867 41.9043 145.503 42.4589 145.253 43.0678C145.215 43.1657 145.187 43.2636 145.149 43.3614C144.997 43.8018 144.894 44.264 144.85 44.7316C144.823 45.0198 144.807 45.3079 144.823 45.5961L144.829 45.5906ZM150.57 40.8169C151.962 40.7408 153.376 41.0398 154.273 41.676C155.257 42.3719 155.741 43.4158 155.806 44.525C155.877 45.8679 155.3 47.2924 154.202 48.1787C153.365 48.8638 152.131 49.277 150.864 49.3422C150.021 49.3857 149.162 49.277 148.406 49.0106C147.645 48.7441 146.982 48.32 146.503 47.7437C146.025 47.1674 145.753 46.379 145.709 45.5308C145.671 44.8077 145.796 44.052 146.074 43.3886C146.345 42.7253 146.77 42.1653 147.297 41.7956C148.118 41.2247 149.336 40.8658 150.575 40.8006L150.57 40.8169Z" fill="#F29485"/>
<path d="M143.105 35.9127C143.061 36.5706 142.773 37.1686 142.311 37.658C140.626 37.2339 138.505 36.875 136.2 37.1469C135.868 37.1904 135.537 37.2502 135.21 37.3372C134.748 36.7717 134.498 36.0921 134.542 35.3798C134.656 33.5584 136.662 32.1992 139.027 32.346C141.392 32.4928 143.214 34.0967 143.1 35.9181L143.105 35.9127Z" fill="white" stroke="white" stroke-width="0.570892" stroke-miterlimit="10"/>
<path d="M142.512 35.233C142.458 36.0812 142.001 36.8098 141.327 37.2556C141.017 37.2339 140.038 37.1849 140.37 37.2284C140.979 37.3046 138.668 37.0762 138.081 37.0436C137.195 36.5488 136.896 35.929 136.961 34.8851C137.053 33.4116 138.369 32.297 139.903 32.3895C141.436 32.4873 142.599 33.7542 142.507 35.233H142.512Z" fill="black" stroke="black" stroke-width="1.20703" stroke-miterlimit="10"/>
<path d="M133.867 37.1414C132.889 37.5383 132.274 37.8863 131.404 38.4898C131.578 37.435 132.883 36.7119 133.867 37.1414Z" fill="#E89E83"/>
<path d="M133.884 36.9185C132.851 37.1414 132.187 37.3861 131.23 37.832C131.584 36.8207 132.987 36.3313 133.884 36.9185Z" fill="#E89E83"/>
<path d="M143.649 38.4192C143.964 39.3761 143.007 40.5016 142.012 40.3384C142.746 39.6914 143.127 39.2456 143.649 38.4192Z" fill="#E89E83"/>
<path d="M133.432 36.1084C132.905 34.2489 134.226 32.2155 136.064 31.7588C136.319 31.6935 136.58 31.6555 136.836 31.6283C136.613 31.7696 136.379 31.8784 136.167 32.0034C134.612 32.8516 133.666 34.3087 133.432 36.1084Z" fill="#E89E83"/>
<path d="M141.245 40.3004C141.985 39.6969 142.904 38.952 142.855 37.9135L143.159 38.3485C140.158 37.8211 135.276 36.6358 132.758 38.7671L132.704 38.7291C133.862 37.1904 136.026 37.0055 137.809 36.9838C139.685 36.9729 141.539 37.3752 143.322 37.9081C143.29 39.0988 142.235 39.8654 141.267 40.3656L141.245 40.3058V40.3004Z" fill="black"/>
<path d="M134.025 36.7717C133.237 34.2 135.564 31.3727 138.212 31.2042C140.827 30.9051 143.643 33.167 143.437 35.8311L143.317 35.8692C142.284 32.5798 137.918 31.2096 135.493 33.8738C134.754 34.6622 134.275 35.7006 134.156 36.788L134.03 36.7772L134.025 36.7717Z" fill="black"/>
<path d="M135.651 34.4555L139.315 35.0591L135.749 36.0812L135.651 34.4555Z" fill="white"/>
<path d="M168.839 36.5053C168.757 37.1632 168.431 37.7395 167.931 38.1962C166.272 37.6634 164.184 37.1741 161.868 37.2882C161.537 37.31 161.199 37.348 160.873 37.4133C160.449 36.8152 160.243 36.1247 160.335 35.4179C160.569 33.6074 162.657 32.3786 165.005 32.6776C167.36 32.9766 169.072 34.6948 168.844 36.5053H168.839Z" fill="white" stroke="white" stroke-width="0.570892" stroke-miterlimit="10"/>
<path d="M168.295 35.7822C168.186 36.6249 167.686 37.3209 166.985 37.7232C166.68 37.6852 165.701 37.571 166.028 37.6362C166.631 37.7504 164.342 37.3752 163.755 37.3046C162.901 36.7554 162.646 36.1193 162.776 35.0808C162.961 33.6128 164.348 32.5852 165.875 32.7809C167.398 32.9767 168.48 34.3196 168.295 35.7822Z" fill="black" stroke="black" stroke-width="1.20703" stroke-miterlimit="10"/>
<path d="M169.284 38.5551C170.323 38.2778 171.503 39.1803 171.524 40.2514C170.752 39.5283 170.198 39.0934 169.284 38.5551Z" fill="#E89E83"/>
<path d="M169.301 38.3322C170.274 37.8809 171.595 38.5768 171.791 39.6262C170.91 39.0444 170.285 38.7073 169.301 38.3322Z" fill="#E89E83"/>
<path d="M159.422 38.3757C159.813 39.2673 160.128 39.7675 160.759 40.5179C159.748 40.5342 158.97 39.2782 159.422 38.3757Z" fill="#E89E83"/>
<path d="M169.834 36.3422C169.578 34.548 168.61 33.1017 167.05 32.2698C166.832 32.1448 166.599 32.0415 166.376 31.9001C166.631 31.9219 166.892 31.9599 167.153 32.0197C168.996 32.4547 170.345 34.4719 169.839 36.3368L169.834 36.3422Z" fill="#E89E83"/>
<path d="M161.493 40.6483C160.716 40.2569 159.927 39.7186 159.606 38.8704C159.454 38.4844 159.432 38.0385 159.449 37.6199L159.808 37.5383C162.907 36.8152 168.784 36.8152 170.203 40.2949L170.143 40.3221C169.225 38.6693 167.131 38.1908 165.391 37.9298C163.559 37.6797 161.7 37.7558 159.867 38.0059L159.905 37.9624C159.857 38.4953 160.009 39.0498 160.346 39.4685C160.678 39.8871 161.08 40.2895 161.515 40.594L161.488 40.6483H161.493Z" fill="black"/>
<path d="M159.726 36.7717C159.106 34.1565 161.607 31.4815 164.261 31.4815C166.892 31.351 169.556 33.7868 169.176 36.4346L169.051 36.4673C168.23 33.118 163.962 31.4706 161.373 33.9716C160.585 34.7111 160.041 35.7169 159.851 36.7935L159.726 36.7717Z" fill="black"/>
<path d="M161.102 34.8361L164.766 35.4342L161.199 36.4618L161.102 34.8361Z" fill="white"/>
<path d="M160.536 62.0377C160.161 64.6203 158.003 66.3167 155.518 66.8332C154.338 67.0779 153.147 67.0725 151.973 66.8822C149.662 66.5016 147.688 65.1912 146.857 62.8696C146.737 62.5325 146.601 62.2661 146.34 62.0541C146.454 61.8909 146.628 61.8692 146.791 61.9127C147.672 62.1519 148.569 62.315 149.461 62.489C149.581 62.5108 149.678 62.5923 149.755 62.6848C149.793 63.1252 150.119 63.3426 150.445 63.5492C152.125 64.6149 155.414 64.4899 157.051 63.3155C157.345 63.1034 157.524 62.8424 157.606 62.5053C158.552 62.1519 159.487 61.7224 160.536 62.0377Z" fill="#FBBEAA"/>
<path d="M160.536 62.0378C159.563 62.2498 158.595 62.4619 157.622 62.6685C157.138 63.2829 156.399 63.2502 155.757 63.2774C153.995 63.3535 152.228 63.4949 150.467 63.2665C150.157 63.2285 149.82 63.2502 149.7 62.8588C149.287 62.5543 148.781 62.7283 148.33 62.5815C147.678 62.3694 147.003 62.2226 146.335 62.0486C145.981 61.9236 145.312 62.0649 145.416 61.5049C145.519 60.9232 146.117 61.1515 146.525 61.2657C151.195 62.6032 155.839 62.4238 160.471 61.07C160.705 60.9993 160.933 60.9014 161.172 60.8742C161.471 60.8362 161.874 60.7274 161.972 61.1461C162.059 61.5212 161.673 61.5865 161.417 61.6952C161.129 61.8203 160.83 61.9182 160.536 62.0269V62.0378Z" fill="#D67869"/>
<path d="M149.7 62.8642C152.103 63.1741 154.507 63.1959 156.91 62.7881C157.149 62.75 157.388 62.7065 157.622 62.6685C158.149 62.8751 157.742 63.0925 157.595 63.2285C156.757 63.9788 155.741 64.3811 154.642 64.4844C153.294 64.6149 151.94 64.6367 150.663 64.0005C150.244 63.7885 149.89 63.5166 149.586 63.1741C149.455 63.0273 149.51 62.9131 149.7 62.8696V62.8642Z" fill="#FBFAF8"/>
<path d="M184.655 38.8015L177.254 35.0388C177.208 35.0156 177.153 35.0338 177.129 35.0793L177.014 35.3071C176.991 35.3526 177.009 35.4082 177.054 35.4313L184.455 39.1941C184.5 39.2172 184.556 39.1991 184.579 39.1536L184.695 38.9258C184.718 38.8803 184.7 38.8247 184.655 38.8015Z" fill="#422918"/>
<path d="M123.744 34.6715L126.45 33.205C126.495 33.1806 126.511 33.1245 126.487 33.0797L126.365 32.855C126.341 32.8101 126.285 32.7935 126.24 32.8178L123.534 34.2843C123.489 34.3086 123.473 34.3647 123.497 34.4096L123.619 34.6343C123.643 34.6791 123.699 34.6958 123.744 34.6715Z" fill="#422918"/>
<path d="M54.2524 238.362L54.9647 237.943C55.3344 239.243 56.4327 240.123 58.2106 240.123C59.9885 240.123 60.9292 239.199 60.9292 237.959C60.9292 236.66 59.7874 236.165 58.1345 235.643C56.3294 235.056 54.7037 234.545 54.7037 232.664C54.7037 230.886 56.1391 229.76 57.9768 229.76C59.8146 229.76 60.9292 230.777 61.4511 232.033L60.7552 232.419C60.3528 231.446 59.521 230.549 57.9768 230.549C56.4327 230.549 55.5356 231.429 55.5356 232.637C55.5356 233.936 56.6339 234.333 58.178 234.844C60.0918 235.48 61.761 236.078 61.761 237.949C61.761 239.819 60.3528 240.912 58.2106 240.912C56.188 240.912 54.7527 239.89 54.2579 238.362H54.2524Z" fill="white"/>
<path d="M74.674 235.844V240.743H73.902V235.844C73.902 234.376 73.0538 233.588 71.8468 233.588C70.5473 233.588 69.5306 234.452 69.5306 236.432V240.743H68.7585V235.844C68.7585 234.376 67.9701 233.588 66.7794 233.588C65.5126 233.588 64.3871 234.452 64.3871 236.432V240.743H63.6151V233.023H64.3871V234.349C64.958 233.284 65.8877 232.849 66.8718 232.849C67.9973 232.849 68.8781 233.403 69.2805 234.425C69.8351 233.343 70.8246 232.849 71.8576 232.849C73.4942 232.849 74.6686 233.914 74.6686 235.844H74.674Z" fill="white"/>
<path d="M84.4336 233.017V240.738H83.6452V238.992C82.9982 240.151 81.8075 240.906 80.3232 240.906C78.132 240.906 76.3215 239.161 76.3215 236.877C76.3215 234.594 78.1266 232.849 80.3232 232.849C81.8075 232.849 82.9927 233.604 83.6452 234.762V233.017H84.4336ZM83.6452 236.877C83.6452 235.04 82.2261 233.588 80.3884 233.588C78.5507 233.588 77.1153 235.04 77.1153 236.877C77.1153 238.715 78.5507 240.167 80.3884 240.167C82.2261 240.167 83.6452 238.715 83.6452 236.877Z" fill="white"/>
<path d="M90.1642 232.908V233.648C88.8376 233.648 87.5871 234.469 87.5871 236.442V240.738H86.815V233.017H87.5871V234.529C88.1145 233.311 89.1149 232.908 90.1642 232.908Z" fill="white"/>
<path d="M93.4808 233.773V238.791C93.4808 240.151 94.2094 240.183 95.7807 240.042V240.738C93.7581 241.048 92.6925 240.553 92.6925 238.791V233.773H90.9907V233.017H92.6925V231.087L93.4808 230.853V233.017H95.7807V233.773H93.4808Z" fill="white"/>
<path d="M104.464 236.91C104.464 237.035 104.447 237.155 104.447 237.28H97.4499C97.6348 239.025 98.9614 240.167 100.723 240.167C101.99 240.167 102.947 239.58 103.393 238.759L104.072 239.161C103.436 240.21 102.235 240.906 100.707 240.906C98.3253 240.906 96.6452 239.21 96.6452 236.877C96.6452 234.545 98.2818 232.849 100.647 232.849C103.012 232.849 104.464 234.795 104.464 236.91ZM97.4499 236.524H103.659C103.49 234.637 102.158 233.588 100.647 233.588C98.8853 233.588 97.6021 234.806 97.4499 236.524Z" fill="white"/>
<path d="M109.623 232.908V233.648C108.297 233.648 107.046 234.469 107.046 236.442V240.738H106.274V233.017H107.046V234.529C107.574 233.311 108.574 232.908 109.623 232.908Z" fill="white"/>
<path d="M123.075 237.785C123.075 239.422 121.759 240.738 120.122 240.738H115.457V229.923H119.769C121.346 229.923 122.613 231.207 122.613 232.767C122.613 233.816 122.058 234.681 121.221 235.132C122.303 235.551 123.075 236.551 123.075 237.791V237.785ZM116.278 230.695V234.833H119.769C120.884 234.833 121.792 233.909 121.792 232.762C121.792 231.614 120.878 230.69 119.769 230.69H116.278V230.695ZM122.259 237.785C122.259 236.578 121.302 235.605 120.128 235.605H116.284V239.96H120.128C121.302 239.96 122.259 238.987 122.259 237.78V237.785Z" fill="white"/>
<path d="M132.514 233.017V240.738H131.725V238.992C131.078 240.151 129.887 240.906 128.403 240.906C126.212 240.906 124.401 239.161 124.401 236.877C124.401 234.594 126.207 232.849 128.403 232.849C129.887 232.849 131.073 233.604 131.725 234.762V233.017H132.514ZM131.725 236.877C131.725 235.04 130.306 233.588 128.468 233.588C126.631 233.588 125.195 235.04 125.195 236.877C125.195 238.715 126.631 240.167 128.468 240.167C130.306 240.167 131.725 238.715 131.725 236.877Z" fill="white"/>
<path d="M140.098 238.715C140.098 239.982 138.984 240.906 137.331 240.906C135.787 240.906 134.764 240.178 134.395 239.194L135.058 238.808C135.335 239.639 136.173 240.167 137.331 240.167C138.413 240.167 139.326 239.688 139.326 238.715C139.326 236.616 134.645 237.818 134.645 235.04C134.645 233.822 135.694 232.849 137.271 232.849C138.522 232.849 139.478 233.452 139.897 234.393L139.25 234.762C138.924 233.958 138.125 233.588 137.271 233.588C136.265 233.588 135.417 234.115 135.417 235.04C135.417 237.111 140.098 235.888 140.098 238.715Z" fill="white"/>
<path d="M146.753 240.738L142.659 236.937V240.738H141.887V229.923H142.659V236.519L146.568 233.012H147.65L143.496 236.72L147.808 240.738H146.759H146.753Z" fill="white"/>
<path d="M155.866 236.91C155.866 237.035 155.849 237.155 155.849 237.28H148.852C149.037 239.025 150.363 240.167 152.125 240.167C153.392 240.167 154.349 239.58 154.795 238.759L155.474 239.161C154.838 240.21 153.637 240.906 152.109 240.906C149.727 240.906 148.047 239.21 148.047 236.877C148.047 234.545 149.684 232.849 152.049 232.849C154.414 232.849 155.866 234.795 155.866 236.91ZM148.852 236.524H155.061C154.892 234.637 153.56 233.588 152.049 233.588C150.287 233.588 149.004 234.806 148.852 236.524Z" fill="white"/>
<path d="M159.09 233.773V238.791C159.09 240.151 159.818 240.183 161.39 240.042V240.738C159.367 241.048 158.302 240.553 158.302 238.791V233.773H156.605V233.017H158.302V231.087L159.09 230.853V233.017H161.39V233.773H159.09Z" fill="white"/>
<path d="M163.728 242.902H163.015L163.603 239.688H164.56L163.728 242.902Z" fill="white"/>
<path d="M178.582 237.785C178.582 239.422 177.271 240.738 175.629 240.738H170.964V229.923H175.276C176.853 229.923 178.12 231.207 178.12 232.767C178.12 233.816 177.565 234.681 176.728 235.132C177.81 235.551 178.582 236.551 178.582 237.791V237.785ZM171.785 230.695V234.833H175.276C176.391 234.833 177.299 233.909 177.299 232.762C177.299 231.614 176.385 230.69 175.276 230.69H171.785V230.695ZM177.766 237.785C177.766 236.578 176.809 235.605 175.635 235.605H171.791V239.96H175.635C176.809 239.96 177.766 238.987 177.766 237.78V237.785Z" fill="white"/>
<path d="M180.207 230.527C180.207 230.201 180.485 229.923 180.827 229.923C181.17 229.923 181.447 230.201 181.447 230.527C181.447 230.853 181.17 231.147 180.827 231.147C180.485 231.147 180.207 230.869 180.207 230.527ZM180.436 233.017H181.208V240.738H180.436V233.017Z" fill="white"/>
<path d="M191.218 233.017V240.368C191.218 242.684 189.505 244 187.374 244C185.568 244 184.285 243.271 183.731 242.146L184.41 241.76C184.813 242.581 185.677 243.261 187.374 243.261C189.304 243.261 190.445 242.135 190.445 240.373V238.954C189.815 240.145 188.624 240.917 187.123 240.917C184.916 240.917 183.122 239.172 183.122 236.888C183.122 234.605 184.916 232.859 187.123 232.859C188.624 232.859 189.809 233.632 190.445 234.822V233.028H191.218V233.017ZM190.445 236.877C190.445 235.04 189.01 233.588 187.172 233.588C185.335 233.588 183.899 235.04 183.899 236.877C183.899 238.715 185.335 240.167 187.172 240.167C189.01 240.167 190.445 238.715 190.445 236.877Z" fill="white"/>
<path d="M201.227 233.017V240.368C201.227 242.684 199.514 244 197.383 244C195.578 244 194.295 243.271 193.74 242.146L194.42 241.76C194.822 242.581 195.687 243.261 197.383 243.261C199.313 243.261 200.455 242.135 200.455 240.373V238.954C199.824 240.145 198.634 240.917 197.133 240.917C194.926 240.917 193.131 239.172 193.131 236.888C193.131 234.605 194.926 232.859 197.133 232.859C198.634 232.859 199.819 233.632 200.455 234.822V233.028H201.227V233.017ZM200.455 236.877C200.455 235.04 199.02 233.588 197.182 233.588C195.344 233.588 193.909 235.04 193.909 236.877C193.909 238.715 195.344 240.167 197.182 240.167C199.02 240.167 200.455 238.715 200.455 236.877Z" fill="white"/>
<path d="M210.894 236.91C210.894 237.035 210.878 237.155 210.878 237.28H203.88C204.065 239.025 205.392 240.167 207.154 240.167C208.42 240.167 209.377 239.58 209.823 238.759L210.503 239.161C209.867 240.21 208.665 240.906 207.137 240.906C204.761 240.906 203.076 239.21 203.076 236.877C203.076 234.545 204.712 232.849 207.077 232.849C209.443 232.849 210.894 234.795 210.894 236.91ZM203.88 236.524H210.09C209.921 234.637 208.589 233.588 207.077 233.588C205.316 233.588 204.033 234.806 203.88 236.524Z" fill="white"/>
<path d="M216.054 232.908V233.648C214.727 233.648 213.477 234.469 213.477 236.442V240.738H212.705V233.017H213.477V234.529C214.004 233.311 215.005 232.908 216.054 232.908Z" fill="white"/>
<path d="M221.241 238.362L221.953 237.943C222.323 239.243 223.421 240.123 225.199 240.123C226.977 240.123 227.918 239.199 227.918 237.959C227.918 236.66 226.776 236.165 225.123 235.643C223.318 235.056 221.692 234.545 221.692 232.664C221.692 230.886 223.128 229.76 224.965 229.76C226.803 229.76 227.918 230.777 228.44 232.033L227.744 232.419C227.341 231.446 226.509 230.549 224.965 230.549C223.421 230.549 222.524 231.43 222.524 232.637C222.524 233.936 223.622 234.333 225.167 234.844C227.08 235.48 228.75 236.078 228.75 237.949C228.75 239.819 227.341 240.912 225.199 240.912C223.177 240.912 221.741 239.89 221.246 238.362H221.241Z" fill="white"/>
<path d="M238.4 233.017V240.738H237.612V238.992C236.965 240.151 235.774 240.906 234.29 240.906C232.099 240.906 230.288 239.161 230.288 236.877C230.288 234.594 232.093 232.849 234.29 232.849C235.774 232.849 236.96 233.604 237.612 234.762V233.017H238.4ZM237.612 236.877C237.612 235.04 236.193 233.588 234.355 233.588C232.517 233.588 231.082 235.04 231.082 236.877C231.082 238.715 232.517 240.167 234.355 240.167C236.193 240.167 237.612 238.715 237.612 236.877Z" fill="white"/>
<path d="M247.268 233.017L244.011 240.738H243.071L239.798 233.017H240.63L243.533 239.938L246.453 233.017H247.274H247.268Z" fill="white"/>
<path d="M248.437 230.527C248.437 230.201 248.714 229.923 249.057 229.923C249.4 229.923 249.677 230.201 249.677 230.527C249.677 230.853 249.4 231.147 249.057 231.147C248.714 231.147 248.437 230.869 248.437 230.527ZM248.671 233.017H249.443V240.738H248.671V233.017Z" fill="white"/>
<path d="M258.354 235.937V240.743H257.566V235.937C257.566 234.518 256.745 233.588 255.293 233.588C253.842 233.588 252.591 234.578 252.591 236.66V240.738H251.819V233.017H252.591V234.485C253.178 233.343 254.168 232.849 255.353 232.849C257.191 232.849 258.349 234.066 258.349 235.937H258.354Z" fill="white"/>
<path d="M268.163 233.017V240.368C268.163 242.684 266.45 244 264.319 244C262.514 244 261.231 243.271 260.676 242.146L261.356 241.76C261.758 242.581 262.623 243.261 264.319 243.261C266.249 243.261 267.391 242.135 267.391 240.373V238.954C266.76 240.145 265.569 240.917 264.069 240.917C261.861 240.917 260.067 239.172 260.067 236.888C260.067 234.605 261.861 232.859 264.069 232.859C265.569 232.859 266.755 233.632 267.391 234.822V233.028H268.163V233.017ZM267.391 236.877C267.391 235.04 265.955 233.588 264.118 233.588C262.28 233.588 260.845 235.04 260.845 236.877C260.845 238.715 262.28 240.167 264.118 240.167C265.955 240.167 267.391 238.715 267.391 236.877Z" fill="white"/>
<path d="M275.748 238.715C275.748 239.982 274.633 240.906 272.985 240.906C271.441 240.906 270.419 240.178 270.049 239.194L270.713 238.808C270.99 239.639 271.827 240.167 272.985 240.167C274.067 240.167 274.975 239.688 274.975 238.715C274.975 236.616 270.294 237.818 270.294 235.04C270.294 233.822 271.344 232.849 272.92 232.849C274.171 232.849 275.128 233.452 275.546 234.393L274.899 234.762C274.573 233.958 273.774 233.588 272.92 233.588C271.914 233.588 271.066 234.115 271.066 235.04C271.066 237.111 275.748 235.888 275.748 238.715Z" fill="white"/>
<path d="M100.799 169.605C106.492 163.814 114.957 160.889 123.004 161.976C130.741 162.852 137.934 167.392 142.153 173.922C144.992 178.228 146.465 183.371 146.514 188.52C146.503 195.545 143.649 202.526 138.647 207.468C136.809 205.631 134.977 203.777 133.128 201.95C135.52 199.373 137.396 196.263 138.157 192.799C139.136 188.667 138.636 184.214 136.798 180.386C135.243 177.135 132.736 174.351 129.675 172.448C126.114 170.23 121.792 169.235 117.621 169.724C113.451 170.176 109.45 172.089 106.475 175.047C103.741 177.7 101.859 181.218 101.142 184.964C100.321 189.113 100.979 193.528 102.947 197.268C105.383 201.961 109.857 205.544 114.984 206.843C116.985 207.387 119.073 207.49 121.134 207.474C126.941 207.452 132.758 207.506 138.565 207.441C141.246 209.991 143.855 212.634 146.427 215.298C137.679 215.347 128.936 215.298 120.193 215.319C115.104 215.368 109.993 214.015 105.665 211.318C98.8473 207.153 94.0735 199.797 93.1547 191.848C92.0618 183.784 94.987 175.303 100.788 169.599L100.799 169.605Z" fill="#FFFBF5"/>
<path d="M29.715 215.515H0.947479V172.301H28.0893C35.4456 172.301 40.3879 177.445 40.3879 185.253C40.3879 188.634 38.958 191.5 36.6799 193.386C40.0019 195.143 42.0843 198.399 42.0843 202.564C42.0843 210.307 37.1366 215.515 29.7204 215.515H29.715ZM28.0893 190.005C30.5632 190.005 32.1236 188.248 32.1236 185.644V184.41C32.1236 181.805 30.5632 180.049 28.0893 180.049H9.21725V190.005H28.0893ZM29.715 207.702C32.1236 207.702 33.8145 206.011 33.8145 203.407V202.107C33.8145 199.503 32.1236 197.747 29.715 197.747H9.21181V207.708H29.715V207.702Z" fill="#FFFBF5"/>
<path d="M85.3579 215.515L81.1278 204.451H61.0814L56.9166 215.515H48.1956L65.0505 172.301H77.3491L94.204 215.515H85.3525H85.3579ZM78.3278 196.703L70.9714 178.739L63.876 196.703H78.3223H78.3278Z" fill="#FFFBF5"/>
<path d="M188.222 215.515L183.992 204.451H163.945L159.78 215.515H151.059L167.914 172.301H180.213L197.068 215.515H188.216H188.222ZM181.192 196.703L173.835 178.739L166.74 196.703H181.186H181.192Z" fill="#FFFBF5"/>
<path d="M213.798 207.702H238.4V215.51H205.533V172.296H213.798V207.702Z" fill="#FFFBF5"/>
<path d="M280.761 172.301V180.044H264.297V215.515H256.098V180.044H239.635V172.301H280.766H280.761Z" fill="#FFFBF5"/>
<path d="M329.047 172.301L311.801 200.351V215.515H303.536V200.351L286.355 172.301H295.794L307.636 191.695H307.766L319.483 172.301H329.053H329.047Z" fill="#FFFBF5"/>
</svg>
