<svg width="99" height="99" viewBox="0 0 99 99" fill="none" xmlns="http://www.w3.org/2000/svg">
<path d="M14.4755 14.4419C24.9455 3.79188 40.5155 -1.58809 55.3155 0.411914C69.5455 2.02191 82.7755 10.3719 90.5355 22.3819C95.7555 30.3019 98.4655 39.7619 98.5555 49.2319C98.5355 62.1519 93.2855 74.9919 84.0855 84.0819C80.7055 80.7019 77.3355 77.2919 73.9355 73.9319C78.3355 69.1919 81.7855 63.4719 83.1855 57.1019C84.9855 49.5019 84.0655 41.3119 80.6855 34.2719C77.8255 28.2919 73.2155 23.1719 67.5855 19.6719C61.0355 15.5919 53.0855 13.7619 45.4155 14.6619C37.7455 15.4919 30.3855 19.0119 24.9155 24.4519C19.8855 29.3319 16.4255 35.8019 15.1055 42.6919C13.5955 50.3219 14.8055 58.4419 18.4255 65.3219C22.9055 73.9519 31.1355 80.5419 40.5655 82.9319C44.2455 83.9319 48.0855 84.1219 51.8755 84.0919C62.5555 84.0519 73.2555 84.1519 83.9355 84.0319C88.8655 88.7219 93.6655 93.5819 98.3955 98.4819C82.3055 98.5719 66.2255 98.4819 50.1455 98.5219C40.7855 98.6119 31.3855 96.1219 23.4255 91.1619C10.8855 83.5019 2.10546 69.9719 0.415464 55.3519C-1.59454 40.5219 3.78547 24.9219 14.4555 14.4319L14.4755 14.4419Z" fill="#E71D35"/>
</svg>
