<svg width="27" height="26" viewBox="0 0 27 26" fill="none" xmlns="http://www.w3.org/2000/svg">
<path d="M2.51292 15.5132C1.00233 17.0029 0.879802 19.7973 1.23334 22.3785C1.55413 24.7205 4.18915 25.8242 6.16463 24.5873C9.77842 22.3244 13.5528 19.343 17.1692 15.7766C20.8846 12.1126 22.9202 9.32331 24.7157 6.18469C25.8045 4.28148 25.2945 1.74377 23.0897 1.18098C20.676 0.564855 17.5473 0.817638 14.7865 3.41376M2.51292 15.5132C1.50409 10.9878 5.04934 5.65755 13.3685 10.3311M2.51292 15.5132C3.26712 15.5285 4.96139 15.8698 6.57894 17.0226M6.93167 8.39649C7.00798 6.04837 9.32345 2.11587 14.7865 3.41376M14.7865 3.41376C15.956 3.6916 17.2697 4.20911 18.7365 5.03316" stroke="#F1A01E" stroke-width="1.815" stroke-linecap="round" stroke-linejoin="round"/>
</svg>
