<?xml version="1.0" encoding="UTF-8"?>
<svg version="1.1" xmlns="http://www.w3.org/2000/svg" width="512" height="512">
<path d="M0 0 C2.67982957 -0.00271614 5.35964819 -0.00620953 8.03947449 -0.01062012 C14.51385869 -0.01943654 20.98819608 -0.01762711 27.46258199 -0.01179484 C32.7322454 -0.00724746 38.00189585 -0.00667861 43.27156067 -0.00884247 C44.02630075 -0.00914893 44.78104084 -0.0094554 45.55865183 -0.00977115 C47.09268153 -0.01041071 48.62671122 -0.01105914 50.16074091 -0.01171634 C64.48969558 -0.01739692 78.81862451 -0.01089761 93.14757496 -0.0001156 C105.39836363 0.00881783 117.64911436 0.00726514 129.89990234 -0.00195312 C144.1833774 -0.01269614 158.46682998 -0.01684781 172.75030851 -0.0107286 C174.27817503 -0.01009161 175.80604156 -0.00946287 177.33390808 -0.00884247 C178.08532441 -0.00853392 178.83674074 -0.00822537 179.61092725 -0.00790747 C184.86414363 -0.00619257 190.11734556 -0.00906936 195.37055969 -0.01380157 C201.78694568 -0.01945547 208.20328285 -0.01780048 214.61966336 -0.00724009 C217.88299094 -0.00204323 221.14622236 -0.00092944 224.40955162 -0.00653839 C256.37868577 -0.05638011 292.68542545 0.40532636 317.40039062 23.70800781 C340.51399741 48.2879202 341.13605191 84.48316073 341.06152344 116.31738281 C341.06424386 118.31446458 341.0678106 120.31154535 341.07214355 122.30862427 C341.08114505 127.65989337 341.07777469 133.01108407 341.07138538 138.36235428 C341.06626109 144.00809158 341.07103445 149.65382293 341.07415771 155.29956055 C341.07777886 164.77393783 341.0730472 174.24828375 341.06347656 183.72265625 C341.05259563 194.61879331 341.05612252 205.51485547 341.06712937 216.41099072 C341.07625536 225.82826718 341.07746174 235.24552132 341.07225204 244.66280079 C341.06916134 250.26014747 341.0686419 255.85745915 341.07532501 261.45480347 C341.08117582 266.72129635 341.0769629 271.98769428 341.0655365 277.25417709 C341.06293069 279.16712157 341.06358336 281.08007428 341.06806183 282.99301529 C341.13411389 314.11747761 339.76235164 348.96068771 317.27148438 372.87597656 C306.51308616 383.25987357 293.95993141 388.45215878 279.67773438 392.00878906 C278.89865723 392.20754639 278.11958008 392.40630371 277.31689453 392.61108398 C259.04424542 396.84277848 240.13180818 396.54946483 221.49780273 396.51757812 C218.80649858 396.52029421 216.11520532 396.52378755 213.42390442 396.52819824 C206.92178181 396.53701486 200.4197058 396.53520524 193.91758149 396.52937296 C188.62597967 396.52482605 183.33439077 396.52425653 178.04278755 396.52642059 C177.28498338 396.52672706 176.52717921 396.52703353 175.74641128 396.52734928 C174.20617886 396.52798883 172.66594643 396.52863726 171.12571401 396.52929446 C156.73908563 396.534975 142.35248288 396.52847561 127.96585871 396.51769373 C115.66301734 396.50875848 103.36021373 396.51031449 91.05737305 396.51953125 C76.71494396 396.5302712 62.37253724 396.53442779 48.0301047 396.52830672 C46.49635828 396.52766973 44.96261186 396.52704099 43.42886543 396.52642059 C42.29738371 396.52595777 42.29738371 396.52595777 41.14304377 396.52548559 C35.86681529 396.52376992 30.59060118 396.52664915 25.31437492 396.5313797 C18.87160999 396.53703008 12.42889369 396.53538571 5.98613422 396.52481821 C2.70875376 396.51961704 -0.56853077 396.51851302 -3.84591293 396.52411652 C-21.38715696 396.55132272 -38.86703551 396.27409926 -56.07226562 392.44628906 C-56.8527124 392.27597168 -57.63315918 392.1056543 -58.43725586 391.93017578 C-77.53383921 387.56513019 -93.20768286 378.35964337 -104.45117188 362.07128906 C-118.72378459 339.08184576 -119.34456627 310.95748913 -119.35839844 284.75634766 C-119.36303512 282.69826673 -119.3680609 280.64018665 -119.3734436 278.58210754 C-119.38649297 273.0172006 -119.3929986 267.45230568 -119.39745426 261.88738585 C-119.40039879 258.39755439 -119.40450623 254.90772611 -119.40895844 251.41789627 C-119.42261746 240.46151763 -119.43229033 229.50514638 -119.43616033 218.54875982 C-119.44062886 205.97232013 -119.4581274 193.39598978 -119.48716092 180.8195833 C-119.50891061 171.05340847 -119.51887173 161.2872641 -119.52020144 151.52106535 C-119.52124057 145.70990694 -119.5269545 139.89885151 -119.54502106 134.08771896 C-119.79457872 48.94460563 -119.79457872 48.94460563 -96.07226562 23.57128906 C-70.70799225 -0.46028521 -32.60677714 -0.05604396 0 0 Z M-73.22851562 47.90332031 C-86.52757244 63.81469185 -86.19726562 87.62671716 -86.19726562 107.25878906 C43.49273437 107.25878906 173.18273437 107.25878906 306.80273438 107.25878906 C307.64353915 74.64796248 307.64353915 74.64796248 293.15820312 46.19238281 C282.47446222 37.42214774 268.63801621 35.02445274 255.21643066 34.08647156 C254.14135081 34.00670159 253.06627095 33.92693162 251.95861292 33.84474438 C239.7033714 33.00877276 227.46165506 32.98530823 215.18359375 33.01586914 C212.62624056 33.01479273 210.06888761 33.01284875 207.51153564 33.01011658 C201.3563373 33.00581862 195.20120747 33.0106304 189.04601663 33.01996688 C181.85035185 33.03047972 174.65469813 33.03027736 167.45902711 33.0297943 C154.61004314 33.02929656 141.76108429 33.03837891 128.91210938 33.05297852 C116.49153181 33.06708368 104.07097631 33.07414802 91.65039062 33.07348633 C90.88397772 33.07344637 90.11756482 33.07340642 89.32792729 33.07336525 C88.562733 33.07332489 87.7975387 33.07328454 87.0091567 33.07324296 C72.78907725 33.07255067 58.56900702 33.07845401 44.34893057 33.08739618 C39.35173527 33.0903925 34.35454168 33.09147331 29.35734558 33.09192848 C22.62002248 33.09268749 15.88272526 33.09909219 9.14540863 33.10909462 C6.68531687 33.11199459 4.22522249 33.11325012 1.76512909 33.11266708 C-38.35454623 31.50249658 -38.35454623 31.50249658 -73.22851562 47.90332031 Z M-86.19726562 140.25878906 C-98.06454512 235.44585091 -98.06454512 235.44585091 -72.53710938 349.05957031 C-59.58776243 360.94701181 -40.05951943 362.41246843 -23.31559753 362.39923096 C-22.13385415 362.40220208 -20.95211076 362.4051732 -19.73455697 362.40823436 C-16.47144697 362.41538274 -13.20836916 362.41809119 -9.94525254 362.41883183 C-6.41874683 362.42069105 -2.89225234 362.42824288 0.63424683 362.43496704 C8.33934699 362.44851785 16.04444192 362.4545705 23.74955201 362.4589777 C28.56866391 362.46174663 33.38777383 362.46598524 38.20688438 362.47048187 C51.57139491 362.48267217 64.93590385 362.49297074 78.30041981 362.49635696 C79.15493403 362.49657653 80.00944826 362.4967961 80.88985686 362.49702232 C82.17456386 362.49734973 82.17456386 362.49734973 83.48522455 362.49768376 C85.22053707 362.49812722 86.95584959 362.49857378 88.69116211 362.49902344 C89.5519231 362.49924487 90.41268409 362.4994663 91.29952874 362.49969444 C105.22480644 362.50363647 119.15003161 362.52107337 133.07528905 362.54438296 C147.40080334 362.56816718 161.72629137 362.58056208 176.0518257 362.58172488 C184.0833702 362.58263788 192.11484632 362.58829461 200.14637184 362.60654449 C206.99018066 362.62204151 213.83389997 362.62701006 220.67772303 362.61880639 C224.16163334 362.61493301 227.64536397 362.61566427 231.12925148 362.62986374 C263.91282628 363.30219865 263.91282628 363.30219865 293.06054688 350.03613281 C342.11411349 299.99269602 306.80273438 210.33444791 306.80273438 140.25878906 C177.11273438 140.25878906 47.42273438 140.25878906 -86.19726562 140.25878906 Z " fill="#EA495B" transform="translate(145.197265625,57.7412109375)"/>
<path d="M0 0 C0.85580154 -0.0049649 1.71160309 -0.00992981 2.59333801 -0.01504517 C5.42258512 -0.02964107 8.25177613 -0.03646497 11.08105469 -0.04199219 C13.05157472 -0.04774632 15.02209474 -0.05350402 16.99261475 -0.05926514 C21.12512472 -0.0697682 25.25761528 -0.07561523 29.39013672 -0.07910156 C34.67375431 -0.08458091 39.95711351 -0.10860001 45.24065018 -0.13707352 C49.31226337 -0.15574029 53.38381486 -0.16090768 57.45546722 -0.16243744 C59.40263021 -0.16545601 61.34979232 -0.17345758 63.29691315 -0.18662262 C66.02756636 -0.20376555 68.75759538 -0.20178268 71.48828125 -0.1953125 C72.28545059 -0.20452728 73.08261993 -0.21374207 73.90394592 -0.22323608 C80.02022687 -0.17806493 85.71981543 0.83747006 90.56152344 4.87988281 C91.0165625 5.46769531 91.47160156 6.05550781 91.94042969 6.66113281 C92.41351563 7.24894531 92.88660156 7.83675781 93.37402344 8.44238281 C95.96004885 12.37958414 95.96971369 16.61431086 95.50292969 21.16113281 C93.45825667 26.95437303 89.77676677 30.45154877 84.35151672 33.28459167 C80.50019996 34.46968363 76.79049964 34.4479791 72.80053711 34.43579102 C71.93483597 34.44090195 71.06913483 34.44601288 70.17720032 34.45127869 C67.3208623 34.46515622 64.46476613 34.46421899 61.60839844 34.46191406 C59.6168865 34.46580261 57.62537539 34.4701376 55.63386536 34.47489929 C51.4602286 34.482358 47.28667643 34.48207318 43.11303711 34.47680664 C37.77673911 34.47101901 32.44078898 34.48792771 27.10454845 34.51115131 C22.99089041 34.52591872 18.8773155 34.52675614 14.76363564 34.52364159 C12.79694239 34.5241535 10.83024433 34.52936676 8.86357689 34.53945351 C6.10666018 34.55185595 3.35041269 34.54500298 0.59350586 34.53344727 C-0.61391769 34.54491287 -0.61391769 34.54491287 -1.84573364 34.55661011 C-7.97852232 34.50008615 -13.74230928 33.5186228 -18.55566406 29.39941406 C-21.85913418 24.78578583 -23.94712082 20.9442818 -23.49707031 15.16113281 C-22.63678433 9.97986493 -20.69188716 6.95393274 -16.55957031 3.72363281 C-11.26150896 -0.02278051 -6.34481976 0.00880779 0 0 Z " fill="#EB4A5C" transform="translate(230.4970703125,334.8388671875)"/>
<path d="M0 0 C0.91807938 -0.00960754 1.83615875 -0.01921509 2.78205872 -0.02911377 C3.76752182 -0.03336365 4.75298492 -0.03761353 5.76831055 -0.04199219 C7.29973946 -0.0505423 7.29973946 -0.0505423 8.86210632 -0.05926514 C11.02150438 -0.06870522 13.18091678 -0.07524518 15.34033203 -0.07910156 C18.63233771 -0.08880033 21.92371712 -0.11983078 25.21557617 -0.15136719 C27.31648393 -0.15789837 29.41739615 -0.16314839 31.51831055 -0.16699219 C32.98739616 -0.18551239 32.98739616 -0.18551239 34.48616028 -0.20440674 C41.00388529 -0.18331824 46.25188348 0.39679024 51.3034668 4.91503906 C52.00342773 5.81029297 52.00342773 5.81029297 52.7175293 6.72363281 C53.19963867 7.32304687 53.68174805 7.92246094 54.1784668 8.54003906 C57.19118689 12.73560564 56.88915567 17.16450586 56.3425293 22.16113281 C53.95313109 27.03182916 50.65792892 30.01448725 46.3425293 33.16113281 C43.43389002 34.12175942 40.75216212 34.29628626 37.70092773 34.32226562 C36.32865021 34.33667694 36.32865021 34.33667694 34.9286499 34.35137939 C33.94632385 34.35562927 32.9639978 34.35987915 31.9519043 34.36425781 C30.4240329 34.37280792 30.4240329 34.37280792 28.86529541 34.38153076 C26.71009354 34.39097165 24.5548773 34.39751112 22.3996582 34.40136719 C19.11863698 34.41105572 15.83824688 34.44208121 12.55737305 34.47363281 C10.4597205 34.48016506 8.36206349 34.48541466 6.2644043 34.48925781 C5.29017517 34.50160461 4.31594604 34.51395142 3.31219482 34.52667236 C-3.35091556 34.50511171 -9.44352928 33.91158363 -14.71606445 29.39941406 C-18.01953457 24.78578583 -20.10752121 20.9442818 -19.6574707 15.16113281 C-18.79718472 9.97986493 -16.85228755 6.95393274 -12.7199707 3.72363281 C-8.55893635 0.78124436 -5.05178773 0.04285166 0 0 Z " fill="#EB4A5C" transform="translate(130.657470703125,334.8388671875)"/>
</svg>
