<svg width="28" height="29" viewBox="0 0 28 29" fill="none" xmlns="http://www.w3.org/2000/svg">
<path d="M25.6668 11.5609H2.3335C1.85516 11.5609 1.4585 11.1642 1.4585 10.6859C1.4585 10.2076 1.85516 9.81091 2.3335 9.81091H25.6668C26.1452 9.81091 26.5418 10.2076 26.5418 10.6859C26.5418 11.1642 26.1452 11.5609 25.6668 11.5609Z" fill="#2D3043"/>
<path d="M9.33333 20.8943H7C6.52167 20.8943 6.125 20.4976 6.125 20.0193C6.125 19.541 6.52167 19.1443 7 19.1443H9.33333C9.81167 19.1443 10.2083 19.541 10.2083 20.0193C10.2083 20.4976 9.81167 20.8943 9.33333 20.8943Z" fill="#2D3043"/>
<path d="M16.9167 20.8943H12.25C11.7717 20.8943 11.375 20.4976 11.375 20.0193C11.375 19.541 11.7717 19.1443 12.25 19.1443H16.9167C17.395 19.1443 17.7917 19.541 17.7917 20.0193C17.7917 20.4976 17.395 20.8943 16.9167 20.8943Z" fill="#2D3043"/>
<path d="M20.4868 25.561H7.5135C2.87016 25.561 1.4585 24.161 1.4585 19.5643V9.97433C1.4585 5.37766 2.87016 3.97766 7.5135 3.97766H20.4752C25.1185 3.97766 26.5302 5.37766 26.5302 9.97433V19.5527C26.5418 24.161 25.1302 25.561 20.4868 25.561ZM7.5135 5.72766C3.85016 5.72766 3.2085 6.35766 3.2085 9.97433V19.5527C3.2085 23.1693 3.85016 23.7993 7.5135 23.7993H20.4752C24.1385 23.7993 24.7802 23.1693 24.7802 19.5527V9.97433C24.7802 6.35766 24.1385 5.72766 20.4752 5.72766H7.5135Z" fill="#2D3043"/>
</svg>
