<svg width="18" height="21" viewBox="0 0 18 21" fill="none" xmlns="http://www.w3.org/2000/svg">
<path d="M16.96 7.46C16.29 6.72 15.28 6.29 13.88 6.14V5.38C13.88 4.01 13.3 2.69 12.28 1.77C11.25 0.83 9.90999 0.39 8.51999 0.52C6.12999 0.75 4.11999 3.06 4.11999 5.56V6.14C2.71999 6.29 1.70999 6.72 1.03999 7.46C0.0699899 8.54 0.09999 9.98 0.20999 10.98L0.90999 16.55C1.11999 18.5 1.90999 20.5 6.20999 20.5H11.79C16.09 20.5 16.88 18.5 17.09 16.56L17.79 10.97C17.9 9.98 17.92 8.54 16.96 7.46ZM8.65999 1.91C9.65999 1.82 10.61 2.13 11.35 2.8C12.08 3.46 12.49 4.4 12.49 5.38V6.08H5.50999V5.56C5.50999 3.78 6.97999 2.07 8.65999 1.91ZM5.41999 11.65H5.40999C4.85999 11.65 4.40999 11.2 4.40999 10.65C4.40999 10.1 4.85999 9.65 5.40999 9.65C5.96999 9.65 6.41999 10.1 6.41999 10.65C6.41999 11.2 5.96999 11.65 5.41999 11.65ZM12.42 11.65H12.41C11.86 11.65 11.41 11.2 11.41 10.65C11.41 10.1 11.86 9.65 12.41 9.65C12.97 9.65 13.42 10.1 13.42 10.65C13.42 11.2 12.97 11.65 12.42 11.65Z" fill="#FFFBF5"/>
</svg>
