<svg width="28" height="29" viewBox="0 0 28 29" fill="none" xmlns="http://www.w3.org/2000/svg">
<path d="M19.8335 25.561H8.16683C3.9085 25.561 1.4585 23.111 1.4585 18.8527V10.686C1.4585 6.42766 3.9085 3.97766 8.16683 3.97766H19.8335C24.0918 3.97766 26.5418 6.42766 26.5418 10.686V18.8527C26.5418 23.111 24.0918 25.561 19.8335 25.561ZM8.16683 5.72766C4.83016 5.72766 3.2085 7.34933 3.2085 10.686V18.8527C3.2085 22.1893 4.83016 23.811 8.16683 23.811H19.8335C23.1702 23.811 24.7918 22.1893 24.7918 18.8527V10.686C24.7918 7.34933 23.1702 5.72766 19.8335 5.72766H8.16683Z" fill="#2D3043"/>
<path d="M14 19.1443C11.585 19.1443 9.625 17.1843 9.625 14.7693C9.625 12.3543 11.585 10.3943 14 10.3943C16.415 10.3943 18.375 12.3543 18.375 14.7693C18.375 17.1843 16.415 19.1443 14 19.1443ZM14 12.1443C12.5533 12.1443 11.375 13.3226 11.375 14.7693C11.375 16.216 12.5533 17.3943 14 17.3943C15.4467 17.3943 16.625 16.216 16.625 14.7693C16.625 13.3226 15.4467 12.1443 14 12.1443Z" fill="#2D3043"/>
<path d="M5.25 13.311C4.77167 13.311 4.375 12.9143 4.375 12.436V10.686C4.375 8.59762 6.07833 6.89429 8.16667 6.89429H9.91667C10.395 6.89429 10.7917 7.29095 10.7917 7.76929C10.7917 8.24762 10.395 8.64429 9.91667 8.64429H8.16667C7.04667 8.64429 6.125 9.56595 6.125 10.686V12.436C6.125 12.9143 5.72833 13.311 5.25 13.311Z" fill="#2D3043"/>
<path d="M22.7502 13.311C22.2718 13.311 21.8752 12.9143 21.8752 12.436V10.686C21.8752 9.56595 20.9535 8.64429 19.8335 8.64429H18.0835C17.6052 8.64429 17.2085 8.24762 17.2085 7.76929C17.2085 7.29095 17.6052 6.89429 18.0835 6.89429H19.8335C21.9218 6.89429 23.6252 8.59762 23.6252 10.686V12.436C23.6252 12.9143 23.2285 13.311 22.7502 13.311Z" fill="#2D3043"/>
<path d="M9.91667 22.6443H8.16667C6.07833 22.6443 4.375 20.941 4.375 18.8527V17.1027C4.375 16.6243 4.77167 16.2277 5.25 16.2277C5.72833 16.2277 6.125 16.6243 6.125 17.1027V18.8527C6.125 19.9727 7.04667 20.8943 8.16667 20.8943H9.91667C10.395 20.8943 10.7917 21.291 10.7917 21.7693C10.7917 22.2477 10.395 22.6443 9.91667 22.6443Z" fill="#2D3043"/>
<path d="M19.8335 22.6443H18.0835C17.6052 22.6443 17.2085 22.2477 17.2085 21.7693C17.2085 21.291 17.6052 20.8943 18.0835 20.8943H19.8335C20.9535 20.8943 21.8752 19.9727 21.8752 18.8527V17.1027C21.8752 16.6243 22.2718 16.2277 22.7502 16.2277C23.2285 16.2277 23.6252 16.6243 23.6252 17.1027V18.8527C23.6252 20.941 21.9218 22.6443 19.8335 22.6443Z" fill="#2D3043"/>
</svg>
