<svg width="22" height="22" viewBox="0 0 22 22" fill="none" xmlns="http://www.w3.org/2000/svg">
<path fill-rule="evenodd" clip-rule="evenodd" d="M15.6949 3.55519C15.6812 3.55027 15.6672 3.54568 15.6531 3.54141C14.6335 3.23344 13.6285 3.45778 12.7806 3.81595C12.1397 4.08664 11.5312 4.45852 10.9984 4.81677C10.4656 4.45852 9.85708 4.08664 9.21625 3.81595C8.36983 3.45843 7.36692 3.23425 6.34924 3.53974L6.34349 3.54146C2.92774 4.57414 1.78236 8.05955 2.77643 10.9656L2.78289 10.9841L2.78574 10.9918C3.31869 12.4325 4.19049 13.7345 5.33091 14.7999L5.3385 14.8068C6.87208 16.2054 8.5618 17.4397 10.3772 18.4881L10.5842 18.6044C10.8493 18.7534 11.1735 18.7507 11.4362 18.5974L11.6236 18.488L11.6254 18.487C13.4402 17.4389 15.1294 16.205 16.6625 14.8068L16.67 14.7998C17.8112 13.7338 18.6834 12.4308 19.2163 10.9888L19.2231 10.9697C20.216 8.07336 19.0755 4.6046 15.6949 3.55519ZM14.6893 6.75496C14.2384 6.61091 13.7561 6.85969 13.612 7.31063C13.468 7.76157 13.7168 8.2439 14.1677 8.38795C14.7465 8.57282 15.165 9.09561 15.2174 9.71924C15.257 10.191 15.6716 10.5412 16.1433 10.5016C16.615 10.4619 16.9653 10.0474 16.9256 9.57564C16.8159 8.27021 15.9368 7.15345 14.6893 6.75496Z" fill="#E56953"/>
</svg>
