<svg width="22" height="25" viewBox="0 0 22 25" fill="none" xmlns="http://www.w3.org/2000/svg">
<g clip-path="url(#clip0_20_3431)">
<path d="M11.25 5.58879C10.834 5.58879 10.4937 5.24848 10.4937 4.83254V4.07629C10.4937 1.98715 12.1858 0.295044 14.275 0.295044H15.0312C15.4472 0.295044 15.7875 0.635356 15.7875 1.05129V1.80754C15.7875 3.89668 14.0954 5.58879 12.0062 5.58879H11.25ZM0.662476 13.9075C0.662476 10.3012 2.34986 6.34504 5.95623 6.34504C7.24658 6.34504 8.77798 6.83188 9.86509 7.25727C10.7537 7.60231 11.751 7.60231 12.6396 7.25727C13.722 6.83661 15.2581 6.34504 16.5485 6.34504C20.1548 6.34504 21.8422 10.3012 21.8422 13.9075C21.8422 19.9575 18.061 24.495 14.2797 24.495C13.4998 24.495 12.4789 24.1831 11.8455 23.9609C11.4627 23.8286 11.0467 23.8286 10.6639 23.9609C10.0305 24.1831 9.00959 24.495 8.2297 24.495C4.44373 24.495 0.662476 19.9575 0.662476 13.9075Z" fill="#F97316"/>
</g>
<defs>
<clipPath id="clip0_20_3431">
<path d="M0.662476 0.295044H21.8375V24.495H0.662476V0.295044Z" fill="white"/>
</clipPath>
</defs>
</svg>
