<?xml version="1.0" encoding="UTF-8"?>
<svg version="1.1" xmlns="http://www.w3.org/2000/svg" width="512" height="512">
<path d="M0 0 C0.81791016 0.5367334 1.63582031 1.0734668 2.47851562 1.62646484 C3.19209229 2.11155518 3.90566895 2.59664551 4.64086914 3.09643555 C6.82373254 4.13945635 6.82373254 4.13945635 9.27563477 3.1953125 C11.67068185 1.94877978 13.98420384 0.65786942 16.27929688 -0.76416016 C47.19004233 -19.6385806 81.48645068 -36.55315504 118.62695312 -28.20947266 C137.10088955 -23.57660764 154.96332475 -15.08892831 169.78710938 -3.11181641 C170.61637939 -2.44859375 170.61637939 -2.44859375 171.46240234 -1.77197266 C179.57536166 4.76266743 186.5262076 11.50370109 192.78710938 19.88818359 C193.43808594 20.70158203 194.0890625 21.51498047 194.75976562 22.35302734 C217.4717799 51.65739567 225.41875786 90.68140162 220.96728516 127.03173828 C215.624198 164.90876253 197.70126401 199.37634536 173.78710938 228.88818359 C173.34173828 229.43796875 172.89636719 229.98775391 172.4375 230.55419922 C161.9638025 243.36195061 150.33047433 255.10733368 137.78710938 265.88818359 C136.66964945 266.86182935 135.55244833 267.83577225 134.43554688 268.81005859 C127.02401279 275.22965624 119.46049389 281.3983731 111.70458984 287.39599609 C109.64991908 288.99494538 107.61048968 290.61207941 105.57226562 292.23193359 C95.62825968 300.10267189 85.4110363 307.40945136 74.88085938 314.47314453 C73.06507649 315.70032243 71.26502186 316.94474101 69.47460938 318.20849609 C55.53620178 328.04523687 41.06955398 337.12783099 26.28710938 345.63818359 C25.42150391 346.13938721 24.55589844 346.64059082 23.6640625 347.15698242 C15.87678261 351.57926479 9.71783298 354.23145244 0.78710938 351.88818359 C-37.05497269 335.86538421 -72.86731121 306.28092339 -104.44384766 280.33691406 C-106.04655295 279.02440327 -107.65850281 277.72320111 -109.27148438 276.42333984 C-114.91752784 271.86646221 -120.33723214 267.12417746 -125.67382812 262.20849609 C-127.75783966 260.30403017 -129.87160148 258.46203057 -132.02539062 256.63818359 C-141.98463671 247.94945861 -151.19486076 238.39141032 -159.21289062 227.88818359 C-159.72287598 227.23285645 -160.23286133 226.5775293 -160.75830078 225.90234375 C-190.68994049 187.32014073 -211.23276221 140.17250275 -205.67773438 90.49755859 C-201.99313252 62.33058775 -191.91350994 36.45479821 -173.21289062 14.88818359 C-172.478125 14.00904297 -171.74335938 13.12990234 -170.98632812 12.22412109 C-123.80475653 -42.33437374 -55.44553869 -37.64126936 0 0 Z M76.78710938 60.88818359 C72.85780322 66.19146281 72.10384679 71.47232775 72.33398438 77.98193359 C73.20417445 83.56315273 75.86980157 87.14548775 79.97460938 90.87646484 C82.75098314 92.8623433 85.41792273 94.22491825 88.51049805 95.62573242 C99.50714918 100.62607946 106.05593922 106.67483759 110.84179688 117.98974609 C111.83301728 121.02894254 112.34879943 123.91188272 112.78710938 127.07568359 C113.69247293 133.48798328 115.64584765 138.12663483 120.56445312 142.45068359 C126.51865233 146.88171556 131.5713586 147.63870745 138.78710938 146.88818359 C145.97775526 144.79038532 150.49445592 139.84822138 154.16210938 133.51318359 C157.79391236 118.25961105 150.75616534 101.02457586 143.09179688 88.00927734 C141.42434176 85.53136148 139.67085465 83.20542674 137.78710938 80.88818359 C137.1090625 80.04771484 136.43101562 79.20724609 135.73242188 78.34130859 C126.16305408 67.10326101 110.61033003 55.55889085 95.47851562 53.58740234 C88.09941341 53.54678343 82.10717879 55.56811418 76.78710938 60.88818359 Z " fill="#EF7C86" transform="translate(248.212890625,96.11181640625)"/>
</svg>
