<svg width="24" height="24" viewBox="0 0 24 24" fill="none" xmlns="http://www.w3.org/2000/svg">
<path fill-rule="evenodd" clip-rule="evenodd" d="M17.4775 3.31451C17.4614 3.30877 17.4452 3.30341 17.4287 3.29843C16.2392 2.93913 15.0667 3.20086 14.0774 3.61873C13.3298 3.93453 12.6198 4.3684 11.9982 4.78635C11.3766 4.3684 10.6667 3.93453 9.91904 3.61873C8.93155 3.20162 7.76149 2.94008 6.57419 3.29648L6.56749 3.29849C2.58244 4.50328 1.24617 8.56959 2.40591 11.96L2.41345 11.9815L2.41677 11.9906C3.03856 13.6714 4.05566 15.1904 5.38614 16.4333L5.39499 16.4414C7.18417 18.0731 9.15551 19.5131 11.2735 20.7362L11.5149 20.8719C11.8243 21.0457 12.2025 21.0426 12.509 20.8638L12.7277 20.7361L12.7297 20.7349C14.8469 19.5122 16.8177 18.0726 18.6063 16.4414L18.615 16.4332C19.9464 15.1895 20.9641 13.6693 21.5857 11.9871L21.5937 11.9648C22.7521 8.5857 21.4215 4.53883 17.4775 3.31451ZM16.3043 7.04757C15.7782 6.87951 15.2155 7.16976 15.0474 7.69586C14.8794 8.22195 15.1696 8.78467 15.6957 8.95273C16.3709 9.16841 16.8592 9.77833 16.9204 10.5059C16.9666 11.0562 17.4503 11.4649 18.0006 11.4186C18.551 11.3724 18.9596 10.8887 18.9133 10.3384C18.7853 8.81537 17.7597 7.51248 16.3043 7.04757Z" fill="#ADB7F7"/>
</svg>
