<svg width="24" height="24" viewBox="0 0 24 24" fill="none" xmlns="http://www.w3.org/2000/svg">
<path fill-rule="evenodd" clip-rule="evenodd" d="M12 22C17.5228 22 22 17.5228 22 12C22 6.47715 17.5228 2 12 2C6.47715 2 2 6.47715 2 12C2 17.5228 6.47715 22 12 22Z" fill="#ADB7F7"/>
<path d="M11.9979 15C12.55 15.0003 12.9979 15.4479 12.9979 16C12.9979 16.5521 12.55 16.9997 11.9979 17C11.4456 17 10.9979 16.5523 10.9979 16C10.9979 15.4477 11.4456 15 11.9979 15ZM11.9999 7C13.6568 7 14.9999 8.34315 14.9999 10C14.9999 11.0977 14.3265 11.994 13.4999 12.5C13.2401 12.6591 13.1457 12.9237 13.0516 13.1865C12.9052 13.595 12.7597 13.9998 11.9979 14C11.4456 14 10.9979 13.5523 10.9979 13C10.9979 12.9651 10.9993 12.9305 11.0028 12.8965C11.0306 12.3677 11.2666 11.9369 11.5233 11.624C11.7945 11.2936 12.151 11.0234 12.4237 10.8613C13.9398 9.95967 12.0906 8.11579 11.1337 9.50098C10.8571 9.97903 10.2445 10.1417 9.76648 9.86523C9.28879 9.58855 9.12577 8.97693 9.40222 8.49902C9.91943 7.60513 10.8884 7.00006 11.9999 7Z" fill="#2D3043"/>
</svg>
