<?xml version="1.0" encoding="UTF-8"?>
<svg version="1.1" xmlns="http://www.w3.org/2000/svg" width="512" height="512">
<path d="M0 0 C26.74234431 13.61587628 55.79545283 19.78759567 85.69726562 19.71118164 C86.50413818 19.71063782 87.31101074 19.71009399 88.14233398 19.70953369 C101.99714276 19.66682256 115.245977 18.5714585 128.75976562 15.33618164 C129.64970215 15.12719238 130.53963867 14.91820312 131.45654297 14.70288086 C146.89985165 10.96049257 161.25109669 4.92049513 175.54101562 -1.94897461 C176.29672852 -2.3113623 177.05244141 -2.67375 177.83105469 -3.04711914 C179.22366971 -3.72095505 180.6116045 -4.40460841 181.99316406 -5.10083008 C192.50547029 -10.24933029 204.7616893 -11.50037444 216.13476562 -8.53881836 C237.44110933 -1.07636737 251.80793402 26.93915661 260.96386719 45.8190918 C272.17466755 70.04050168 278.83677503 96.05766733 278.96289062 122.80493164 C278.9685907 123.76588745 278.97429077 124.72684326 278.98016357 125.71691895 C278.98954115 127.733713 278.9961184 129.75052187 279 131.76733398 C279.0097406 134.82831648 279.04084736 137.88863629 279.07226562 140.94946289 C279.0787944 142.92211521 279.08404537 144.89477226 279.08789062 146.86743164 C279.10023743 147.76876831 279.11258423 148.67010498 279.12530518 149.59875488 C279.08261037 161.94586226 274.49092856 172.37598665 266.25976562 181.52368164 C254.40293631 192.70038691 239.6759579 194.65155913 224.04589844 194.59014893 C222.81102818 194.59326891 221.57615791 194.59638889 220.30386734 194.59960341 C216.90660242 194.60616063 213.50956133 194.60385478 210.11231041 194.59763098 C206.4367232 194.59308181 202.76115471 194.60010241 199.08557129 194.60559082 C191.89708702 194.61446028 184.70864464 194.61257375 177.52015877 194.60676554 C171.67526024 194.6022394 165.83037341 194.60164026 159.98547363 194.60381317 C158.7352345 194.60427287 158.7352345 194.60427287 157.45973802 194.60474186 C155.76624393 194.60538134 154.07274985 194.60602977 152.37925577 194.60668704 C136.51835735 194.61238316 120.65748209 194.60584371 104.79658747 194.59508631 C91.20227068 194.58615145 77.60798805 194.58770369 64.01367188 194.59692383 C48.20754815 194.60763915 32.40144469 194.61183391 16.59531784 194.6056993 C14.9082311 194.60506224 13.22114436 194.60443349 11.53405762 194.60381317 C10.28910471 194.60335034 10.28910471 194.60335034 9.01900125 194.60287817 C3.18457822 194.60115501 -2.6498319 194.60405814 -8.48425293 194.60877228 C-15.59939877 194.61439514 -22.71450052 194.61283518 -29.82964134 194.60221079 C-33.4563324 194.59697295 -37.08295007 194.59486495 -40.7096405 194.60150909 C-44.64859044 194.60861589 -48.58742153 194.60010093 -52.52636719 194.59014893 C-53.661889 194.59461037 -54.79741081 194.59907181 -55.96734238 194.60366845 C-71.51412629 194.52768315 -83.93432599 191.19236211 -95.34179688 180.33618164 C-102.23723356 173.10501209 -107.31024533 164.07971509 -107.40136719 153.90087891 C-107.41097473 153.02798721 -107.42058228 152.15509552 -107.43048096 151.25575256 C-107.43685577 149.84343605 -107.43685577 149.84343605 -107.44335938 148.40258789 C-107.44905945 147.41483871 -107.45475952 146.42708954 -107.46063232 145.40940857 C-107.47008398 143.30875719 -107.47661696 141.20809098 -107.48046875 139.10742188 C-107.49001977 135.96919635 -107.52097407 132.83167095 -107.55273438 129.69360352 C-107.8002351 82.82234184 -91.57717866 36.18843734 -59.41992188 1.52758789 C-41.81468087 -16.17230494 -19.94323004 -10.27579346 0 0 Z " fill="#EB434A" transform="translate(170.240234375,276.663818359375)"/>
<path d="M0 0 C19.43538624 15.72897199 32.77119483 36.34957994 35.7421875 61.5234375 C37.25392468 85.56181656 30.97838405 108.41193422 15.04785156 126.81713867 C-0.18646842 143.91610258 -21.0094863 156.18716251 -44.26098633 157.64941406 C-69.53688423 158.58216937 -92.03094956 151.09517375 -110.76806641 133.92285156 C-126.82639753 118.83823111 -137.64049173 97.66221003 -138.4609375 75.4296875 C-138.91236819 49.99717527 -130.67360593 28.06341858 -113.2578125 9.5234375 C-83.98942857 -20.52974537 -33.80103817 -26.33821353 0 0 Z " fill="#F06E72" transform="translate(307.2578125,57.4765625)"/>
</svg>
