<svg width="25" height="25" viewBox="0 0 25 25" fill="none" xmlns="http://www.w3.org/2000/svg">
<path d="M7.62927 12.8299C7.62927 13.2316 7.46857 13.6145 7.18498 13.8981L5.91826 15.1648C5.33689 15.7462 4.38212 15.7036 3.58333 15.5051C3.36591 15.4484 3.13904 15.42 2.90271 15.42C1.33822 15.42 0.0667725 16.6915 0.0667725 18.256C0.0667725 19.8205 1.33822 21.0919 2.90271 21.0919C3.20048 21.0919 3.4699 21.3613 3.4699 21.6591C3.4699 23.2236 4.74134 24.495 6.30583 24.495C7.87033 24.495 9.14177 23.2236 9.14177 21.6591C9.14177 21.4228 9.11341 21.1959 9.05669 20.9738C8.85818 20.175 8.81091 19.2202 9.39701 18.6388L10.6637 17.3721C10.9473 17.0885 11.3302 16.9278 11.7319 16.9278H15.948C16.2458 16.9278 16.5341 16.9136 16.8224 16.8806C17.3849 16.8238 17.5976 16.1479 17.3329 15.6516C16.9311 14.9048 16.7043 14.0541 16.7043 13.1466C16.7043 10.2208 19.0723 7.85282 21.998 7.85282C22.3761 7.85282 22.7401 7.89063 23.0946 7.96626C23.6476 8.08442 24.2337 7.68739 24.1344 7.13438C23.4396 3.24915 20.0365 0.295044 15.948 0.295044C11.3538 0.295044 7.62927 4.01958 7.62927 8.61379V12.8299Z" fill="#EF4444"/>
</svg>
