<svg width="16" height="16" viewBox="0 0 16 16" fill="none" xmlns="http://www.w3.org/2000/svg">
<path d="M8.69991 10.8332H7.44659C6.55993 10.8332 5.83325 10.0866 5.83325 9.16657C5.83325 8.89324 6.05992 8.66657 6.33325 8.66657C6.60659 8.66657 6.83325 8.89324 6.83325 9.16657C6.83325 9.53324 7.10659 9.83324 7.44659 9.83324H8.69991C8.95991 9.83324 9.16659 9.59991 9.16659 9.31324C9.16659 8.95324 9.06659 8.89991 8.83993 8.81991L6.83325 8.1199C6.40659 7.96657 5.83325 7.65991 5.83325 6.67991C5.83325 5.84658 6.49326 5.15991 7.29993 5.15991H8.55324C9.43991 5.15991 10.1666 5.90658 10.1666 6.82658C10.1666 7.09991 9.93992 7.32658 9.66659 7.32658C9.39325 7.32658 9.16659 7.09991 9.16659 6.82658C9.16659 6.45991 8.89324 6.15991 8.55324 6.15991H7.29993C7.03993 6.15991 6.83325 6.39324 6.83325 6.67991C6.83325 7.03991 6.93325 7.09324 7.15991 7.17324L9.16659 7.87324C9.59325 8.02657 10.1666 8.33324 10.1666 9.31324C10.1666 10.1532 9.50658 10.8332 8.69991 10.8332Z" fill="#292D32"/>
<path d="M8 11.5C7.72667 11.5 7.5 11.2733 7.5 11V5C7.5 4.72667 7.72667 4.5 8 4.5C8.27333 4.5 8.5 4.72667 8.5 5V11C8.5 11.2733 8.27333 11.5 8 11.5Z" fill="#292D32"/>
<path d="M7.99992 15.1668C4.04659 15.1668 0.833252 11.9535 0.833252 8.00016C0.833252 4.04683 4.04659 0.833496 7.99992 0.833496C8.27325 0.833496 8.49992 1.06016 8.49992 1.3335C8.49992 1.60683 8.27325 1.8335 7.99992 1.8335C4.59992 1.8335 1.83325 4.60016 1.83325 8.00016C1.83325 11.4002 4.59992 14.1668 7.99992 14.1668C11.3999 14.1668 14.1666 11.4002 14.1666 8.00016C14.1666 7.72683 14.3933 7.50016 14.6666 7.50016C14.9399 7.50016 15.1666 7.72683 15.1666 8.00016C15.1666 11.9535 11.9533 15.1668 7.99992 15.1668Z" fill="#292D32"/>
<path d="M14.6667 4.50016C14.3933 4.50016 14.1667 4.2735 14.1667 4.00016V1.8335H12C11.7267 1.8335 11.5 1.60683 11.5 1.3335C11.5 1.06016 11.7267 0.833496 12 0.833496H14.6667C14.94 0.833496 15.1667 1.06016 15.1667 1.3335V4.00016C15.1667 4.2735 14.94 4.50016 14.6667 4.50016Z" fill="#292D32"/>
<path d="M11.3333 5.16638C11.2066 5.16638 11.08 5.11972 10.98 5.01972C10.7866 4.82638 10.7866 4.50638 10.98 4.31305L14.3133 0.979717C14.5066 0.786383 14.8266 0.786383 15.02 0.979717C15.2133 1.17305 15.2133 1.49305 15.02 1.68638L11.6866 5.01972C11.5866 5.11972 11.46 5.16638 11.3333 5.16638Z" fill="#292D32"/>
</svg>
