<svg width="24" height="24" viewBox="0 0 24 24" fill="none" xmlns="http://www.w3.org/2000/svg">
<path d="M17.5555 2H6.44439C5.21709 2 4.22217 2.99492 4.22217 4.22222V19.7778C4.22217 21.0051 5.21709 22 6.44439 22H17.5555C18.7828 22 19.7777 21.0051 19.7777 19.7778V4.22222C19.7777 2.99492 18.7828 2 17.5555 2Z" fill="#ADB7F7"/>
<path d="M9.22217 7H14.7777H9.22217ZM9.22217 10.3333H12.5555H9.22217ZM9.22217 13.6667H13.6666H9.22217ZM9.22217 17H12.5555H9.22217Z" fill="#2D3043"/>
<path d="M9.22217 7H14.7777M9.22217 10.3333H12.5555M9.22217 13.6667H13.6666M9.22217 17H12.5555" stroke="#2D3043" stroke-width="1.11111" stroke-linecap="round"/>
<mask id="path-4-inside-1_16_395" fill="white">
<path d="M7.55545 7.00001C7.55545 6.69319 7.30672 6.44446 6.99989 6.44446C6.69307 6.44446 6.44434 6.69319 6.44434 7.00001C6.44434 7.30684 6.69307 7.55557 6.99989 7.55557C7.30672 7.55557 7.55545 7.30684 7.55545 7.00001Z"/>
</mask>
<path d="M7.55545 7.00001C7.55545 6.69319 7.30672 6.44446 6.99989 6.44446C6.69307 6.44446 6.44434 6.69319 6.44434 7.00001C6.44434 7.30684 6.69307 7.55557 6.99989 7.55557C7.30672 7.55557 7.55545 7.30684 7.55545 7.00001Z" fill="#2D3043"/>
<path d="M6.99989 6.44446V7.55557C6.69307 7.55557 6.44434 7.30684 6.44434 7.00001H7.55545H8.66656C8.66656 6.07954 7.92037 5.33335 6.99989 5.33335V6.44446ZM7.55545 7.00001H6.44434C6.44434 6.69319 6.69307 6.44446 6.99989 6.44446V7.55557V8.66668C7.92037 8.66668 8.66656 7.92049 8.66656 7.00001H7.55545ZM6.99989 7.55557V6.44446C7.30672 6.44446 7.55545 6.69319 7.55545 7.00001H6.44434H5.33322C5.33322 7.92049 6.07942 8.66668 6.99989 8.66668V7.55557ZM6.44434 7.00001H7.55545C7.55545 7.30684 7.30672 7.55557 6.99989 7.55557V6.44446V5.33335C6.07942 5.33335 5.33322 6.07954 5.33322 7.00001H6.44434Z" fill="#2D3043" mask="url(#path-4-inside-1_16_395)"/>
<mask id="path-6-inside-2_16_395" fill="white">
<path d="M7.55545 10.3334C7.55545 10.0266 7.30672 9.77783 6.99989 9.77783C6.69307 9.77783 6.44434 10.0266 6.44434 10.3334C6.44434 10.6402 6.69307 10.8889 6.99989 10.8889C7.30672 10.8889 7.55545 10.6402 7.55545 10.3334Z"/>
</mask>
<path d="M7.55545 10.3334C7.55545 10.0266 7.30672 9.77783 6.99989 9.77783C6.69307 9.77783 6.44434 10.0266 6.44434 10.3334C6.44434 10.6402 6.69307 10.8889 6.99989 10.8889C7.30672 10.8889 7.55545 10.6402 7.55545 10.3334Z" fill="#2D3043"/>
<path d="M6.99989 9.77783V10.8889C6.69307 10.8889 6.44434 10.6402 6.44434 10.3334H7.55545H8.66656C8.66656 9.41291 7.92037 8.66672 6.99989 8.66672V9.77783ZM7.55545 10.3334H6.44434C6.44434 10.0266 6.69307 9.77783 6.99989 9.77783V10.8889V12.0001C7.92037 12.0001 8.66656 11.2539 8.66656 10.3334H7.55545ZM6.99989 10.8889V9.77783C7.30672 9.77783 7.55545 10.0266 7.55545 10.3334H6.44434H5.33322C5.33322 11.2539 6.07942 12.0001 6.99989 12.0001V10.8889ZM6.44434 10.3334H7.55545C7.55545 10.6402 7.30672 10.8889 6.99989 10.8889V9.77783V8.66672C6.07942 8.66672 5.33322 9.41291 5.33322 10.3334H6.44434Z" fill="#2D3043" mask="url(#path-6-inside-2_16_395)"/>
<mask id="path-8-inside-3_16_395" fill="white">
<path d="M7.55545 13.6666C7.55545 13.3598 7.30672 13.1111 6.99989 13.1111C6.69307 13.1111 6.44434 13.3598 6.44434 13.6666C6.44434 13.9735 6.69307 14.2222 6.99989 14.2222C7.30672 14.2222 7.55545 13.9735 7.55545 13.6666Z"/>
</mask>
<path d="M7.55545 13.6666C7.55545 13.3598 7.30672 13.1111 6.99989 13.1111C6.69307 13.1111 6.44434 13.3598 6.44434 13.6666C6.44434 13.9735 6.69307 14.2222 6.99989 14.2222C7.30672 14.2222 7.55545 13.9735 7.55545 13.6666Z" fill="#2D3043"/>
<path d="M6.99989 13.1111V14.2222C6.69307 14.2222 6.44434 13.9735 6.44434 13.6666H7.55545H8.66656C8.66656 12.7462 7.92037 12 6.99989 12V13.1111ZM7.55545 13.6666H6.44434C6.44434 13.3598 6.69307 13.1111 6.99989 13.1111V14.2222V15.3333C7.92037 15.3333 8.66656 14.5871 8.66656 13.6666H7.55545ZM6.99989 14.2222V13.1111C7.30672 13.1111 7.55545 13.3598 7.55545 13.6666H6.44434H5.33322C5.33322 14.5871 6.07942 15.3333 6.99989 15.3333V14.2222ZM6.44434 13.6666H7.55545C7.55545 13.9735 7.30672 14.2222 6.99989 14.2222V13.1111V12C6.07942 12 5.33322 12.7462 5.33322 13.6666H6.44434Z" fill="#2D3043" mask="url(#path-8-inside-3_16_395)"/>
<mask id="path-10-inside-4_16_395" fill="white">
<path d="M7.55545 17C7.55545 16.6932 7.30672 16.4445 6.99989 16.4445C6.69307 16.4445 6.44434 16.6932 6.44434 17C6.44434 17.3068 6.69307 17.5556 6.99989 17.5556C7.30672 17.5556 7.55545 17.3068 7.55545 17Z"/>
</mask>
<path d="M7.55545 17C7.55545 16.6932 7.30672 16.4445 6.99989 16.4445C6.69307 16.4445 6.44434 16.6932 6.44434 17C6.44434 17.3068 6.69307 17.5556 6.99989 17.5556C7.30672 17.5556 7.55545 17.3068 7.55545 17Z" fill="#2D3043"/>
<path d="M6.99989 16.4445V17.5556C6.69307 17.5556 6.44434 17.3068 6.44434 17H7.55545H8.66656C8.66656 16.0795 7.92037 15.3333 6.99989 15.3333V16.4445ZM7.55545 17H6.44434C6.44434 16.6932 6.69307 16.4445 6.99989 16.4445V17.5556V18.6667C7.92037 18.6667 8.66656 17.9205 8.66656 17H7.55545ZM6.99989 17.5556V16.4445C7.30672 16.4445 7.55545 16.6932 7.55545 17H6.44434H5.33322C5.33322 17.9205 6.07942 18.6667 6.99989 18.6667V17.5556ZM6.44434 17H7.55545C7.55545 17.3068 7.30672 17.5556 6.99989 17.5556V16.4445V15.3333C6.07942 15.3333 5.33322 16.0795 5.33322 17H6.44434Z" fill="#2D3043" mask="url(#path-10-inside-4_16_395)"/>
</svg>
