<?xml version="1.0" encoding="UTF-8"?>
<svg version="1.1" xmlns="http://www.w3.org/2000/svg" width="399" height="512">
<path d="M0 0 C1.07344965 -0.00445784 2.14689929 -0.00891569 3.25287771 -0.01350862 C5.02074062 -0.01323207 5.02074062 -0.01323207 6.82431793 -0.01294994 C8.70334549 -0.01846498 8.70334549 -0.01846498 10.62033319 -0.02409142 C14.09981477 -0.03410186 17.5792791 -0.03782668 21.05877304 -0.04048073 C24.81084932 -0.04438671 28.56291198 -0.05396495 32.31497955 -0.0626936 C41.3783333 -0.08245129 50.44168815 -0.09252403 59.50505805 -0.10142139 C63.77520047 -0.10580604 68.04534165 -0.11117245 72.31548309 -0.11641026 C86.51451866 -0.133423 100.71355346 -0.14791605 114.91259766 -0.155159 C118.59691621 -0.15706884 122.28123476 -0.15898918 125.96555328 -0.16094494 C126.8812529 -0.16142868 127.79695252 -0.16191242 128.74040061 -0.16241082 C143.5662899 -0.17070691 158.3920984 -0.1960365 173.21795243 -0.22852562 C188.44618574 -0.26162382 203.67437803 -0.27961031 218.9026475 -0.28280324 C227.44992743 -0.28496594 235.99708959 -0.2936793 244.54433441 -0.31926441 C251.82543222 -0.34100929 259.10638365 -0.34900332 266.38751024 -0.33929763 C270.09942755 -0.33476364 273.8110431 -0.336586 277.5229187 -0.35605907 C281.55621273 -0.37703459 285.58884238 -0.36667102 289.62216949 -0.35352612 C291.36326374 -0.36997998 291.36326374 -0.36997998 293.13953161 -0.38676625 C307.94657589 -0.27065887 321.16832886 5.62787506 331.98117828 15.69672108 C342.8230647 27.1496639 348.84679215 41.51075762 348.86260605 57.27055168 C348.86465868 57.96918995 348.86671132 58.66782822 348.86882615 59.38763735 C348.87447973 61.72823702 348.87304093 64.06877754 348.87162018 66.40938282 C348.87420476 68.10471458 348.87721818 69.80004574 348.88062358 71.49537605 C348.88868598 76.15417344 348.89048273 80.81295542 348.89122105 85.47175896 C348.89307294 90.49649317 348.900621 95.52121939 348.90735626 100.54594898 C348.92093503 111.53371835 348.92696368 122.52148406 348.93136692 133.50926042 C348.93413029 140.37159792 348.93836784 147.23393401 348.94287109 154.09627056 C348.9550635 173.100126 348.96536265 192.10398032 348.96874619 211.10783958 C348.96896575 212.32401439 348.96918532 213.54018919 348.96941154 214.79321777 C348.96962981 216.01228677 348.96984809 217.23135577 348.97007298 218.48736626 C348.97051645 220.9576232 348.97096301 223.42788015 348.97141266 225.89813709 C348.97163409 227.12346733 348.97185552 228.34879758 348.97208366 229.61125904 C348.97603069 249.46081496 348.99348195 269.31033414 349.01677218 289.15987588 C349.04049686 309.54442376 349.05294856 329.92895322 349.0541141 350.31351513 C349.05503027 361.75649767 349.06076787 373.19943235 349.07893372 384.6424017 C349.09434979 394.38753083 349.09944628 404.13259732 349.09119561 413.87773634 C349.08729438 418.84741468 349.08819299 423.81696693 349.10225296 428.78662968 C349.11502339 433.34226849 349.11376684 437.89768686 349.10166225 442.4533255 C349.09971068 444.09536063 349.10275854 445.73741154 349.11150661 447.37942452 C349.20626737 466.37945387 345.5404651 481.85262485 332.04367828 495.91937733 C319.82584585 507.621254 307.04876116 512.44610547 290.32196808 512.40164661 C289.07150889 512.40617773 287.82104969 512.41070884 286.5326978 512.41537726 C283.07330132 512.4275788 279.61400177 512.42735016 276.1545887 512.42498851 C272.41889846 512.42457961 268.68323899 512.43562659 264.94756317 512.44510365 C257.63220313 512.46169995 250.31687532 512.46721261 243.00149803 512.4683284 C237.05211479 512.46927971 231.10274216 512.47339413 225.15336227 512.47972965 C208.27194633 512.49733981 191.39055578 512.5065691 174.50913058 512.5050687 C173.59949617 512.50498879 172.68986175 512.50490888 171.75266266 512.50482655 C170.84191247 512.50474478 169.93116228 512.50466302 168.9928136 512.50457878 C154.24215041 512.50376637 139.49158945 512.52289329 124.74095581 512.55110328 C109.5815478 512.5798653 94.42218959 512.59364169 79.26275361 512.59191573 C70.75741199 512.59125288 62.25217749 512.59669871 53.7468605 512.61827183 C46.50318545 512.63652754 39.25966606 512.64079521 32.0159779 512.62725298 C28.32417399 512.62074482 24.6326683 512.62052735 20.94089317 512.63795948 C16.92780247 512.65671284 12.9153954 512.64407945 8.90229034 512.6286974 C7.17447132 512.64412808 7.17447132 512.64412808 5.41174686 512.65987051 C-10.61157678 512.52478329 -23.40021703 506.38673943 -34.94850922 495.54437733 C-44.27384269 485.85796192 -50.38400657 473.62390825 -50.40304279 460.10342979 C-50.40539502 459.39190385 -50.40774725 458.68037791 -50.41017076 457.94729057 C-50.4168549 455.55080965 -50.41640272 453.15438302 -50.41599274 450.75789356 C-50.41929174 449.02716455 -50.42301738 447.29643631 -50.42713422 445.56570905 C-50.43715844 440.7997807 -50.4408717 436.03386493 -50.44352353 431.26792753 C-50.4474254 426.13136311 -50.45700391 420.99480867 -50.46573639 415.85825062 C-50.48550548 403.44743765 -50.49556818 391.03662387 -50.50446418 378.62579909 C-50.50884689 372.78129486 -50.51421379 366.93679153 -50.51945305 361.09228802 C-50.53646678 341.66302809 -50.55096046 322.23376872 -50.55820179 302.80450249 C-50.56011169 297.76165803 -50.56203202 292.71881357 -50.56398773 287.67596912 C-50.56447147 286.42259235 -50.56495521 285.16921557 -50.56545361 283.87785768 C-50.57375203 263.57873976 -50.59908514 243.2796808 -50.63156841 222.98058862 C-50.66464689 202.13957932 -50.68265132 181.29859998 -50.68584603 160.45756429 C-50.68801053 148.75631711 -50.6967504 137.05515588 -50.72230721 125.35393429 C-50.74402504 115.38732894 -50.7520593 105.42083042 -50.74234042 95.45420409 C-50.73779873 90.37108841 -50.73967448 85.28819309 -50.75910187 80.20510769 C-50.77675568 75.5457134 -50.77571777 70.88669987 -50.76020458 66.22730141 C-50.75783186 64.54751917 -50.76213449 62.8677104 -50.77403323 61.18796862 C-50.89513453 42.953039 -46.29904331 28.89627262 -33.67897797 15.45453358 C-24.73513706 6.84409355 -12.65490825 0.02440062 0 0 Z " fill="#EF7C86" transform="translate(50.268821716308594,-0.13422107696533203)"/>
<path d="M0 0 C1.27715378 -0.00990463 2.55430756 -0.01980927 3.87016296 -0.03001404 C5.27815343 -0.02577626 6.68614296 -0.02121843 8.09413147 -0.01637268 C9.58265699 -0.02207734 11.07117813 -0.02904198 12.55969238 -0.03717041 C16.59692363 -0.0551066 20.63393758 -0.05393259 24.6711967 -0.04822803 C28.04348838 -0.04513678 31.41573828 -0.05122792 34.78802401 -0.05726677 C42.74458739 -0.07131194 50.7010434 -0.06975084 58.65760803 -0.05836487 C66.86187804 -0.04688376 75.06582115 -0.06095909 83.27004808 -0.08776134 C90.31819075 -0.10992342 97.36623085 -0.11655458 104.41440588 -0.11068493 C108.62210357 -0.10731533 112.82959172 -0.10973048 117.03726006 -0.12693596 C120.99447297 -0.1424112 124.95120193 -0.13844352 128.90839577 -0.11963081 C130.35879296 -0.11594647 131.80922605 -0.11904898 133.25959015 -0.1295166 C135.24309157 -0.14273658 137.22671815 -0.12876468 139.21020508 -0.11352539 C140.3190805 -0.11331611 141.42795591 -0.11310682 142.57043362 -0.1128912 C147.14754224 0.62663434 150.19188098 2.96188783 153.48109436 6.13768005 C156.05347593 11.01166619 156.07912106 15.01925772 154.54359436 20.13768005 C152.2420414 24.12703852 149.76465876 26.33964785 145.66859436 28.38768005 C143.68041683 28.49019149 141.68875609 28.52719523 139.69795227 28.53485107 C138.42492249 28.54200638 137.1518927 28.54916168 135.84028625 28.55653381 C134.42140222 28.55937422 133.00251792 28.56208593 131.58363342 28.56468201 C130.095554 28.57094564 128.60747615 28.57759235 127.11940002 28.58459473 C123.06966342 28.60201474 119.01993863 28.61255941 114.97017384 28.62080026 C112.44038246 28.62594876 109.91059475 28.63202459 107.38080597 28.63831139 C99.46680447 28.65736708 91.55281232 28.67159687 83.63879228 28.67992336 C74.50148111 28.68969532 65.36441223 28.71601208 56.22718644 28.75642425 C49.16638681 28.78658163 42.10565663 28.8013919 35.04479384 28.80470437 C30.82696146 28.80705548 26.60938779 28.81602344 22.39162445 28.84116554 C18.42218116 28.86444456 14.45316695 28.86868038 10.4836731 28.85840416 C9.02842532 28.85790863 7.57315645 28.86423435 6.11797333 28.87796021 C4.12778459 28.89567882 2.13740955 28.88618778 0.14717102 28.87542725 C-0.96560085 28.8778156 -2.07837273 28.88020395 -3.22486496 28.88266468 C-7.93977755 28.13140806 -11.08342799 25.80205473 -14.20640564 22.26268005 C-15.89624815 17.94419363 -15.99101547 13.96097486 -15.33140564 9.38768005 C-11.9326027 2.46419258 -7.5828004 0.01662196 0 0 Z " fill="#EA4A5C" transform="translate(129.33140563964844,113.61231994628906)"/>
<path d="M0 0 C1.49293831 -0.00856522 1.49293831 -0.00856522 3.01603699 -0.01730347 C4.6524691 -0.01898026 4.6524691 -0.01898026 6.32196045 -0.02069092 C8.04676384 -0.02813828 8.04676384 -0.02813828 9.80641174 -0.03573608 C13.61986891 -0.05037057 17.43328447 -0.05716216 21.24676514 -0.06268311 C23.89371746 -0.06843384 26.54066977 -0.07419159 29.18762207 -0.07995605 C34.03231143 -0.08952742 38.87699181 -0.09542407 43.72168946 -0.09845281 C50.84347682 -0.10292992 57.9650719 -0.12046217 65.08680081 -0.1494534 C70.59690785 -0.17110229 76.10696092 -0.18115883 81.61711001 -0.18249393 C84.9054626 -0.1835399 88.19359369 -0.19085753 91.48191071 -0.20731354 C95.15400223 -0.22437703 98.82562656 -0.22249258 102.4977417 -0.21600342 C103.58059952 -0.2252182 104.66345734 -0.23443298 105.77912903 -0.243927 C111.68877642 -0.21123014 115.97772698 0.22777792 121.16864014 3.14044189 C125.41718229 7.72439527 126.53431932 10.70926059 126.44598389 16.82403564 C125.87760092 21.57123423 123.20549204 24.22154248 119.75776672 27.27705383 C115.07869029 30.27668315 109.73854449 29.68887366 104.36761475 29.64215088 C103.18483444 29.64755386 102.00205414 29.65295685 100.78343201 29.65852356 C97.55191202 29.66886405 94.32106111 29.66133676 91.08958507 29.64481235 C87.70199756 29.6309225 84.31443985 29.63742627 80.92683411 29.64094543 C75.24001486 29.6436441 69.5534071 29.63020051 63.86663818 29.60699463 C57.29772402 29.58037408 50.72916305 29.57864303 44.16021341 29.59038299 C37.83196312 29.60117165 31.50384024 29.59496605 25.17560005 29.58082771 C22.4863031 29.57507858 19.79709972 29.57514206 17.10780144 29.57989311 C13.35174055 29.58280019 9.59625875 29.56632162 5.840271 29.54449463 C4.72688354 29.54899628 3.61349609 29.55349792 2.46636963 29.55813599 C1.44164047 29.54823135 0.41691132 29.53832672 -0.63887024 29.52812195 C-1.96977235 29.52447711 -1.96977235 29.52447711 -3.32756138 29.52075863 C-8.16346247 28.78620506 -11.87724995 25.80710267 -14.88214111 22.01544189 C-16.79814433 18.23074418 -16.45630722 14.24037125 -15.83135986 10.14044189 C-14.10423804 5.95898906 -11.51028375 3.71568862 -7.83135986 1.14044189 C-4.91262129 0.16752904 -3.03845066 0.01044065 0 0 Z " fill="#EA4A5C" transform="translate(129.83135986328125,283.85955810546875)"/>
<path d="M0 0 C0.89802841 -0.00511093 1.79605682 -0.01022186 2.72129822 -0.01548767 C5.69008041 -0.02938808 8.65863054 -0.02842641 11.62744141 -0.02612305 C13.69243455 -0.03001001 15.7574269 -0.03434468 17.82241821 -0.03910828 C22.15165803 -0.04657166 26.4808163 -0.04627854 30.81005859 -0.04101562 C36.35396277 -0.0352239 41.89753255 -0.05214437 47.44138145 -0.0753603 C51.70679675 -0.09010366 55.97213164 -0.09096845 60.2375679 -0.08785057 C62.28127326 -0.08836358 64.32498315 -0.09359746 66.36866379 -0.10366249 C69.22906865 -0.11601972 72.08882403 -0.10923912 74.94921875 -0.09765625 C76.21186302 -0.10912186 76.21186302 -0.10912186 77.50001526 -0.12081909 C82.43943042 -0.07668237 85.82554277 0.53912006 90.10400391 3.2746582 C93.79797544 7.56765215 95.37423004 11.65620649 95.10400391 17.2746582 C93.3466175 22.54681741 90.46902534 25.09183007 86.10400391 28.2746582 C82.2259775 29.56733367 78.54740113 29.43035143 74.50512695 29.43579102 C73.62675171 29.44075592 72.74837646 29.44572083 71.84338379 29.45083618 C68.93415547 29.46545486 66.02498169 29.47225947 63.11572266 29.4777832 C61.09414163 29.48353508 59.07256061 29.48929281 57.05097961 29.49505615 C52.80994411 29.50556543 48.56892756 29.51140852 44.32788086 29.51489258 C38.89718928 29.52037587 33.46674859 29.54440077 28.03613567 29.57286453 C23.85908785 29.59150139 19.68210031 29.59669708 15.50501442 29.59822845 C13.50316815 29.60125335 11.50132289 29.60927635 9.49951744 29.62241364 C6.69650644 29.63949521 3.89410659 29.63758864 1.09106445 29.63110352 C0.26643204 29.6403183 -0.55820038 29.64953308 -1.40782166 29.6590271 C-6.31012617 29.62355196 -9.64196923 28.97230068 -13.89599609 26.2746582 C-18.26050527 21.43831019 -19.36041543 18.30741075 -19.31396484 11.88793945 C-18.62533247 7.58237817 -16.22215807 4.95999998 -12.89599609 2.2746582 C-8.95898247 -0.43925032 -4.58922885 -0.01344204 0 0 Z " fill="#EA4A5C" transform="translate(132.89599609375,198.725341796875)"/>
<path d="M0 0 C0.91928787 -0.00525696 1.83857574 -0.01051392 2.78572083 -0.01593018 C5.81890953 -0.02911417 8.85157175 -0.02039764 11.88476562 -0.01025391 C13.9955658 -0.0122751 16.1063653 -0.01518691 18.21716309 -0.01895142 C22.63882095 -0.02337261 27.06029689 -0.01695019 31.48193359 -0.00292969 C37.14811434 0.01416194 42.81386877 0.00431968 48.48003387 -0.01364708 C52.83806568 -0.02449036 57.19599651 -0.02103604 61.55403137 -0.0132637 C63.64321442 -0.01126321 65.73240665 -0.01371567 67.82157898 -0.02070236 C70.74197661 -0.02832566 73.66168492 -0.01670003 76.58203125 0 C77.87576408 -0.00910904 77.87576408 -0.00910904 79.19563293 -0.0184021 C85.25840929 0.04578863 88.55357917 1.27504916 93.04101562 5.51318359 C95.41781099 9.41791884 95.99187696 12.84068293 95.79101562 17.38818359 C93.96627117 22.76104226 90.84299492 25.86219395 85.79101562 28.38818359 C82.83277698 28.50255216 79.89755584 28.55605781 76.93847656 28.56518555 C76.02123306 28.57175674 75.10398956 28.57832794 74.15895081 28.58509827 C71.11442997 28.60485664 68.06995853 28.61649996 65.02539062 28.62646484 C63.98662025 28.63054037 62.94784988 28.6346159 61.87760162 28.63881493 C56.37885231 28.65968721 50.88012804 28.67398351 45.38134766 28.68334961 C39.70057672 28.69441216 34.02019769 28.72880719 28.33956528 28.76852131 C23.97293366 28.79466494 19.60639569 28.80303949 15.23969269 28.80663109 C13.14572759 28.81150342 11.05176686 28.82313574 8.95787811 28.84166908 C6.02531392 28.8660106 3.09376706 28.86510439 0.16113281 28.8581543 C-0.7024736 28.87096436 -1.56608002 28.88377441 -2.45585632 28.89697266 C-7.86185636 28.85032401 -10.90703268 27.96262451 -15.20898438 24.38818359 C-18.59468904 20.55105164 -18.7218961 16.75416897 -18.56054688 11.82568359 C-17.90124132 7.25449839 -15.67945929 4.55085997 -12.14001465 1.75228882 C-8.04540613 -0.1533472 -4.46455905 -0.0314345 0 0 Z " fill="#EA4A5C" transform="translate(132.208984375,369.61181640625)"/>
<path d="M0 0 C4.29997827 2.3321916 7.11400493 5.22530719 8.5625 9.9375 C9.27083301 14.0615722 8.67838148 17.13242528 7 21 C2.9966345 25.74082757 0.27227469 27.78010245 -5.875 28.375 C-11.01233747 28.25063243 -14.02124685 25.70582168 -17.8125 22.4375 C-20.50645567 19.17639576 -20.33089334 15.30348637 -20.28515625 11.28515625 C-19.72881312 6.82679007 -17.20582561 4.05966493 -13.9375 1.1875 C-9.32338787 -1.64050421 -5.07516675 -1.34664458 0 0 Z " fill="#EA4A5C" transform="translate(77,285)"/>
<path d="M0 0 C3.70960417 1.34894697 6.40720645 3.24912817 8.875 6.375 C10.72465417 10.69085973 11.16679943 13.83240399 10.5 18.5 C8.55993113 23.02682736 6.28635236 25.57269061 2 28 C-2.48082352 29.39247814 -5.87232726 29.3829832 -10.3125 27.875 C-13.79140662 25.44785585 -16.1037926 22.7924148 -18 19 C-18.43011819 14.78980462 -18.4699635 11.11307145 -16.8125 7.1875 C-12.00702867 1.38779322 -7.52577879 -0.97807955 0 0 Z " fill="#EA4A5C" transform="translate(75,199)"/>
<path d="M0 0 C4.45800073 2.18847308 6.95199316 4.47282698 9 9 C10.44308312 13.63848144 9.83904322 16.80152257 8.02734375 21.16796875 C6.14310458 24.52807586 3.37007069 26.31496466 0 28 C-4.98066973 28.54644038 -8.8958307 28.54204675 -13.4375 26.3125 C-16.79656012 23.28115306 -18.69355631 21.25860352 -19.31640625 16.66796875 C-19.58213652 10.95048191 -18.96847152 7.39749547 -15 3 C-10.63453818 -0.85187808 -5.54054055 -0.79911643 0 0 Z " fill="#EA4A5C" transform="translate(76,370)"/>
<path d="M0 0 C4.45800073 2.18847308 6.95199316 4.47282698 9 9 C10.44308312 13.63848144 9.83904322 16.80152257 8.02734375 21.16796875 C6.14310458 24.52807586 3.37007069 26.31496466 0 28 C-4.98066973 28.54644038 -8.8958307 28.54204675 -13.4375 26.3125 C-16.79656012 23.28115306 -18.69355631 21.25860352 -19.31640625 16.66796875 C-19.58213652 10.95048191 -18.96847152 7.39749547 -15 3 C-10.63453818 -0.85187808 -5.54054055 -0.79911643 0 0 Z " fill="#EA4A5C" transform="translate(76,114)"/>
</svg>
