<?xml version="1.0" encoding="UTF-8"?>
<svg version="1.1" xmlns="http://www.w3.org/2000/svg" width="512" height="512">
<path d="M0 0 C20.97033134 18.16363846 33.28540367 43.6928413 35.875 71.25 C36.12087519 75.2480076 36.28471277 79.24747539 36.4375 83.25 C36.48068359 84.31089844 36.52386719 85.37179688 36.56835938 86.46484375 C36.67355996 89.05979151 36.77570119 91.65482084 36.875 94.25 C37.45241943 94.33975098 38.02983887 94.42950195 38.62475586 94.52197266 C60.59497642 98.01649323 79.78144824 103.32985517 96.875 118.25 C97.50148438 118.78109375 98.12796875 119.3121875 98.7734375 119.859375 C106.60467208 127.01733602 111.51055629 136.58545726 115.25 146.375 C115.48855713 146.9949585 115.72711426 147.61491699 115.97290039 148.25366211 C119.58242987 158.29433735 120.24568127 168.45180306 120.20996094 179.04614258 C120.20641476 180.35256368 120.20286858 181.65898478 120.19921494 183.00499439 C120.07140063 197.294483 118.36675929 211.35431119 116.515625 225.51171875 C116.16316922 228.29270258 115.81587463 231.07432614 115.46820068 233.85591125 C114.74425531 239.62458437 114.00647134 245.39134014 113.25878906 251.15698242 C112.40225531 257.76268696 111.56430799 264.37053625 110.73694253 270.97995347 C109.84269257 278.12282996 108.93623478 285.26411755 108.02560711 292.40492272 C107.76924381 294.42076329 107.51492734 296.43685302 107.26105499 298.45300865 C99.30746238 361.29039334 99.30746238 361.29039334 75.26855469 380.53613281 C63.67040787 389.11642948 50.50355038 394.62664398 36.5625 398.0625 C35.78253662 398.2574707 35.00257324 398.45244141 34.19897461 398.65332031 C14.7841719 403.06409588 -5.17418159 402.5645265 -24.95434928 402.55158257 C-28.24610795 402.55049813 -31.53784795 402.55543336 -34.82960254 402.560188 C-42.61354862 402.57121173 -50.39744642 402.57176163 -58.18139648 402.56567383 C-66.13901814 402.55964463 -74.09646251 402.57193482 -82.05405396 402.5932439 C-88.95158162 402.61101656 -95.84905367 402.61683678 -102.74660331 402.61360615 C-106.83726422 402.61181735 -110.92779875 402.61418234 -115.01843834 402.62832069 C-152.50595574 402.74667456 -191.58790715 401.31724169 -220.484375 374.11328125 C-236.07314479 357.21007377 -240.72261432 334.95791326 -243.45703125 312.84765625 C-243.65583144 311.29933423 -243.85546528 309.75111906 -244.05586243 308.20300293 C-244.58563216 304.09052821 -245.10346644 299.97664304 -245.61795807 295.86223221 C-246.1574026 291.55782339 -246.70508314 287.25446043 -247.25146484 282.95092773 C-247.91415819 277.72505251 -248.57499369 272.49895721 -249.22998047 267.27210999 C-250.39136754 258.00776903 -251.57784349 248.74758649 -252.80938721 239.49230957 C-264.06531646 154.85792195 -264.06531646 154.85792195 -242.5625 126.1875 C-241.43651512 124.85793303 -240.29187606 123.54382786 -239.125 122.25 C-238.3825 121.37021484 -238.3825 121.37021484 -237.625 120.47265625 C-222.17995747 103.44449686 -197.19050794 96.63061745 -175.125 94.25 C-175.08761719 92.93128906 -175.05023438 91.61257812 -175.01171875 90.25390625 C-173.95116555 58.98223529 -165.82358961 31.51688851 -144.125 8.25 C-142.7946875 6.79787109 -142.7946875 6.79787109 -141.4375 5.31640625 C-102.77362228 -35.20198886 -41.89786188 -35.02715141 0 0 Z M-123.72265625 31.1640625 C-138.816936 50.374964 -143.125 68.64247298 -143.125 93.25 C-94.285 93.25 -45.445 93.25 4.875 93.25 C4.875 65.41860789 1.44590647 45.19207883 -18.125 25.25 C-18.72828125 24.62222656 -19.3315625 23.99445313 -19.953125 23.34765625 C-33.91310017 9.96428875 -53.93423991 4.61465041 -72.80078125 4.9765625 C-93.02993789 5.89586276 -110.48863658 16.31807953 -123.72265625 31.1640625 Z M-161.9375 178.1875 C-166.33845634 184.34883887 -166.92718586 189.83238527 -166.125 197.25 C-164.48493246 203.6781842 -160.7480886 206.71598058 -155.24609375 210.12109375 C-150.57838288 212.60538186 -146.29642964 212.94111272 -141.125 212.25 C-134.03189846 209.90664942 -129.82533557 206.69574583 -126.125 200.25 C-124.29264243 194.7529273 -123.9477373 188.28352755 -126.06640625 182.82421875 C-129.23638917 177.54753872 -133.3876835 173.60889668 -139.125 171.25 C-148.64068414 170.18026296 -155.3796114 170.87365883 -161.9375 178.1875 Z M-13.5 178.6875 C-17.23480907 184.57700662 -18.04081303 190.50772064 -16.73046875 197.29296875 C-14.94029479 203.26406513 -11.17274017 206.76580458 -6.125 210.25 C-0.83572227 212.78444558 4.6013984 213.21346803 10.2109375 211.5625 C16.85312392 208.91445226 20.78645813 205.06212844 23.75 198.5 C25.65578882 192.71653681 25.25399391 187.28854176 22.7421875 181.75390625 C20.04794773 177.27086794 17.16886528 173.87171286 12.27734375 171.84375 C1.74052242 169.23952749 -6.03605872 171.02713921 -13.5 178.6875 Z " fill="#EF7C86" transform="translate(325.125,67.75)"/>
<path d="M0 0 C20.75801343 17.97973742 33.66966206 43.82419659 35.875 71.25 C35.9866611 75.25124758 35.97006004 79.24762017 35.9375 83.25 C35.93298828 84.31089844 35.92847656 85.37179688 35.92382812 86.46484375 C35.91213843 89.05995598 35.89575276 91.65494709 35.875 94.25 C32.53418547 95.36360484 30.22193255 95.29311695 26.7109375 95.1640625 C25.50695312 95.12023437 24.30296875 95.07640625 23.0625 95.03125 C21.804375 94.9796875 20.54625 94.928125 19.25 94.875 C17.98414063 94.83117187 16.71828125 94.78734375 15.4140625 94.7421875 C6.00369699 94.37869699 6.00369699 94.37869699 4.875 93.25 C4.75390648 91.86548491 4.69538614 90.47538506 4.6640625 89.0859375 C4.63795898 88.21831787 4.61185547 87.35069824 4.58496094 86.45678711 C4.55692383 85.52229736 4.52888672 84.58780762 4.5 83.625 C3.52718126 59.47824923 -3.75958885 40.07053841 -21.328125 23.125 C-36.08363649 10.27666347 -55.76346581 4.73296224 -75.10009766 6.04296875 C-94.33511863 8.00960702 -110.82787808 17.58105756 -123.5 31.94140625 C-136.30010603 48.71654521 -141.78439373 66.50712769 -142.73046875 87.4609375 C-143.02071255 93.14571255 -143.02071255 93.14571255 -144.125 94.25 C-148.2547355 94.5809926 -152.3951091 94.67629606 -156.53564453 94.80761719 C-158.61654328 94.87472727 -160.69685819 94.95246238 -162.77734375 95.03125 C-164.07800781 95.07507813 -165.37867188 95.11890625 -166.71875 95.1640625 C-167.92208984 95.2048291 -169.12542969 95.2455957 -170.36523438 95.28759766 C-173.125 95.25 -173.125 95.25 -174.125 94.25 C-176.63986085 66.60177222 -168.69248314 37.7585083 -151.13232422 16.07470703 C-148.87062224 13.39597628 -146.51573074 10.81352448 -144.125 8.25 C-143.238125 7.28191406 -142.35125 6.31382813 -141.4375 5.31640625 C-102.77362228 -35.20198886 -41.89786188 -35.02715141 0 0 Z " fill="#EA495B" transform="translate(325.125,67.75)"/>
</svg>
