<svg width="24" height="24" viewBox="0 0 24 24" fill="none" xmlns="http://www.w3.org/2000/svg">
<g clip-path="url(#clip0_32_4401)">
<path d="M16.19 8.86002C15.8 8.86002 15.49 8.55002 15.49 8.16002V6.88002C15.49 5.90002 15.07 4.96002 14.35 4.30002C13.61 3.63002 12.66 3.32002 11.66 3.41002C9.97999 3.57002 8.50999 5.28002 8.50999 7.06002V7.96002C8.50999 8.35002 8.19999 8.66002 7.80999 8.66002C7.41999 8.66002 7.10999 8.35002 7.10999 7.96002V7.06002C7.10999 4.56002 9.12999 2.25002 11.52 2.02002C12.91 1.89002 14.25 2.33002 15.28 3.27002C16.3 4.19002 16.88 5.51002 16.88 6.88002V8.16002C16.88 8.55002 16.57 8.86002 16.19 8.86002Z" fill="#2D3043"/>
<path d="M19.96 8.95996C19.12 8.02996 17.74 7.57996 15.72 7.57996H8.27999C6.25999 7.57996 4.87999 8.02996 4.03999 8.95996C3.06999 10.04 3.09999 11.48 3.20999 12.48L3.90999 18.05C4.11999 20 4.90999 22 9.20999 22H14.79C19.09 22 19.88 20 20.09 18.06L20.79 12.47C20.9 11.48 20.92 10.04 19.96 8.95996ZM8.41999 13.15H8.40999C7.85999 13.15 7.40999 12.7 7.40999 12.15C7.40999 11.6 7.85999 11.15 8.40999 11.15C8.96999 11.15 9.41999 11.6 9.41999 12.15C9.41999 12.7 8.96999 13.15 8.41999 13.15ZM15.42 13.15H15.41C14.86 13.15 14.41 12.7 14.41 12.15C14.41 11.6 14.86 11.15 15.41 11.15C15.97 11.15 16.42 11.6 16.42 12.15C16.42 12.7 15.97 13.15 15.42 13.15Z" fill="#ADB7F7"/>
</g>
<defs>
<clipPath id="clip0_32_4401">
<rect width="24" height="24" fill="white"/>
</clipPath>
</defs>
</svg>
