<svg width="42" height="42" viewBox="0 0 42 42" fill="none" xmlns="http://www.w3.org/2000/svg">
<rect x="1" y="1" width="40" height="40" rx="20" fill="white"/>
<rect x="1" y="1" width="40" height="40" rx="20" stroke="#EAECF0"/>
<path d="M25.8198 10.91H16.1798C14.0598 10.91 12.3198 12.65 12.3198 14.77V28.86C12.3198 30.66 13.6098 31.42 15.1898 30.55L20.0698 27.84C20.5898 27.55 21.4298 27.55 21.9398 27.84L26.8198 30.55C28.3998 31.43 29.6898 30.67 29.6898 28.86V14.77C29.6798 12.65 27.9498 10.91 25.8198 10.91ZM24.6198 18.03L20.6198 22.03C20.4698 22.18 20.2798 22.25 20.0898 22.25C19.8998 22.25 19.7098 22.18 19.5598 22.03L18.0598 20.53C17.7698 20.24 17.7698 19.76 18.0598 19.47C18.3498 19.18 18.8298 19.18 19.1198 19.47L20.0898 20.44L23.5598 16.97C23.8498 16.68 24.3298 16.68 24.6198 16.97C24.9098 17.26 24.9098 17.74 24.6198 18.03Z" fill="#F5B03E"/>
</svg>
