<svg width="25" height="25" viewBox="0 0 25 25" fill="none" xmlns="http://www.w3.org/2000/svg">
<g clip-path="url(#clip0_20_3446)">
<path d="M12.8373 1.53956C12.7995 1.28433 12.6057 1.07636 12.3505 1.03855C11.3059 0.892022 10.2425 1.08108 9.30659 1.57737L5.80894 3.44437C4.8778 3.94065 4.12628 4.72054 3.66308 5.67058L1.92843 9.24386C1.46523 10.1939 1.31398 11.2716 1.49831 12.3114L2.18366 16.225C2.368 17.2696 2.87374 18.2243 3.63472 18.9617L6.48484 21.722C7.24581 22.4593 8.21476 22.932 9.25933 23.0785L13.1824 23.6315C14.2269 23.778 15.2904 23.589 16.2263 23.0927L19.7239 21.2257C20.6551 20.7294 21.4066 19.9495 21.8698 18.9948L23.6044 15.4262C24.0676 14.4762 24.2189 13.3985 24.0346 12.3587C23.992 12.1082 23.7841 11.9191 23.5335 11.8813C21.0994 11.4937 19.1473 9.65507 18.5943 7.27761C18.5092 6.91839 18.2162 6.64425 17.8522 6.58753C15.2715 6.17632 13.2344 4.12972 12.8326 1.53956H12.8373ZM10.4977 7.04128C10.8988 7.04128 11.2835 7.20063 11.5672 7.48428C11.8508 7.76793 12.0102 8.15264 12.0102 8.55378C12.0102 8.95492 11.8508 9.33963 11.5672 9.62328C11.2835 9.90693 10.8988 10.0663 10.4977 10.0663C10.0965 10.0663 9.71184 9.90693 9.42819 9.62328C9.14454 9.33963 8.98519 8.95492 8.98519 8.55378C8.98519 8.15264 9.14454 7.76793 9.42819 7.48428C9.71184 7.20063 10.0965 7.04128 10.4977 7.04128ZM7.47269 16.1163C7.47269 15.7151 7.63204 15.3304 7.91569 15.0468C8.19934 14.7631 8.58405 14.6038 8.98519 14.6038C9.38633 14.6038 9.77104 14.7631 10.0547 15.0468C10.3383 15.3304 10.4977 15.7151 10.4977 16.1163C10.4977 16.5174 10.3383 16.9021 10.0547 17.1858C9.77104 17.4694 9.38633 17.6288 8.98519 17.6288C8.58405 17.6288 8.19934 17.4694 7.91569 17.1858C7.63204 16.9021 7.47269 16.5174 7.47269 16.1163ZM18.0602 13.0913C18.4613 13.0913 18.846 13.2506 19.1297 13.5343C19.4133 13.8179 19.5727 14.2026 19.5727 14.6038C19.5727 15.0049 19.4133 15.3896 19.1297 15.6733C18.846 15.9569 18.4613 16.1163 18.0602 16.1163C17.659 16.1163 17.2743 15.9569 16.9907 15.6733C16.707 15.3896 16.5477 15.0049 16.5477 14.6038C16.5477 14.2026 16.707 13.8179 16.9907 13.5343C17.2743 13.2506 17.659 13.0913 18.0602 13.0913Z" fill="#EAB308"/>
</g>
<defs>
<clipPath id="clip0_20_3446">
<path d="M0.666626 0.235016H24.8666V24.435H0.666626V0.235016Z" fill="white"/>
</clipPath>
</defs>
</svg>
