<svg width="22" height="34" viewBox="0 0 22 34" fill="none" xmlns="http://www.w3.org/2000/svg">
<path d="M21.1748 33.8799H0V0H21.1748V33.8799Z" stroke="#E5E7EB"/>
<g clip-path="url(#clip0_149_1082)">
<path d="M10.5875 9.52877C10.1716 9.52877 9.83125 9.18845 9.83125 8.77252V8.01627C9.83125 5.92713 11.5234 4.23502 13.6125 4.23502H14.3688C14.7847 4.23502 15.125 4.57533 15.125 4.99127V5.74752C15.125 7.83666 13.4329 9.52877 11.3438 9.52877H10.5875ZM0 17.8475C0 14.2411 1.68738 10.285 5.29375 10.285C6.5841 10.285 8.11551 10.7719 9.20262 11.1972C10.0912 11.5423 11.0885 11.5423 11.9771 11.1972C13.0595 10.7766 14.5956 10.285 15.886 10.285C19.4923 10.285 21.1797 14.2411 21.1797 17.8475C21.1797 23.8975 17.3985 28.435 13.6172 28.435C12.8373 28.435 11.8164 28.1231 11.183 27.9009C10.8002 27.7686 10.3843 27.7686 10.0014 27.9009C9.36805 28.1231 8.34711 28.435 7.56723 28.435C3.78125 28.435 0 23.8975 0 17.8475Z" fill="#F97316"/>
</g>
<defs>
<clipPath id="clip0_149_1082">
<path d="M0 4.23502H21.175V28.435H0V4.23502Z" fill="white"/>
</clipPath>
</defs>
</svg>
