<svg width="110" height="112" viewBox="0 0 110 112" fill="none" xmlns="http://www.w3.org/2000/svg">
<path d="M45.9002 9.71847C51.7258 7.26072 58.2973 7.26072 64.123 9.71847L80.5976 16.6689C86.3248 19.0851 90.8578 23.6773 93.1995 29.4354L100.254 46.7822C102.557 52.444 102.557 58.7813 100.254 64.4431L93.1995 81.79C90.8578 87.5481 86.3248 92.1402 80.5976 94.5565L64.123 101.507C58.2973 103.965 51.7258 103.965 45.9002 101.507L29.4255 94.5565C23.6983 92.1402 19.1653 87.5481 16.8236 81.79L9.76891 64.4431C7.46636 58.7813 7.46636 52.444 9.76891 46.7822L16.8236 29.4354C19.1653 23.6773 23.6983 19.0851 29.4255 16.6689L45.9002 9.71847Z" fill="#117752"/>
<path d="M44.3818 6.11865C51.1783 3.25142 58.8451 3.25134 65.6416 6.11865L82.1162 13.0698C88.7978 15.8887 94.0864 21.2458 96.8184 27.9634L103.873 45.3101C106.559 51.9154 106.559 59.3092 103.873 65.9146L96.8184 83.2612C94.0864 89.979 88.7979 95.3368 82.1162 98.1558L65.6416 105.106C58.845 107.973 51.1784 107.973 44.3818 105.106L27.9072 98.1558C21.2255 95.3368 15.9371 89.979 13.2051 83.2612L6.15039 65.9146C3.46412 59.3091 3.46409 51.9155 6.15039 45.3101L13.2051 27.9634C15.9371 21.2458 21.2256 15.8887 27.9072 13.0698L44.3818 6.11865Z" stroke="#29AD7D" stroke-opacity="0.5" stroke-width="7.81341"/>
<path fill-rule="evenodd" clip-rule="evenodd" d="M66.6143 43.5564C67.161 43.0044 67.8991 42.6937 68.669 42.6915C69.4388 42.6894 70.1786 42.9959 70.7283 43.5448C71.278 44.0937 71.5935 44.841 71.6067 45.625C71.6198 46.4089 71.3294 47.1667 70.7984 47.7344L55.2028 67.5899C54.9348 67.8839 54.6113 68.1199 54.2517 68.2837C53.892 68.4475 53.5037 68.5357 53.1098 68.5431C52.7159 68.5506 52.3246 68.477 51.9593 68.3269C51.594 68.1768 51.2621 67.9532 50.9836 67.6694L40.6503 57.1409C40.3625 56.8676 40.1316 56.5382 39.9714 56.1721C39.8113 55.806 39.7252 55.4109 39.7182 55.0102C39.7113 54.6095 39.7837 54.2114 39.931 53.8398C40.0784 53.4683 40.2977 53.1307 40.576 52.8473C40.8542 52.5639 41.1856 52.3405 41.5505 52.1904C41.9153 52.0403 42.3061 51.9666 42.6995 51.9737C43.0929 51.9808 43.4809 52.0685 43.8403 52.2316C44.1997 52.3947 44.5232 52.6299 44.7914 52.9231L52.9721 61.2512L66.5401 43.6439C66.5643 43.6131 66.5904 43.5839 66.6182 43.5564H66.6143Z" fill="white"/>
</svg>
