<svg width="28" height="28" viewBox="0 0 28 28" fill="none" xmlns="http://www.w3.org/2000/svg">
<path d="M3.58781 6.94095C3.58781 6.94095 2.17688 7.05251 1.98875 7.3697C1.79844 7.68689 1.7875 8.1747 1.7875 8.71064C1.7875 9.24876 1.76562 10.4825 1.76562 10.4825L2.1025 11.2066C2.1025 11.2066 2.16594 20.4356 2.16594 20.7222C2.16594 21.0066 2.16594 21.3544 2.57719 21.5753C2.98844 21.7963 13.4403 26.845 13.7663 26.9806C14.2584 27.1841 14.4925 27.1075 14.4925 27.1075L26.1059 7.6847C26.1059 7.6847 26.0688 7.15314 25.5853 7.02626C25.3075 6.95626 3.58781 6.94095 3.58781 6.94095Z" fill="#F5B03E"/>
<path d="M14.3677 13.3263C14.1905 13.8141 14.2714 18.8585 14.3021 22.5269C14.3327 26.1931 14.208 26.9522 14.3021 27.0791C14.3961 27.206 14.6521 27.0835 15.3761 26.7619C16.7214 26.1669 23.1833 22.9688 23.658 22.6844C24.1327 22.4 25.2921 21.8116 25.4824 21.4944C25.6727 21.1772 25.7755 18.2263 25.8389 15.8572C25.9024 13.486 25.9658 11.5894 25.9658 11.5894L26.2502 10.7363C26.2502 10.7363 26.1889 8.43064 26.178 8.17689C26.1583 7.75689 26.1124 7.54033 26.0052 7.59283C25.8521 7.66502 24.5746 8.71283 21.1927 10.3578C19.0686 11.3881 14.4902 12.9894 14.3677 13.3263Z" fill="#E07F14"/>
<path d="M14.3982 2.4522C13.4511 2.40845 10.8589 3.90689 8.36074 4.7272C5.86262 5.54751 2.09137 7.19689 2.05855 7.29314C2.02793 7.3872 3.57668 8.08064 4.56543 8.55533C5.74012 9.11751 10.2245 11.2416 11.0448 11.5894C11.8673 11.9372 13.8273 12.7509 14.1423 12.7269C14.5842 12.6963 18.7579 11.0513 20.8754 10.0406C22.9929 9.03001 25.6398 7.46376 25.6748 7.08314C25.6901 6.91251 21.7811 5.45345 19.832 4.57189C16.0695 2.86783 15.0917 2.48501 14.3982 2.4522Z" fill="#FDD717"/>
<path d="M1.77629 10.8872C1.8091 11.2984 2.03441 11.445 2.60754 11.6944C3.18066 11.9437 14.0153 17.5722 14.2647 17.5722C14.5141 17.5722 14.5885 16.6797 14.315 16.7037C14.1663 16.7169 10.6072 15.0259 7.28223 13.3372C4.46035 11.9066 1.75879 10.4781 1.75879 10.4781L1.77629 10.8872Z" fill="#E37D14"/>
<path d="M26.2521 10.7166C26.2521 10.7166 14.6825 16.6009 14.5687 16.6578C14.455 16.7147 14.2734 16.695 14.2734 16.695L14.2646 17.5722C14.2646 17.5722 14.3718 17.5962 14.4921 17.5591C14.5621 17.5372 25.9175 11.6594 25.9678 11.6419C26.0181 11.6244 26.2368 11.4931 26.2828 11.2153C26.3221 10.9922 26.2521 10.7166 26.2521 10.7166Z" fill="#BA5E0D"/>
<path d="M6.31277 21.3106L8.57684 24.6794L9.56777 25.0184C9.56777 25.0184 9.64871 21.3434 9.68152 18.62C9.72746 14.6409 9.70996 11.0119 9.76684 10.8062C9.8609 10.4584 14.2643 9.02998 14.2643 9.02998C14.2643 9.02998 19.2387 10.5897 19.3962 10.9375C19.4662 11.0906 19.4115 13.6675 19.3962 16.6709C19.3765 20.464 19.3831 24.8434 19.3831 24.8434C19.3831 24.8434 19.8971 24.8412 19.9584 24.6509C20.0218 24.4606 20.2756 22.9928 20.2756 22.9928L22.205 10.1325L23.185 8.86811L21.8243 6.27811L16.2418 3.53061L14.3234 3.96155L12.2475 3.64436L5.66309 8.37592L6.4309 9.93342L8.31434 10.8937L6.31277 21.3106Z" fill="#AF0F1B"/>
<path d="M19.9675 10.8041C19.8472 11.0688 19.9172 24.7078 19.9172 24.7078C19.9172 24.7078 20.5188 24.3753 21.2932 24.0034C22.0632 23.6338 22.6166 23.4041 22.6647 23.2116C22.7128 23.0191 22.7982 9.53094 22.7982 9.53094L19.9675 10.8041Z" fill="#DC0D28"/>
<path d="M9.04496 10.5219C9.11715 10.6006 8.99902 24.7538 8.85246 24.7866C8.73652 24.815 6.10059 23.6381 6.10059 23.5178C6.10059 23.3975 6.31277 9.87219 6.31277 9.87219C6.31277 9.87219 8.83059 10.2812 9.04496 10.5219ZM14.2687 3.11719C13.5403 3.11719 12.7353 3.325 12.5012 3.93531C12.2671 4.54563 12.2146 5.45344 12.2146 6.13156C12.2146 6.78125 12.1096 8.44375 14.1112 8.4175C16.1128 8.39125 16.1718 7.64969 16.2025 6.01344C16.2287 4.64844 16.0471 3.98563 15.8656 3.70125C15.7037 3.44531 15.1656 3.11719 14.2687 3.11719Z" fill="#FF2A23"/>
<path d="M13.1122 6.4947C13.5672 6.52095 13.7619 5.52126 14.1119 4.97439C14.4619 4.4297 14.8272 4.06439 14.696 3.78001C14.5888 3.54376 13.6372 3.4672 13.1232 4.18251C12.7622 4.68783 12.6988 6.47064 13.1122 6.4947Z" fill="#FCC9D2"/>
<path d="M16.041 3.59187C16.041 3.59187 16.6863 4.24812 16.8548 5.53437C17.0232 6.82062 16.8285 7.82031 16.8285 7.82031C16.8285 7.82031 20.0354 7.72406 21.1423 7.93624C22.2338 8.14843 22.6145 8.62968 22.6145 8.97968C22.6145 9.32968 21.897 9.61187 21.1685 9.55937C20.4401 9.50687 19.9479 9.46749 19.856 9.65124C19.7641 9.83499 19.8954 10.1194 20.9082 10.1959C21.921 10.2747 23.0913 10.1303 23.4545 8.87031C23.8176 7.61031 23.8307 5.42718 23.7016 3.85437C23.5726 2.28156 23.2882 1.38249 22.5838 1.04124C21.8423 0.684681 19.9851 0.625618 18.2307 1.61218C16.4763 2.59874 16.041 3.59187 16.041 3.59187Z" fill="#FF2A23"/>
<path d="M19.6742 2.09563C19.4467 1.80251 18.7139 1.81126 18.3223 2.26407C17.9067 2.74532 17.8148 4.57626 18.3486 4.68126C18.9523 4.79938 18.8429 3.81063 19.2848 3.20032C19.7179 2.60313 19.8951 2.3822 19.6742 2.09563Z" fill="#FCC9D2"/>
<path d="M12.333 3.6553C12.333 3.6553 9.87645 0.79186 7.06988 0.83561C5.38113 0.86186 4.95238 1.8353 4.86051 2.2378C4.76863 2.6403 4.06863 6.64342 5.0027 8.81123C5.93676 10.979 7.87488 10.4169 8.17895 10.3469C8.56832 10.255 9.39738 9.97061 9.31863 9.67092C9.23988 9.37123 6.48582 10.4497 6.45957 9.21592C6.43332 7.98217 8.40863 7.85092 9.31863 7.82467C10.2286 7.79842 11.7883 8.00623 11.7883 8.00623C11.7883 8.00623 11.5149 6.51217 11.6964 5.44686C11.878 4.38155 12.333 3.6553 12.333 3.6553Z" fill="#FF2A23"/>
<path d="M6.31754 1.8747C5.96754 2.23783 5.82317 4.33126 6.0441 5.37033C6.26504 6.40939 6.45973 6.85126 6.91473 6.76158C7.29535 6.68501 7.52504 4.64626 7.7066 3.92876C7.90129 3.16314 8.38254 2.34939 8.18785 1.99283C7.89035 1.44595 6.68285 1.49626 6.31754 1.8747Z" fill="#FCC9D2"/>
</svg>
