<svg width="25" height="25" viewBox="0 0 25 25" fill="none" xmlns="http://www.w3.org/2000/svg">
<g clip-path="url(#clip0_20_3436)">
<path d="M16.3871 0.51864C15.957 1.03856 15.1251 2.23438 15.1251 3.63817C15.1251 5.5288 15.8483 6.25196 17.0157 7.41942C18.1832 8.58688 18.9063 9.31005 20.797 9.31005C22.2008 9.31005 23.3966 8.47817 23.9165 8.04805C24.1056 7.89208 24.2001 7.66048 24.2001 7.41942C24.2001 7.17837 24.1056 6.94676 23.9165 6.79552C23.3777 6.3654 22.1062 5.5288 20.4188 5.5288C18.9063 5.5288 18.5282 5.90692 18.5282 5.90692C18.5282 5.90692 18.9063 5.5288 18.9063 4.0163C18.9063 2.32891 18.0697 1.05747 17.6396 0.51864C17.4884 0.329578 17.2568 0.235046 17.0157 0.235046C16.7747 0.235046 16.5431 0.329578 16.3871 0.51864ZM11.5613 6.66317C9.67064 6.66317 7.91708 7.51868 6.75435 8.94137L9.61392 11.8009C9.90696 12.094 9.90696 12.5761 9.61392 12.8691C9.32087 13.1622 8.83876 13.1622 8.54571 12.8691L5.93192 10.2554V10.2601L0.104073 22.8233C-0.0944423 23.2534 -0.00463759 23.7639 0.330948 24.1042C0.666534 24.4445 1.177 24.5296 1.61185 24.3311L7.97853 21.3817L5.51599 18.9191C5.22294 18.6261 5.22294 18.144 5.51599 17.8509C5.80903 17.5579 6.29114 17.5579 6.58419 17.8509L9.43903 20.7011L14.175 18.5079C16.3682 17.4917 17.7767 15.2939 17.7767 12.8739C17.772 9.44239 14.9927 6.66317 11.5613 6.66317Z" fill="#22C55E"/>
</g>
<defs>
<clipPath id="clip0_20_3436">
<path d="M0 0.235046H24.2V24.435H0V0.235046Z" fill="white"/>
</clipPath>
</defs>
</svg>
