<svg width="28" height="29" viewBox="0 0 28 29" fill="none" xmlns="http://www.w3.org/2000/svg">
<path d="M15.1665 12.1443H8.1665C7.68817 12.1443 7.2915 11.7476 7.2915 11.2693C7.2915 10.791 7.68817 10.3943 8.1665 10.3943H15.1665C15.6448 10.3943 16.0415 10.791 16.0415 11.2693C16.0415 11.7476 15.6448 12.1443 15.1665 12.1443Z" fill="#2D3043"/>
<path d="M22.213 18.0359C20.4514 18.0359 18.9581 16.7292 18.8181 15.0492C18.7247 14.0809 19.0747 13.1359 19.7747 12.4476C20.3581 11.8409 21.1864 11.5026 22.0614 11.5026H24.4997C25.6547 11.5376 26.5414 12.4475 26.5414 13.5675V15.9709C26.5414 17.0909 25.6548 18.0009 24.5348 18.0359H22.213ZM24.4647 13.2526H22.073C21.6647 13.2526 21.2914 13.4042 21.0231 13.6842C20.6848 14.0109 20.5214 14.4542 20.5681 14.8975C20.6264 15.6675 21.373 16.2859 22.213 16.2859H24.4997C24.6514 16.2859 24.7914 16.1459 24.7914 15.9709V13.5675C24.7914 13.3925 24.6514 13.2642 24.4647 13.2526Z" fill="#2D3043"/>
<path d="M18.6668 25.561H8.16683C4.1535 25.561 1.4585 22.866 1.4585 18.8527V10.686C1.4585 7.09266 3.67513 4.491 7.1168 4.05934C7.4318 4.01267 7.7935 3.97766 8.16683 3.97766H18.6668C18.9468 3.97766 19.3085 3.98932 19.6818 4.04766C23.1235 4.44432 25.3752 7.05766 25.3752 10.686V12.3777C25.3752 12.856 24.9785 13.2527 24.5002 13.2527H22.0735C21.6651 13.2527 21.2919 13.4043 21.0235 13.6843L21.0118 13.696C20.6852 14.011 20.5335 14.4426 20.5685 14.886C20.6268 15.656 21.3735 16.2743 22.2135 16.2743H24.5002C24.9785 16.2743 25.3752 16.671 25.3752 17.1493V18.841C25.3752 22.866 22.6802 25.561 18.6668 25.561ZM8.16683 5.72766C7.88683 5.72766 7.61848 5.75098 7.35015 5.78598C4.78348 6.11265 3.2085 7.97933 3.2085 10.686V18.8527C3.2085 21.8627 5.15683 23.811 8.16683 23.811H18.6668C21.6768 23.811 23.6252 21.8627 23.6252 18.8527V18.036H22.2135C20.4518 18.036 18.9585 16.7293 18.8185 15.0493C18.7252 14.0927 19.0752 13.136 19.7752 12.4594C20.3818 11.841 21.1985 11.5027 22.0735 11.5027H23.6252V10.686C23.6252 7.95599 22.0268 6.07764 19.4368 5.7743C19.1568 5.72764 18.9118 5.72766 18.6668 5.72766H8.16683V5.72766Z" fill="#2D3043"/>
</svg>
