<?xml version="1.0" encoding="UTF-8"?>
<svg version="1.1" xmlns="http://www.w3.org/2000/svg" width="512" height="512">
<path d="M0 0 C2.08796367 -0.00435651 4.17592575 -0.00954276 6.2638855 -0.01548767 C11.8943441 -0.02878962 17.52473521 -0.02946609 23.15520644 -0.02692437 C27.87620299 -0.0258484 32.59718623 -0.03075408 37.31817991 -0.03552979 C48.46847788 -0.0465951 59.61874217 -0.04707955 70.76904297 -0.04101562 C82.22347678 -0.03498148 93.67778758 -0.04727958 105.13220042 -0.06858569 C115.00959937 -0.0862743 124.88695942 -0.09219156 134.7643736 -0.08894795 C140.64459255 -0.08714609 146.52472379 -0.0896604 152.40492821 -0.10366249 C157.94138644 -0.11635457 163.47765482 -0.11419057 169.01411057 -0.1012516 C171.02948258 -0.09891062 173.04486844 -0.10152981 175.06022453 -0.10987473 C213.28127967 -0.25654599 246.54997117 9.65769993 274.38208008 36.70825195 C296.02844251 59.63457321 305.99972188 91.84478215 305.91333008 122.9230957 C305.91913086 124.03040039 305.92493164 125.13770508 305.9309082 126.27856445 C305.93748676 128.54948382 305.91608462 130.82063608 305.8684082 133.09106445 C305.80694152 139.14462298 305.80694152 139.14462298 308.58959961 144.26269531 C310.62091774 145.76517594 312.68406399 147.02658785 314.87817383 148.2746582 C322.0318954 154.92658995 326.49847235 163.08314364 327.01861572 172.93461609 C327.02544373 173.88818497 327.03227173 174.84175385 327.03930664 175.82421875 C327.04891418 176.91272629 327.05852173 178.00123383 327.06842041 179.12272644 C327.07479523 180.87435844 327.07479523 180.87435844 327.08129883 182.66137695 C327.0869989 183.873564 327.09269897 185.08575104 327.09857178 186.33467102 C327.10801103 188.89921194 327.11455149 191.46376492 327.1184082 194.02832031 C327.12809477 197.93031276 327.15912167 201.83177409 327.19067383 205.73364258 C327.19720631 208.23038426 327.20245582 210.72712969 327.20629883 213.22387695 C327.21864563 214.38151047 327.23099243 215.53914398 327.24371338 216.7318573 C327.21387319 227.71169409 325.00100847 236.7455987 317.87817383 245.2746582 C310.78261069 252.32243977 310.78261069 252.32243977 306.87817383 254.2746582 C306.85835449 254.9680127 306.83853516 255.66136719 306.81811523 256.37573242 C305.59470375 297.26200913 300.2021033 335.8035787 269.00708008 365.4230957 C245.62296956 385.76083586 216.67138632 396.44846686 185.69230652 396.4151001 C184.81259715 396.41807122 183.93288778 396.42104234 183.02652055 396.4241035 C180.10230591 396.43271927 177.17813254 396.43429269 174.25390625 396.43579102 C172.14712437 396.4404244 170.04034332 396.44544976 167.93356323 396.45083618 C162.224258 396.46391582 156.51496452 396.47039697 150.80564666 396.47484684 C147.23028073 396.47778597 143.65491794 396.48189243 140.0795536 396.48635101 C128.86902354 396.50001697 117.65850075 396.50968689 106.44796294 396.5135529 C93.55278144 396.51802547 80.65770637 396.53553994 67.76255721 396.5645535 C57.76638998 396.58625518 47.77025249 396.59626177 37.77406198 396.59759402 C31.81773388 396.59863639 25.86150594 396.60442162 19.90520287 396.62241364 C14.29168272 396.6390407 8.67833644 396.64097971 3.06480026 396.63227463 C1.02040321 396.6315119 -1.02400375 396.63574414 -3.06837654 396.64573288 C-39.91577495 396.81500418 -71.82825526 387.96826116 -99.12182617 362.2746582 C-100.02674805 361.46641602 -100.02674805 361.46641602 -100.94995117 360.6418457 C-122.07398529 340.99846818 -132.25974914 309.46189461 -133.29405975 281.27511597 C-133.59968141 270.44386273 -133.54785399 259.60419185 -133.52480268 248.76974869 C-133.51710643 244.00925458 -133.52427892 239.2487762 -133.52896118 234.48828125 C-133.53439015 226.50004922 -133.52730285 218.51190091 -133.51293945 210.52368164 C-133.49661852 201.34184018 -133.50190906 192.16019871 -133.51841867 182.97836208 C-133.5321157 175.03714275 -133.53391339 167.09598295 -133.52610266 159.15475559 C-133.52147094 154.43715204 -133.52067499 149.7196419 -133.53071213 145.00204468 C-133.60735389 103.23080275 -129.41279151 65.55311889 -99.10229492 34.1574707 C-84.10797769 19.27915391 -65.870592 10.0132745 -45.62182617 4.5246582 C-44.89987061 4.32598145 -44.17791504 4.12730469 -43.43408203 3.92260742 C-29.05691591 0.2298259 -14.74153857 -0.02050614 0 0 Z M-78.74682617 60.8996582 C-96.53237547 81.47694276 -100.2646052 106.78019441 -100.28295898 133.0612793 C-100.28759812 134.62486892 -100.29262421 136.18845743 -100.29800415 137.75204468 C-100.31102835 141.97167662 -100.31755392 146.19129273 -100.32201481 150.4109416 C-100.32496293 153.05865783 -100.32907094 155.70636991 -100.33351898 158.35408401 C-100.34717023 166.67121017 -100.35684737 174.98832662 -100.36072087 183.30546319 C-100.36519009 192.84433083 -100.38269507 202.38305435 -100.41172147 211.92187822 C-100.43348265 219.33553326 -100.44343285 226.74914819 -100.44476199 234.16283476 C-100.44580014 238.57154832 -100.45149252 242.98012601 -100.4695816 247.38880539 C-101.24441045 279.48459639 -101.24441045 279.48459639 -93.87182617 310.3996582 C-93.41404785 311.56670288 -93.41404785 311.56670288 -92.94702148 312.75732422 C-84.74417418 332.97148364 -69.3119693 347.38982107 -49.42651367 355.99731445 C-31.87731584 362.78051503 -14.39675354 363.57660386 4.15136719 363.53344727 C6.13597237 363.53616414 8.12057654 363.53972895 10.10517883 363.54406738 C15.4482032 363.55311147 20.7911495 363.54968021 26.13417506 363.54330921 C31.75559479 363.53820685 37.37700832 363.54295241 42.99842834 363.54608154 C52.43548773 363.54970923 61.87251571 363.54495395 71.30957031 363.53540039 C82.18068808 363.52452134 93.05173078 363.52804231 103.92284673 363.5390532 C113.29746161 363.5481641 122.67205405 363.54939274 132.04667193 363.54417586 C137.62774004 363.54107659 143.20877301 363.54059003 148.78983879 363.54724884 C154.0406421 363.55307718 159.29134976 363.54892628 164.54214287 363.53746033 C166.45556989 363.53484269 168.36900512 363.53552844 170.28242874 363.53998566 C199.27232384 363.60122775 226.76773542 359.61955919 248.44848633 338.73217773 C264.81103254 322.05109835 272.17014103 298.94599251 272.05395508 275.99926758 C272.03719727 274.70827148 272.02043945 273.41727539 272.00317383 272.0871582 C271.99311312 270.74015973 271.98399279 269.39315389 271.97583008 268.04614258 C271.95247987 264.78878799 271.91973153 261.53182271 271.87817383 258.2746582 C270.40562134 258.26063965 270.40562134 258.26063965 268.90332031 258.24633789 C265.18463311 258.20580536 261.46671972 258.13988984 257.74853516 258.06713867 C256.15358586 258.03928908 254.55850778 258.0178999 252.96337891 258.00366211 C232.90113317 257.81409758 216.35130545 253.56706641 201.60864258 239.13012695 C190.86678597 227.89651153 185.05830943 214.04267972 184.56567383 198.5246582 C184.95639629 181.54993811 191.11595878 166.82722603 203.06176758 154.8996582 C214.38761409 144.34352942 227.31056708 139.27715559 242.67895508 138.95825195 C243.51533005 138.93747086 244.35170502 138.91668976 245.21342468 138.89527893 C247.87242804 138.83014786 250.5315261 138.7710687 253.19067383 138.7121582 C254.99862614 138.66893828 256.80656904 138.6253229 258.61450195 138.58129883 C263.03563005 138.47450404 267.45685295 138.37313495 271.87817383 138.2746582 C272.59945514 111.45131593 271.54745691 86.06429932 253.87817383 64.2746582 C252.8959082 63.03135742 252.8959082 63.03135742 251.89379883 61.76293945 C236.95942457 43.96705187 214.67408723 35.80056354 192.08016062 33.45564294 C184.6393063 32.84406749 177.14991846 32.98908374 169.69018555 33 C167.70236522 32.99564275 165.71454656 32.99045626 163.72673035 32.98451233 C158.36892223 32.97121727 153.01118508 32.9705332 147.6533637 32.97307563 C143.15862603 32.97415222 138.6639023 32.96924429 134.16916764 32.96447021 C123.55100004 32.95340695 112.93286783 32.95291908 102.31469727 32.95898438 C91.41354915 32.96501629 80.51253036 32.95272562 69.6114043 32.93141431 C60.20617226 32.9137133 50.80098106 32.90781043 41.395733 32.91105205 C35.7988496 32.91285219 30.20205838 32.91035743 24.60519028 32.89633751 C19.33383639 32.88362523 14.06268169 32.88582786 8.79133034 32.8987484 C6.87474432 32.90108521 4.95814368 32.89848584 3.04157448 32.89012527 C-27.6101247 32.76622995 -56.60891124 37.81729297 -78.74682617 60.8996582 Z M223.35083008 180.30981445 C217.77474177 187.74952909 216.79606965 195.10524908 217.87817383 204.2746582 C219.61351022 211.77912616 224.42964317 217.22154405 230.87817383 221.2746582 C238.50148078 224.73529643 245.24625981 225.87289275 253.56567383 225.8059082 C254.63060059 225.80973511 255.69552734 225.81356201 256.79272461 225.81750488 C259.02124997 225.82020583 261.24980804 225.81297338 263.47827148 225.79614258 C266.89743563 225.77453649 270.31453913 225.79609417 273.73364258 225.8215332 C275.9068243 225.81889293 278.08000474 225.8137742 280.25317383 225.8059082 C281.27499756 225.81400513 282.29682129 225.82210205 283.34960938 225.83044434 C284.76753784 225.81153137 284.76753784 225.81153137 286.21411133 225.79223633 C287.04475098 225.78905396 287.87539063 225.78587158 288.73120117 225.78259277 C291.01915095 225.43766935 291.01915095 225.43766935 292.64541626 223.53063965 C294.02816574 221.00016873 294.25776899 219.52650819 294.26635742 216.66137695 C294.28054214 215.2997644 294.28054214 215.2997644 294.29501343 213.91064453 C294.28894073 212.93764404 294.28286804 211.96464355 294.27661133 210.9621582 C294.27948151 209.95628662 294.28235168 208.95041504 294.28530884 207.9140625 C294.28734871 205.78913815 294.28182427 203.66419499 294.26928711 201.53930664 C294.25323277 198.28660091 294.26913885 195.03513778 294.28833008 191.7824707 C294.28634763 189.71736379 294.28250393 187.65225766 294.27661133 185.5871582 C294.28268402 184.61415771 294.28875671 183.64115723 294.29501343 182.63867188 C294.28555695 181.73093018 294.27610046 180.82318848 294.26635742 179.88793945 C294.26277725 178.69358276 294.26277725 178.69358276 294.25912476 177.47509766 C293.76642491 174.62917684 292.94244364 173.29103087 290.87817383 171.2746582 C288.56074989 170.67019834 288.56074989 170.67019834 285.92285156 170.75708008 C284.40998817 170.73816711 284.40998817 170.73816711 282.86656189 170.71887207 C281.77597977 170.72696899 280.68539764 170.73506592 279.56176758 170.7434082 C278.43553482 170.7395813 277.30930206 170.73575439 276.14894104 170.73181152 C273.7607433 170.7290866 271.37251601 170.73648813 268.984375 170.75317383 C265.35388176 170.77443445 261.7253993 170.75346263 258.0949707 170.7277832 C255.77139866 170.7304291 253.44782787 170.73555949 251.12426758 170.7434082 C250.04785507 170.73531128 248.97144257 170.72721436 247.8624115 170.71887207 C238.26672969 170.83626363 229.92866408 172.9544587 223.35083008 180.30981445 Z " fill="#EA495B" transform="translate(159.121826171875,57.725341796875)"/>
<path d="M0 0 C1.10460571 -0.00571014 2.20921143 -0.01142029 3.34729004 -0.01730347 C4.55463806 -0.01842133 5.76198608 -0.01953918 7.00592041 -0.02069092 C8.28112549 -0.02565582 9.55633057 -0.03062073 10.87017822 -0.03573608 C14.36623427 -0.04883735 17.86227114 -0.05530075 21.35834789 -0.05974674 C23.54477126 -0.06268151 25.73118943 -0.06678711 27.91761017 -0.07125092 C34.76480768 -0.08492068 41.61199327 -0.09458954 48.45920348 -0.09845281 C56.35126953 -0.10293058 64.24316214 -0.12046754 72.13517547 -0.1494534 C78.24318981 -0.17110465 84.35115548 -0.18115894 90.45920777 -0.18249393 C94.1035875 -0.18353961 97.74780407 -0.18939669 101.39214325 -0.20731354 C105.46142516 -0.2269307 109.53034636 -0.22249158 113.59967041 -0.21600342 C114.79892151 -0.2252182 115.99817261 -0.23443298 117.23376465 -0.243927 C124.40757191 -0.208124 130.87133771 0.05940096 136.62017822 4.85919189 C137.07521729 5.44700439 137.53025635 6.03481689 137.99908447 6.64044189 C138.47217041 7.22825439 138.94525635 7.81606689 139.43267822 8.42169189 C142.01870364 12.35889322 142.02836847 16.59361995 141.56158447 21.14044189 C139.50683066 26.96224438 135.78067663 30.59708636 130.21648216 33.26477337 C127.30849228 34.22391964 125.01586351 34.39464774 121.95822144 34.40113831 C120.84238174 34.40822311 119.72654205 34.41530792 118.57688904 34.42260742 C117.36221451 34.42013 116.14753998 34.41765259 114.89605713 34.4151001 C113.60934616 34.42021103 112.32263519 34.42532196 110.99693298 34.43058777 C107.47411514 34.44395884 103.95140472 34.44455848 100.42856646 34.44202447 C97.48385266 34.44095331 94.53916047 34.44584191 91.59445131 34.45062989 C84.64467712 34.46171887 77.69495698 34.46216614 70.74517822 34.45611572 C63.58502716 34.4500778 56.42507269 34.46238363 49.26495516 34.48368579 C43.10936917 34.50132331 36.95384562 34.5072997 30.7982353 34.50404805 C27.12541124 34.50223822 23.45272739 34.5048411 19.7799263 34.51876259 C15.6817888 34.5337154 11.58404925 34.52435206 7.48590088 34.51275635 C5.66996178 34.52422195 5.66996178 34.52422195 3.81733704 34.53591919 C-3.23089719 34.49183588 -8.92464439 34.28323719 -14.39935303 29.38653564 C-14.86599365 28.78969971 -15.33263428 28.19286377 -15.81341553 27.57794189 C-16.2955249 26.97852783 -16.77763428 26.37911377 -17.27435303 25.76153564 C-20.28707312 21.56596907 -19.9850419 17.13706885 -19.43841553 12.14044189 C-17.04901732 7.26974555 -13.75381516 4.28708746 -9.43841553 1.14044189 C-6.2809274 0.06731042 -3.31902776 0.01029148 0 0 Z " fill="#F07C86" transform="translate(152.43841552734375,174.85955810546875)"/>
</svg>
